<?xml version="1.0" encoding="utf-8"?>
<!-- Generator: Adobe Illustrator 16.0.0, SVG Export Plug-In . SVG Version: 6.00 Build 0)  -->
<!DOCTYPE svg PUBLIC "-//W3C//DTD SVG 1.1//EN" "http://www.w3.org/Graphics/SVG/1.1/DTD/svg11.dtd">
<svg version="1.1" id="Ebene_1" xmlns="http://www.w3.org/2000/svg" xmlns:xlink="http://www.w3.org/1999/xlink" x="0px" y="0px"
	 width="425.197px" height="425.197px" viewBox="0 0 425.197 425.197" enable-background="new 0 0 425.197 425.197"
	 xml:space="preserve">
<path opacity="0.25" fill-rule="evenodd" clip-rule="evenodd" d="M262.897,256.232c-1.523-0.125-2.992-0.246-4.432-0.366
	c0.074-3.043,0.812-5.864,5.256-5.901c7.894-0.065,11.059-1.713,15.297-5.028c3.861-3.022,6.159-16.746,5.841-27.837
	c-0.154-5.373,0.007-10.585-0.246-15.841c0.447-2.788,0.265-5.259,1.084-8.171c0.604-2.155,2.141-1.244,1.513-3.944
	c-1.982-8.531-9.483-23.222-19.248-28.749c-13.008-7.361-54.576-0.023-65.037,17.457c-2.614,4.369-3.138,12.424-2.313,21.522
	c-3.021-1.233-4.204-0.204-5.932,0.522c-0.086,0.087-0.163,0.188-0.242,0.284c-34.552,1.61-27.705,23.747-23.73,32.226
	c4.522,9.655,21.929,19.443,11.303,39.58c14.795,0.421,17.711-6.957,20.018-15.94c3.775-14.708-9.532-28.235-6.1-33.216
	c0.785,0.531,6.025,1.713,9.065-0.256c0.013,0.044,0.026,0.085,0.039,0.128c3.283,11.572,11.65,19.23,15.81,21.495
	c0.497,0.365,1.118,0.611,1.837,0.76c-0.315,4.021-0.698,7.909-1.001,10.646c-7.258,1.49-13.762,4.61-21.196,10.404
	c-14.816,11.544-15.69,63.733-14.731,70.1c0.959,6.369,12.947,6.961,13.027,10.654c0.08,3.691,3.26,11.654,3.411,18.628
	c0.151,6.976,77.649,9.502,79.542-3.674c1.888-13.174,1.258-18.374,1.462-21.375c0.207-3,14.593-8.524,14.22-18.053
	C297.041,312.762,294.559,258.828,262.897,256.232z"/>
<path fill="#83BACF" d="M282.103,184.253c-1.982-8.531-9.483-23.222-19.249-28.748c-13.007-7.362-54.575-0.024-65.036,17.457
	c-2.665,4.453-3.161,12.735-2.267,22.054c-1.249,0.53-5.471,0.239-5.471,0.239c-35.821-13.133-31.821,23.523-24.48,32.262
	c6.857,8.163,19.929,17.442,9.303,37.579c14.795,0.422,19.712-6.956,22.018-15.94c3.774-14.708-9.532-26.233-6.1-31.216
	c0,0,8.87-0.934,9.065-0.257c0.013,0.044,0.026,0.087,0.039,0.129c3.283,11.573,11.65,19.232,15.809,21.495
	c9.076,6.661,57.433-24.351,57.433-24.351s0.155-5.514,1.074-9.522c1.778-1.516,2.893-2.577,3.122-2.986
	c3.27-5.831,1.873-9.436,3.227-14.25C281.193,186.042,282.731,186.953,282.103,184.253z"/>
<path fill="#E61C78" d="M190.82,217.939c0.785,0.531,6.026,1.713,9.066-0.256c-2.051-4.87-4.733-15.091-3.982-23.032
	c-3.326-1.498-4.528-0.403-6.332,0.354C184.769,199.926,189.392,216.976,190.82,217.939z"/>
<path fill="#E61C78" d="M257.79,251.342c31.661,2.596,34.145,56.529,34.515,66.056c0.373,9.529-14.013,15.053-14.219,18.053
	c-0.205,3.001,0.425,8.201-1.463,21.375c-1.892,13.176-79.39,10.649-79.542,3.674c-0.151-6.974-3.331-14.937-3.411-18.628
	c-0.08-3.693-12.068-4.285-13.026-10.654c-0.96-6.366-0.086-58.556,14.73-70.1C213.541,246.963,226.131,248.747,257.79,251.342z"/>
<g>
	<path fill="#FFFFFF" d="M216.836,315.245c-1.038,0.427-2.252-0.152-4.11,0.45c-0.726,0.235-1.611,2.322-1.908,4.441
		c-0.402,2.875,0.105,5.975-1.396,6.124c-2.632,0.229-0.208-8.394-1.669-8.603c-2.467-0.271-2.116,8.889-4.529,9.037
		c-2.413,0.146,0.154-8.619-0.645-9.209c-1.752-1.856-2.396,8.019-5.184,7.302c-1.623-0.331,1.608-8.163,0.316-8.206
		c-1.293-0.041-3.152,5.18-5.15,2.674c-1.999-2.508,6.279-8.158,7.575-8.716C201.434,309.982,212.458,308.612,216.836,315.245z"/>
	<path fill="#FFFFFF" d="M247.549,314.697c1.326,1.331,3.773,6.409,3.331,10.267c2.157-0.952,10.016,1.516,11.454,2.223
		c1.439,0.707,6.28,3.298,7.174,2.079c0.895-1.219-6.508-4.661-5.81-5.466c0.701-0.805,10.127,4.853,10.864,3.955
		c1.319-2.139-8.117-5.394-7.917-6.341c0.563-2.13,9.614,3.241,10.612,1.615c0.998-1.627-9.077-5.153-9.2-5.584
		c0.12-2.098,10.406,2.475,11.116,1.18c0.507-1.423-3.775-3.458-7.695-4.444c-2.989-0.751-5.821-0.529-5.861-1.104
		c-0.093-1.327,6.267-1.995,4.3-3.413C266.243,308.009,249.494,314.696,247.549,314.697z"/>
</g>
<g>
	<defs>
		<path id="SVGID_17_" d="M278.242,185.845c1.88,8.972,1.253,17.444,1.51,26.364c0.319,11.091-1.979,24.815-5.841,27.837
			c-4.238,3.316-7.404,4.964-15.296,5.029c-7.524,0.062-4.429,8.103-5.462,11.69c-8.491,8.042-38.02,2.044-37.043-2.384
			c0.412-2.286,3.093-27.228,1.583-31.194c-9.786,2.323-10.751-19.524,0.843-10.332c8.425-1.995-5.366-26.806-5.366-26.806
			s7.871,9.063,9.048,14.585C237.275,191.138,263.23,190.804,278.242,185.845z"/>
	</defs>
	<use xlink:href="#SVGID_17_"  overflow="visible" fill="#FFFFFF"/>
	<clipPath id="SVGID_2_">
		<use xlink:href="#SVGID_17_"  overflow="visible"/>
	</clipPath>
	<g clip-path="url(#SVGID_2_)">
		<g>
			<path fill="#E61C78" d="M263.57,200.034c0.596,10.169,5.412,18.239,5.327,19.438c-0.225,3.193-5.307,3.294-6.439,2.414
				C261.322,221.01,262.364,198.282,263.57,200.034z"/>
		</g>
		<g>
			<path fill="none" stroke="#83BACF" stroke-width="1.5" stroke-linecap="round" stroke-miterlimit="10" d="M237.382,203.586
				c6.237-4.561,14.028-1.633,14.028-1.633"/>
		</g>
		<g>
			<path fill="none" stroke="#83BACF" stroke-width="1.5" stroke-linecap="round" stroke-miterlimit="10" d="M271.314,199.902
				c6.24-4.562,14.034-1.631,14.034-1.631"/>
		</g>
	</g>
	<g clip-path="url(#SVGID_2_)">
		<g>
			<defs>
				<path id="SVGID_19_" d="M240.703,208.95c0.015,0.925,2.646,1.637,5.882,1.593c3.23-0.045,5.842-0.83,5.828-1.753
					c-0.012-0.926-2.576-2.459-5.809-2.414C243.368,206.418,240.69,208.026,240.703,208.95z"/>
			</defs>
			<use xlink:href="#SVGID_19_"  overflow="visible" fill="#FFFFFF"/>
			<clipPath id="SVGID_4_">
				<use xlink:href="#SVGID_19_"  overflow="visible"/>
			</clipPath>
			
				<ellipse transform="matrix(-0.9924 0.1232 -0.1232 -0.9924 514.902 385.076)" clip-path="url(#SVGID_4_)" fill="#000100" cx="245.548" cy="208.454" rx="3.263" ry="2.939"/>
			<use xlink:href="#SVGID_19_"  overflow="visible" fill="none" stroke="#000100" stroke-width="0.5781" stroke-miterlimit="10"/>
		</g>
		<g>
			<defs>
				<path id="SVGID_21_" d="M271.719,206.321c0.103,0.917,2.791,1.37,6.004,1.013c3.217-0.358,5.737-1.395,5.635-2.312
					c-0.103-0.921-2.723-2.191-5.938-1.834C274.206,203.546,271.616,205.4,271.719,206.321z"/>
			</defs>
			<use xlink:href="#SVGID_21_"  overflow="visible" fill="#FFFFFF"/>
			<clipPath id="SVGID_6_">
				<use xlink:href="#SVGID_21_"  overflow="visible"/>
			</clipPath>
			
				<ellipse transform="matrix(-0.9757 0.2191 -0.2191 -0.9757 592.5398 345.3599)" clip-path="url(#SVGID_6_)" fill="#000100" cx="277.119" cy="205.538" rx="3.262" ry="2.94"/>
			<use xlink:href="#SVGID_21_"  overflow="visible" fill="none" stroke="#000100" stroke-width="0.5781" stroke-miterlimit="10"/>
		</g>
	</g>
</g>
<g>
	<path fill-rule="evenodd" clip-rule="evenodd" fill="#79304A" d="M255.979,231.108c0.387-0.575,0.969,0.015,1.37,0.16
		c1.75,0.636,3.651,0.816,7.652,0.944c3.469,0.11,7.245-1.574,7.541-1.759c0.425-0.269,0.771-0.546,0.883-0.475
		c0.847,0.398-0.463,1.285-1.164,1.54c-1.092,0.589-3.209,0.933-3.969,1.068c-2.193,0.391-3.783,0.343-3.95,0.34
		c-1.035-0.021-1.805,0.014-2.957-0.152c-0.709-0.103-3.074-0.336-4.646-1.134C256.453,231.495,255.861,231.261,255.979,231.108z"/>
	<path fill-rule="evenodd" clip-rule="evenodd" fill="#79304A" d="M266.524,234.948c0.124,0.396-1.488,0.707-2.201,0.638
		c-0.643-0.062-1.751-0.166-1.528-0.636c0.489-0.459,1.25,0.105,2.012,0.046C265.476,234.945,266.157,234.355,266.524,234.948z"/>
</g>
<path opacity="0.25" d="M136.191,96.319l22.521-22.892c0,0,5.418-5.504,10.923-0.088l39.727,39.088c0,0,5.506,5.415,0.089,10.921
	l-20.873,21.224l-1.515,12.641l-11.056-10.875l-0.046-0.045l-39.684-39.051C136.278,107.242,130.773,101.824,136.191,96.319"/>
<path opacity="0.25" d="M237.27,55.923l30.717-9.366c0,0,7.389-2.25,9.641,5.137l16.253,53.31c0,0,2.254,7.386-5.135,9.639
	l-28.472,8.688l-7.364,10.385l-4.524-14.833l-0.02-0.062l-16.232-53.257C232.133,65.562,229.882,58.175,237.27,55.923"/>
<path opacity="0.25" d="M69.395,185.941l4.807-31.752c0,0,1.158-7.636,8.794-6.479l55.104,8.345c0,0,7.636,1.154,6.479,8.791
	l-4.45,29.434l6.189,11.125l-15.333-2.32l-0.063-0.01l-55.047-8.339C75.874,194.735,68.237,193.577,69.395,185.941"/>
<path opacity="0.25" d="M71.722,291.938l-2.814-31.99c0,0-0.674-7.693,7.019-8.37l55.519-4.881c0,0,7.691-0.679,8.368,7.015
	l2.615,29.653l8.638,9.352l-15.448,1.361l-0.064,0.005l-55.461,4.873C80.092,298.955,72.398,299.631,71.722,291.938"/>
<path fill="#E61C78" d="M131.191,91.319l22.521-22.892c0,0,5.418-5.504,10.923-0.088l39.727,39.088c0,0,5.506,5.415,0.089,10.921
	l-20.873,21.224l-1.515,12.641l-11.056-10.875l-0.046-0.045l-39.684-39.051C131.278,102.242,125.773,96.824,131.191,91.319"/>
<path fill="#F8F6F6" d="M232.27,50.923l30.717-9.366c0,0,7.389-2.25,9.641,5.137l16.253,53.31c0,0,2.254,7.386-5.135,9.639
	l-28.472,8.688l-7.364,10.385l-4.524-14.833l-0.02-0.062l-16.232-53.257C227.133,60.562,224.882,53.175,232.27,50.923"/>
<path fill="#5CB990" d="M64.395,180.941l4.807-31.752c0,0,1.158-7.636,8.794-6.479l55.104,8.345c0,0,7.636,1.154,6.479,8.791
	l-4.45,29.434l6.189,11.125l-15.333-2.32l-0.063-0.01l-55.047-8.339C70.874,189.735,63.237,188.577,64.395,180.941"/>
<path fill="#83BACF" d="M66.722,286.938l-2.814-31.99c0,0-0.674-7.693,7.019-8.37l55.519-4.881c0,0,7.691-0.679,8.368,7.015
	l2.615,29.653l8.638,9.352l-15.448,1.361l-0.064,0.005l-55.461,4.873C75.092,293.955,67.398,294.631,66.722,286.938"/>
<g>
	<path fill-rule="evenodd" clip-rule="evenodd" fill="#7B3655" d="M128.071,164.787c0,0.274,0,0.549,0,0.822
		c-0.436,1.021-1.558,1.289-2.464,1.745c-2.621,1.317-5.434,2.956-8.213,4.209c-0.254,2.238,0.462,5.396-0.308,7.289
		c-0.846,2.081-3.437,3.759-6.058,4.825c-5.44,2.213-12.899,2.229-18.479,0c-2.614-1.043-5.186-2.726-6.058-4.825
		c-0.824-1.981-0.014-4.814-0.308-7.187c-1.337-0.75-2.716-1.458-4.106-2.156c-0.345,5.856,1.798,9.223,2.464,14.065
		c-1.114,1.757-5.456,1.757-6.57,0c0.46-2.719,1.188-5.041,1.848-7.699c0.483-1.948,0.813-4.138,0.616-7.084
		c-1.466-1.236-3.896-1.512-4.928-3.183c0-0.273,0-0.548,0-0.822c0.455-0.818,1.114-1.102,1.746-1.437
		c5.457-2.906,11.868-6.119,17.761-9.035c1.715-0.848,4.384-2.667,6.057-2.874c2.034-0.252,3.311,0.624,4.825,1.438
		c6.379,3.429,12.546,6.562,19.096,9.855C126.194,163.34,127.746,163.891,128.071,164.787z M105.382,154.624
		c-1.059-0.533-2.141-1.399-2.977-1.54c-0.631-0.105-1.284-0.021-1.54,0.103c-1.912,0.921-3.846,1.985-5.852,2.978
		c-1.961,0.97-4.008,1.945-5.955,2.977c-3.971,2.108-7.986,4.059-11.704,6.16c0.674,0.307,1.328,0.551,2.053,0.924
		c0.665,0.342,1.302,0.963,2.054,1.027c0.539,0.046,1.339-0.258,2.156-0.411c4.531-0.847,9.112-1.714,13.347-2.566
		c0.761-0.152,1.635-0.162,2.259-0.411c0.477-0.188,0.821-0.813,1.643-1.026c1.653-0.425,3.449,0.291,3.388,1.643
		c-0.051,1.146-1.614,1.706-2.977,1.54c-0.762-0.092-1.284-0.592-1.643-0.616c-0.443-0.027-1.275,0.285-1.951,0.411
		c-4.579,0.856-9.648,1.869-13.86,2.771c4.092,2.054,8.745,4.378,13.039,6.571c1.132,0.578,3.204,1.991,4.415,2.155
		c1.762,0.24,2.771-0.776,4.106-1.437c7.129-3.524,14.038-7.21,20.841-10.678C119.611,161.76,112.264,158.084,105.382,154.624z
		 M87.929,177.929c0.525,1.891,3.19,3.446,5.441,4.312c5.14,1.977,11.519,1.879,16.632,0c2.388-0.877,4.867-2.171,5.544-4.21
		c0.518-1.557,0.035-3.807,0.205-5.544c-3.377,1.698-6.784,3.384-10.267,5.134c-1.269,0.639-2.44,1.464-3.798,1.438
		c-1.234-0.022-2.342-0.809-3.593-1.438c-3.422-1.721-7.251-3.62-10.267-5.134C88.045,174.082,87.493,176.358,87.929,177.929z
		 M79.818,182.959c0.724,0.399,2.155,0.42,2.875,0c-0.068-1.036-0.474-2.005-0.719-2.977c-0.258-1.023-0.311-2.106-0.821-2.978
		C80.834,179.116,80.082,180.794,79.818,182.959z"/>
</g>
<g>
	<path fill="#83BACF" stroke="#7B3655" stroke-width="2" stroke-miterlimit="10" d="M120.177,256.248c-0.877,0-2.709,0.16-3.451,0
		c-0.74-0.16-4.273-3.388-10.118-3.824c-2.804-0.209-6.974,4.958-4.238,6.224c2.076,0.961-16.563,14.12-17.349,15.582
		c-0.785,1.461-0.625,2.213-0.229,3.292c0.229,0.625,2.276,1.115,2.626,1.072c0.349-0.044,0.02,1.919,1.134,2.398
		c1.113,0.48,2.354-0.218,2.704-0.305c0.349-0.087,0.174,2.312,1.569,3.14c1.396,0.829,3.175-0.23,3.315,0
		c0.141,0.231-0.741,2.355,1.919,3.141s12.125-12.256,12.91-13.434s11.559-0.872,14.132-1.569
		C127.674,271.266,121.054,256.248,120.177,256.248z"/>
</g>
<path fill="#83BACF" stroke="#7B3655" stroke-width="2" stroke-miterlimit="10" d="M83.172,254.126
	c-9.471,1.532-9.579,15.245-6.647,15.326c5.961,0.165,11.309,3.759,13.177,5.48s10.675,9.836,10.675,9.836s1.632,1.696,3.14,1.131
	c1.436-0.539,1.302-2.262,1.759-2.136c0.456,0.126,2.699,0.44,3.703-0.438c1.004-0.879,0.63-2.828,0.817-3.33
	s3.393,1.318,4.646,0.126c1.255-1.193,0.88-2.701,0.879-3.391c-0.001-0.69,3.769,0.313,4.898-1.131
	c1.129-1.443,0.908-3.004,0.628-3.642c-0.881-2.001-14.809-14.205-19.34-15.321C96.975,255.521,87.923,253.357,83.172,254.126z"/>
<g>
	<path fill="#83BACF" stroke="#7B3655" stroke-width="2" stroke-miterlimit="10" d="M123.968,256.121
		c-0.873,0.084-7.5,0.287-8.242,0.127c-0.74-0.16-4.273-3.388-10.118-3.824c-2.804-0.209-5.849-0.063-11.34,2.733
		c-2.778,1.415-7.677,3.81-6.892,5.641c1.894,4.42,11.295-3.493,13.993-2.15c7.088,3.528,17.974,13.474,22.731,13.317
		c1.469-0.049,2.962-0.108,4.117-0.594C133.815,269.019,127.843,255.746,123.968,256.121z"/>
</g>
<g>
	<path fill-rule="evenodd" clip-rule="evenodd" fill="#7B3655" d="M174.568,94.024c-0.634,0-1.268,0-1.903,0
		c-0.024-0.456,0.061-1.022-0.065-1.378c-2.472-0.152-5.228-0.021-7.809-0.065c-0.234,0.291-0.094,0.957-0.131,1.443
		c-0.635,0-1.269,0-1.903,0c-0.148-1.751,0.338-3.104,1.837-3.347c0.958-0.154,2.574,0,4.135,0c1.544,0,3.274-0.16,4.2,0.066
		C174.439,91.113,174.664,92.511,174.568,94.024z"/>
	<g>
		<path fill-rule="evenodd" clip-rule="evenodd" fill="#E61C78" stroke="#7B3655" stroke-width="2" stroke-miterlimit="10" d="
			M185.462,102.49c0,4.156,0,8.312,0,12.469c-0.235,0.918-0.639,1.613-1.378,1.903c-0.792,0.31-2.534,0.131-3.807,0.131
			c-7.761,0-15.403,0-23.296,0c-2.766,0-4.763,0.333-5.119-2.034c0-4.156,0-8.312,0-12.469"/>
	</g>
	<g>
		<path fill-rule="evenodd" clip-rule="evenodd" fill="#E61C78" stroke="#7B3655" stroke-width="2" stroke-miterlimit="10" d="
			M185.462,96.254c0,2.035,0,4.069,0,6.104c-0.542,1.76-1.965,3.382-3.938,3.807c-1.489,0.32-3.297,0.131-5.119,0.131
			c-1.696,0-13.819,0-15.553,0c-1.771,0-3.583,0.186-5.053-0.131c-1.946-0.42-3.356-1.973-3.938-3.807c0-2.034,0-4.068,0-6.104
			c0.479-2.356,2.312-2.034,5.185-2.034c7.791,0,15.574,0,23.23,0C183.132,94.22,185.121,93.965,185.462,96.254z"/>
		<g>
			<path fill-rule="evenodd" clip-rule="evenodd" fill="#7B3655" d="M169.974,104.392c0.111,1.513,0.108,3.475,0,4.987
				c-0.875,0-1.75,0-2.624,0c-0.151-1.49-0.242-5.003-0.147-5.04C168.015,104.38,169.271,104.242,169.974,104.392z"/>
		</g>
	</g>
</g>
<path fill="#7B3655" d="M248.34,66.074c3.691-0.635,5.102,1.014,6.264,2.912c0.939-1.019,1.777,0.127,2.765,0.291
	c1.536,0.254,3.378-0.839,2.915,1.02c-0.429,1.721-5.478,0.614-5.971,3.059c1.196,0.525,1.361-1.002,2.621-0.874
	c0.436,1.696,0.169,3.24-1.312,3.351c-1.069,0.079-0.864-0.696-1.748-0.583c-1.117,0.143-1.679,1.648-1.747,2.622
	c-0.096,1.378,0.885,4.504,2.477,5.389c0.243,0.136,1.113-0.004,1.6,0.291c0.642,0.389,1.476,2.445,0.875,2.768
	c-0.848,0.456-3.55-2.173-4.373-2.477c-0.288-0.107-0.731,0.071-1.018,0c-4.829-1.189-6.273-5.518-9.322-8.593
	c-1.854,13.069,6.714,21.537,19.81,19.663c-1.543-1.43-0.663-3.449-1.021-5.389c-0.181-0.989-0.949-1.346-1.455-2.04
	c-0.611-0.833-2.227-4.275-1.312-5.825c1.369-2.319,3.156,1.908,3.496,2.184c0.93,0.76,2.969,0.597,3.933,1.312
	c0.433,0.323-0.014,0.464,0.438,0.581c0.762,0.205,2.46-0.451,2.913,0.295c0.608,0.998-2.018,2.592-2.477,3.203
	c-1.241,1.656-2.053,3.495-2.913,4.951c5.963-1.66,9.878-6.625,11.069-13.545c-0.577,0.734-1.879,1.535-2.185,2.475
	c-0.424,1.301-0.095,4.408-1.75,3.934c-1.188-0.34-1.023-5.843-1.456-6.991c-0.919-2.442-2.373-0.621-4.078-1.312
	c-0.68-0.273-1.487-1.542-1.601-2.039c-0.679-2.902,2.061-3.649,3.203-5.533c0.932-1.537,1.943-2.443,4.079-2.623
	C267.669,62.22,253.824,60.262,248.34,66.074 M255.913,60.83c11.742-1.622,19.865,6.939,20.83,16.749
	c0.172,1.75-0.049,2.87-0.292,4.662c-0.994,7.315-7.751,13.952-15.438,14.854c-10.682,1.259-19.38-6.16-20.684-14.71
	C238.519,70.508,246.394,62.143,255.913,60.83"/>
</svg>
