<?xml version="1.0" encoding="utf-8"?>
<!-- Generator: Adobe Illustrator 16.0.0, SVG Export Plug-In . SVG Version: 6.00 Build 0)  -->
<!DOCTYPE svg PUBLIC "-//W3C//DTD SVG 1.1//EN" "http://www.w3.org/Graphics/SVG/1.1/DTD/svg11.dtd">
<svg version="1.1" id="Ebene_1" xmlns="http://www.w3.org/2000/svg" xmlns:xlink="http://www.w3.org/1999/xlink" x="0px" y="0px"
	 width="425.197px" height="425.197px" viewBox="0 0 425.197 425.197" enable-background="new 0 0 425.197 425.197"
	 xml:space="preserve">
<g>
	<g opacity="0.25">
		<path fill="#010101" d="M411.471,378.874c-0.123-5.506-3.329-18.705-4.491-29.996c1.342-18.203,2.803-8.439,6.734-35.053
			c1.61-7.939,0.283-15.076-1.831-18.225c-0.004-0.002-0.007-0.006-0.011-0.012c-0.838-2.166-1.854-4.205-2.978-6.078
			c3.461-15.129,3.755-32.891-4.126-46.492c0.047-0.029,0.097-0.055,0.143-0.082c0.607-1.854-0.842-1.393-0.842-1.393
			c-0.012,0.004-0.021,0.004-0.033,0.004c0.769-1.584,7.735-13.953,7.803-22.428c0.148-18.283-10.502-31.604-27.487-28.137
			c-3.195-8.354-41.736-12.797-50.5-3.26c-12.316,13.402-8.505,29.135-4.942,33.49c-1.032,9.271-1.285,19.424-0.89,27.572
			c-6.979,19.992-2.115,38.924,3.534,50.771c-1.716,7.615-2.583,15.898-2.913,24.184c-5.037-0.074-10.523-0.387-15.534-0.762
			c-6.078-23.793-18.276-56.16-27.253-61.68c-5.127-3.154-24.897-7.516-34.457-9.502c0.093-1.529,0.204-3.324,0.322-5.289
			c0.538,0.188,1.088,0.322,1.658,0.322c7.532,0,18.141-6.799,20.082-12.346c0.812-2.32-0.364-5.1,0.376-6.945
			c0.945-2.354,2.995-1.162,4.189-3.756c-2.552-5.471,3.34-9.895,3.841-15.719c0.503-5.887-0.775-11.131-4.151-15.156
			c1.203-3.396,4.127-3.381,3.852-6.758c-0.377-4.57-9.5-5.801-11.426-9.578c0.002-2.982,3.555-2.008,2.806-5.82
			c-5.045-4.602-9.219-9.982-14.655-14.234c-6.571,0.037-10.031-7.105-15.888-9.824c-8.018-3.727-19.424-5.473-28.728-2.561
			c-3.598,1.127-4.85,4.439-9.257,5.467c-9.647-2.582-15.395,6.6-22.924,9.705c-0.05,10.424-12.06,7.529-8.524,19.441
			c-1.888,1.051-6.301-0.705-7.056,1.607c-0.023,3.484,2.398,4.773,2.548,8.104c-4.147,4.938-2.281,12.695-1.94,17.314
			c0.382,5.148-0.429,10.059,1.258,13.504c1.322,2.709,4.403,3.061,6.18,5.314c2.183,2.773,1.051,5.818,3.564,7.66
			c6.413-1.477,7.376,5.354,11.035,7.566c0.567,0.35,1.296,0.566,2.103,0.781c1.401,5.807,2.629,10.08,2.629,10.08
			c3.81,3.859,12.627,5.566,21.427,5.744c0.229,0.93,0.059,2.254,0.289,4.545c-6.138,0.834-15.62,2.404-24.63,5.061
			c-19.263,5.672-3.505,97.242-0.717,104.572c7.45,19.582,101.54,13.057,103.229,4.225c0.033-0.178,0.923-6.379,1.893-15.83
			c11.368-0.012,19.369-3.793,21.507-10.512c4.466,1.047,8.887,1.885,12.823,2.521c0.785,12.279,2.037,22.328,2.268,26.9
			C331.951,389.253,411.706,389.364,411.471,378.874z"/>
		<path fill="#010101" d="M122.429,371.95c0.786-7.645,0.336-33.416-3.888-57.248c17.97-11.951,5.448-41.607,6.541-50.924
			c1.646-13.986,20.254-99.688-24.343-82.541c-29.315-16.545-65.234,5.691-72.238,36.414c-4.15,18.189,8.194,44.848,21.934,51.75
			c-0.111,0.918-0.226,1.768-0.335,2.527c-26.684,6.77-31.802,44.73-24.831,58.488c2.44,4.814,5.194,8.201,7.987,10.617
			c-1.416,16.309-1.647,30.234-1.776,34.701C31.103,388.821,120.875,387.054,122.429,371.95z M52.583,232.929
			c-2.45-1.986-4.26-2.508-5.503-2.141c1.241-0.377,3.046,0.143,5.495,2.123C52.578,232.915,52.581,232.923,52.583,232.929z
			 M87.277,265.843c-0.756,0.945-0.935,2.338-0.777,4.037c-0.002,0-0.007,0.004-0.007,0.004
			C86.354,268.306,86.467,266.849,87.277,265.843z M87.283,265.833c0.089-0.107,0.185-0.209,0.291-0.309
			C87.468,265.624,87.372,265.726,87.283,265.833z M87.607,265.491c0.095-0.086,0.197-0.162,0.306-0.242
			C87.805,265.329,87.702,265.405,87.607,265.491z M87.987,265.196c0.097-0.064,0.199-0.121,0.306-0.176
			C88.19,265.075,88.084,265.132,87.987,265.196z M88.428,264.952c0.088-0.043,0.184-0.078,0.28-0.111
			C88.613,264.874,88.516,264.909,88.428,264.952z M88.927,264.753c0.059-0.02,0.125-0.033,0.185-0.047
			C89.052,264.72,88.985,264.733,88.927,264.753z M103.021,263.183c2.453-0.783,4.391-2.094,5.913-4.33
			c2.215-3.26,3.972-15.736,4.347-29.18c0.005-0.002,0.01-0.002,0.013-0.002c-0.377,13.441-2.131,25.916-4.346,29.176
			C107.421,261.091,105.48,262.399,103.021,263.183z M113.359,225.831c-0.003-0.002-0.008-0.002-0.012-0.002
			c0.014-2.027,0-4.053-0.053-6.059l0.012-0.002C113.359,221.776,113.375,223.806,113.359,225.831z M118.538,314.688
			 M113.264,218.388c-0.007,0-0.012,0-0.017,0c-0.292-8.369-1.232-16.215-3.045-21.502c0.003-0.002,0.008-0.01,0.012-0.012
			C112.031,202.159,112.966,210.013,113.264,218.388z"/>
	</g>
	<g>
		<g>
			<g>
				<g>
					<path fill-rule="evenodd" clip-rule="evenodd" fill="#7B3655" d="M200.362,239.331c-5.255,0.301-6.757-0.678-11.306-2.605
						c-2.037-0.863-4.1-1.012-5.376-1.785c-3.662-2.215-4.624-9.047-11.037-7.57c-2.513-1.84-1.379-4.887-3.565-7.658
						c-1.776-2.254-4.857-2.605-6.178-5.314c-1.687-3.445-0.877-8.355-1.259-13.506c-0.34-4.617-2.206-12.375,1.941-17.312
						c-0.148-3.33-2.572-4.619-2.549-8.102c0.759-2.314,5.167-0.559,7.056-1.607c-3.534-11.916,8.476-9.021,8.523-19.443
						c7.53-3.107,13.278-12.287,22.925-9.705c4.408-1.028,5.66-4.34,9.259-5.468c9.302-2.911,20.709-1.165,28.726,2.561
						c5.859,2.722,9.315,9.862,15.89,9.823c5.436,4.254,9.609,9.635,14.654,14.236c0.747,3.812-2.804,2.836-2.806,5.82
						c1.926,3.779,11.047,5.008,11.427,9.576c0.274,3.377-2.647,3.363-3.854,6.762c3.375,4.023,4.655,9.268,4.15,15.154
						c-0.501,5.822-6.392,10.248-3.841,15.717c-1.192,2.596-3.241,1.404-4.188,3.756c-0.742,1.848,0.434,4.629-0.377,6.947
						c-1.942,5.547-12.551,12.344-20.083,12.344c-2.104,0-3.93-1.758-5.875-1.811c-2.415-0.066-7.094,3.225-11.493,0.867
						L200.362,239.331z"/>
				</g>
				<path fill="#83BACF" d="M311.991,340.042c0.255-16.127-18.511-75.93-31.019-83.623c-6.832-4.203-39.687-10.559-39.687-10.559
					l-24.474,9.449c0,0-16.317,1.422-31.317,5.838c-19.258,5.672-3.503,97.244-0.714,104.574
					c7.449,19.58,101.538,13.055,103.226,4.223c0.033-0.176,0.926-6.379,1.896-15.83
					C303.144,354.101,311.85,348.987,311.991,340.042z"/>
				<path fill="#F8F6F6" d="M187.248,176.362c-8.778,30.117-1.557,56.771,0.282,65.031c1.848,8.256,19.233,7.422,21.325,8.807
					c2.09,1.393,0.214,3.076,2.108,10.443c11.197,5.066,35.17-7.389,35.509-12.98c0.209-3.422,0.528-8.545,0.809-13.725
					c0.181-3.301,0.349-6.619,0.456-9.537c3.564-2.23,13.58-22.336-3.283-17.006c0.091-5.742,0.368-10.82,1.679-16.738
					c-12.154-1.553-11.087-0.146-18.986-11.967C217.624,180.208,193.656,185.122,187.248,176.362z"/>
				<g>
					<g>
						<defs>
							<path id="SVGID_33_" d="M229.828,211.722c-0.05,0.926-2.711,1.547-5.953,1.393c-3.241-0.156-5.834-1.037-5.789-1.961
								c0.043-0.93,2.671-2.377,5.91-2.221C227.238,209.093,229.866,210.796,229.828,211.722z"/>
						</defs>
						<use xlink:href="#SVGID_33_"  overflow="visible" fill="#FFFFFF"/>
						<clipPath id="SVGID_2_">
							<use xlink:href="#SVGID_33_"  overflow="visible"/>
						</clipPath>
						<path clip-path="url(#SVGID_2_)" d="M228.342,211.792c-0.254,1.607-1.909,2.68-3.698,2.396
							c-1.785-0.285-3.025-1.822-2.768-3.43c0.259-1.611,1.912-2.684,3.698-2.4C227.359,208.644,228.603,210.181,228.342,211.792z"
							/>
						
							<use xlink:href="#SVGID_33_"  overflow="visible" fill="none" stroke="#000000" stroke-width="0.4879" stroke-miterlimit="10"/>
					</g>
					<g>
						<defs>
							<path id="SVGID_35_" d="M198.808,208.007c-0.136,0.92-2.847,1.277-6.061,0.809c-3.211-0.471-5.703-1.596-5.568-2.516
								c0.138-0.916,2.809-2.102,6.018-1.633C196.409,205.138,198.94,207.091,198.808,208.007z"/>
						</defs>
						<use xlink:href="#SVGID_35_"  overflow="visible" fill="#FFFFFF"/>
						<clipPath id="SVGID_4_">
							<use xlink:href="#SVGID_35_"  overflow="visible"/>
						</clipPath>
						<path clip-path="url(#SVGID_4_)" d="M197.097,208.019c-0.407,1.574-2.162,2.486-3.913,2.027
							c-1.748-0.459-2.831-2.105-2.421-3.684c0.413-1.576,2.163-2.482,3.916-2.029C196.428,204.792,197.51,206.438,197.097,208.019z
							"/>
						
							<use xlink:href="#SVGID_35_"  overflow="visible" fill="none" stroke="#000000" stroke-width="0.4879" stroke-miterlimit="10"/>
					</g>
					<path fill="none" stroke="#7B3655" stroke-width="1.9517" stroke-linecap="round" stroke-miterlimit="10" d="M231.975,206.001
						c-5.386-4.387-12.518-2.113-12.518-2.113"/>
					<path fill="none" stroke="#7B3655" stroke-width="1.9517" stroke-linecap="round" stroke-miterlimit="10" d="M198.912,201.12
						c-5.389-4.389-12.521-2.119-12.521-2.119"/>
				</g>
				<path fill="#E61C78" d="M208.676,206.323c1.504-0.127,1.797,12.492,2.903,16.545c0.792,2.896-12.338,0.896-11.586-0.418
					C201.651,219.558,205.669,205.343,208.676,206.323z"/>
				<g>
					<path fill="#7B3655" d="M223.875,243.972c-3.59,1.281-11.965,2.963-19.319,2.117c-7.352-0.842-11.779-3.18-13.623-6.518
						c-0.713-1.289-3.294-5.58-4.899-12.264c-1.978-8.221-2.91-20.836-3.852-20.703c-2.509,8.73,6.229,39.197,6.229,39.197
						c8.004,8.1,38.094,6.742,43.747,1.57c2.847-2.607,8.161-22.742,11.611-31.445c-1.926-3.404-3.189,11.117-9.97,19.588
						C230.319,239.86,226.285,243.108,223.875,243.972z"/>
				</g>
				<path fill="none" stroke="#7B3655" stroke-width="1.2013" stroke-miterlimit="10" d="M195.406,231.292
					c2.525-0.25,5.969,0.186,9.272,0.125c3.255-0.061,7.51,0.389,10.716,1.162c-0.981,4.537-5.809,9.301-10.808,9.068
					C198.788,241.376,196.308,235.401,195.406,231.292z"/>
			</g>
			<g opacity="0.25">
				<g>
					<path fill="#010101" d="M211.553,288.181c-2.975,0.607-10.986,1.055-11.991,0.092c0.118,5.738,3.729,26.648,17.775,23.789
						c13.129-2.67,8.409-22.676,6.157-28.561c-0.005-0.002-0.006-0.002-0.01-0.002C223.344,285.013,213.898,287.7,211.553,288.181z"
						/>
					<g>
						<path fill="#010101" d="M211.553,288.181c-3.121,0.633-11.654,1.266-11.991,0.092c-0.218-1.547,8.704-4.041,11.077-4.59
							c3.876-0.902,12.563-1.816,12.853-0.273C223.738,284.901,213.943,287.69,211.553,288.181z"/>
					</g>
					<path fill-rule="evenodd" clip-rule="evenodd" fill="#010101" d="M228.055,335.501c-1.537-0.025-3.096,0.107-4.587,0.27
						c-0.946-0.709-1.262-2.156-1.635-3.561c-0.777-2.92-2.424-10.375-2.924-13.555c-0.23-1.48-0.583-3.279-0.377-4.316
						c0.244-1.273,2.191-2.244,3.856-3.188l0,0c11.505-6.625-2.354-40.641-2.394-40.93c-0.244-1.76-9.877-0.639-12.271-0.211
						c-1.601,0.281-5.741,1.438-8.221,2.77c-0.156,0.084-0.303,0.164-0.442,0.25c-0.971,0.578-1.587,1.182-1.517,1.76
						c0.041,0.334,0.956,36.953,15.175,38.33l-0.017,0.006c1.413,0.117,2.972,1.088,3.453,1.779c0.592,0.85,0.979,2.695,1.354,4.201
						c0.767,3.082,2.199,10.703,2.59,13.539c0.199,1.482,0.451,2.961-0.196,3.934c-1.729,0.414-2.84,0.777-4.343,1.465
						c-0.771,0.35-3.126,1.291-2.892,2.492c0.249,1.27,2.777,1.219,4.388,1.18c3.664-0.086,7.781-0.934,11.138-2.264
						c1.414-0.561,3.913-1.586,3.56-2.881C231.446,335.458,229.264,335.521,228.055,335.501z M199.293,273.694
						c0.134-0.088,0.277-0.176,0.433-0.264c2.34-1.338,6.552-2.514,8.148-2.803c2.173-0.391,10.58-1.369,11.664-0.039
						c-0.477,1.648-8.6,4.031-10.751,4.523c-1.519,0.348-5.578,0.875-8.27,0.635c-0.19-0.016-0.371-0.033-0.546-0.059
						c-0.887-0.127-1.565-0.359-1.854-0.742C198.221,274.536,198.655,274.108,199.293,273.694z M198.267,275.946
						c0.463,0.236,1.147,0.377,1.947,0.451c0.176,0.02,0.353,0.031,0.538,0.041c2.786,0.154,6.647-0.355,8.142-0.697
						c2.019-0.463,9.081-2.521,10.831-4.178c0.048,0.596,14.676,36.967-2.388,40.498
						C200.063,315.64,198.426,276.538,198.267,275.946z"/>
				</g>
				<path fill="#010101" d="M215.805,298.175c0.998-3.328,12.235,0.111,13.537,1.131s4.552,3.111,5.878,4.912
					c1.05,1.42,5.217,12.35,7.647,15.453c2.434,3.109,4.753,2.838,6.086,3.422c1.336,0.584-6.669,11.875-7.816,11.135
					c-1.152-0.744-1.844-1.131-2.312-1.441c-0.463-0.309-3.306-0.316-5.14-0.934c-1.833-0.615-5.847-3.119-7.359-4.537
					c-2.17-2.033-19.932-5.035-18.79-7.832c0.832-2.043,12.85,1.438,14.291,0.332c1.442-1.105-18.359-3.146-17.825-6.412
					c0.643-3.906,17.761,1.744,21.059,0.17c0.819-0.391-4.68-2.568-9.255-3.773c-3.284-0.863-13.217-0.309-12.813-3.801
					c0.315-2.73,13.438-2.232,15.467-1.564c2.41,0.795,9.222,2.562,10.308,2.811c1.195,0.279-1.395-4.021-3.121-4.299
					C223.916,302.665,215.267,299.948,215.805,298.175z"/>
			</g>
			<g>
				<g>
					<path fill="#F5C82D" d="M208.626,286.228c-2.977,0.605-10.988,1.057-11.993,0.092c0.116,5.738,3.729,26.65,17.777,23.791
						c13.127-2.67,8.407-22.678,6.154-28.562c-0.002-0.002-0.005,0-0.009,0C220.417,283.062,210.971,285.747,208.626,286.228z"/>
					<g>
						<path fill="#E2BA2B" d="M208.626,286.228c-3.123,0.637-11.656,1.27-11.993,0.092c-0.217-1.543,8.704-4.041,11.078-4.588
							c3.874-0.902,12.564-1.816,12.852-0.275C220.81,282.95,211.017,285.739,208.626,286.228z"/>
					</g>
					<path fill-rule="evenodd" clip-rule="evenodd" fill="#F8F6F6" d="M225.126,333.55c-1.533-0.027-3.098,0.105-4.583,0.27
						c-0.948-0.711-1.266-2.156-1.639-3.561c-0.775-2.92-2.426-10.375-2.922-13.555c-0.232-1.48-0.583-3.279-0.38-4.314
						c0.249-1.275,2.192-2.248,3.857-3.189l0,0c11.507-6.627-2.353-40.639-2.392-40.93c-0.244-1.76-9.877-0.641-12.271-0.213
						c-1.603,0.283-5.742,1.436-8.223,2.771c-0.153,0.084-0.299,0.164-0.441,0.246c-0.97,0.584-1.586,1.186-1.516,1.76
						c0.038,0.336,0.954,36.953,15.172,38.334l-0.017,0.002c1.414,0.121,2.974,1.09,3.455,1.781
						c0.591,0.852,0.979,2.699,1.353,4.201c0.764,3.086,2.201,10.699,2.588,13.541c0.203,1.482,0.455,2.959-0.19,3.932
						c-1.73,0.414-2.844,0.779-4.347,1.465c-0.771,0.35-3.124,1.291-2.892,2.494c0.252,1.27,2.777,1.219,4.386,1.18
						c3.666-0.086,7.783-0.936,11.142-2.266c1.413-0.559,3.913-1.584,3.558-2.881C228.521,333.505,226.335,333.569,225.126,333.55z
						 M196.366,271.743c0.134-0.088,0.278-0.176,0.432-0.264c2.342-1.336,6.553-2.516,8.147-2.805
						c2.177-0.385,10.582-1.365,11.668-0.037c-0.479,1.648-8.6,4.029-10.755,4.523c-1.519,0.348-5.578,0.877-8.269,0.635
						c-0.189-0.016-0.371-0.033-0.545-0.059c-0.887-0.129-1.563-0.359-1.854-0.738C195.295,272.579,195.729,272.157,196.366,271.743
						z M195.34,273.995c0.463,0.232,1.144,0.377,1.949,0.453c0.173,0.016,0.352,0.027,0.534,0.037
						c2.786,0.156,6.65-0.354,8.142-0.697c2.021-0.461,9.083-2.516,10.831-4.176c0.052,0.594,14.676,36.965-2.386,40.498
						C197.136,313.685,195.501,274.587,195.34,273.995z"/>
				</g>
				<path fill="#F8F6F6" d="M212.876,296.22c0.998-3.326,12.233,0.115,13.54,1.133c1.302,1.021,4.549,3.111,5.876,4.912
					c1.049,1.418,5.213,12.352,7.646,15.459c2.434,3.105,7.682,4.785,9.015,5.369c1.336,0.584-6.669,11.875-7.816,11.135
					c-1.152-0.744-4.771-3.084-5.237-3.393c-0.469-0.307-3.306-0.316-5.144-0.934c-1.834-0.615-5.846-3.119-7.356-4.537
					c-2.169-2.033-19.935-5.037-18.794-7.834c0.831-2.043,12.851,1.436,14.294,0.332c1.44-1.102-18.361-3.146-17.825-6.41
					c0.639-3.906,17.759,1.746,21.058,0.172c0.819-0.395-4.681-2.57-9.258-3.773c-3.28-0.865-13.213-0.311-12.811-3.805
					c0.315-2.73,13.438-2.23,15.464-1.562c2.414,0.795,9.224,2.561,10.312,2.812c1.196,0.275-1.395-4.025-3.123-4.303
					C220.987,300.714,212.342,297.999,212.876,296.22z"/>
			</g>
		</g>
		<path opacity="0.25" fill="#010101" d="M369.414,281.927c-6.136,3.521-26.479,39.881-40.574,39.881
			c-14.092,0-33.134-2.234-34.44-2.262c-0.444-0.014-1.24,0.656-2.125,1.756c-1.097-0.609-2.183-1.184-3.112-1.617
			c-3.197-1.488-10.685-2.404-12.982-2.869c-2.303-0.469-7.309-2.426-10.053-2.043c-0.577,0.082-1.234,0.277-1.917,0.547
			c-0.021-0.592,0.003-1.121,0.107-1.52c0.227-0.869,1.428-2.408,2.793-3.051l-0.016,0.002c13.686-6.617,1.111-43.51,1.029-43.855
			c-0.144-0.604-0.982-0.98-2.161-1.199c-0.174-0.035-0.349-0.062-0.534-0.09c-2.967-0.414-7.524-0.043-9.23,0.264
			c-2.544,0.455-12.572,2.889-12.169,4.732c0.066,0.305-1.24,39.367,12.687,41.746h-0.002c2.009,0.326,4.311,0.58,5.025,1.762
			c0.299,0.488,0.524,1.225,0.719,2.041c-2.03,1.107-3.946,2.65-4.53,3.801c-0.396,0.789,0.455,2.674,1.065,2.621
			c0.404-0.033-1.251,0.996-0.859,2.465c0.392,1.467,1.518,1.541,2.281,1.959c0.769,0.42-1.313,1.109-1.04,2.887
			c0.272,1.771,1.588,1.732,1.567,2.15c-0.017,0.414-4.851,0.25-4.519,2.262c0.257,1.562,3.156,1.207,4.502,1.369
			c0.656,0.082,2.229,0.076,4.238-0.041c-0.031,0.637-0.15,1.223-0.46,1.699c-1.547,0.387-3.154,0.83-4.68,1.42
			c-1.195,0.467-3.403,1.207-3.299,2.432c0.123,1.422,2.998,1.525,4.614,1.564c3.845,0.092,8.266-0.576,11.958-1.842
			c1.622-0.553,4.162-1.434,3.942-2.791c-0.207-1.289-2.905-1.359-3.804-1.426c-1.753-0.131-2.998-0.086-4.875,0.137
			c-0.44-0.32-0.739-0.807-0.972-1.375c1.524-0.135,3.156-0.324,4.765-0.576c3.621-0.564,10.091-1.393,15.264-1.076
			c0.028,0.623,0.091,1.24,0.237,1.83c4.748,4.16,15.859,8.08,22.716,9.98c1.823-3.711,5.07-11.248,24.368-21.201
			C358.355,312.321,397.478,265.819,369.414,281.927z M248.135,298.849c-1.32-4.168-2.108-8.824-2.583-13.082
			C246.107,288.688,246.695,293.882,248.135,298.849z M245.873,285.499L245.873,285.499L245.873,285.499z M246.116,285.593
			c0,0,0.001,0,0.005,0C246.117,285.593,246.117,285.593,246.116,285.593z M246.404,285.675c0,0,0.005,0,0.007,0
			C246.409,285.675,246.406,285.675,246.404,285.675z M246.733,285.745c0.003,0.002,0.007,0.002,0.007,0.002
			S246.736,285.747,246.733,285.745z M247.097,285.804c0.005,0,0.012,0,0.016,0.004
			C247.108,285.804,247.102,285.804,247.097,285.804z M247.502,285.856c0.002,0.002,0.007,0.002,0.01,0.002
			C247.509,285.858,247.504,285.858,247.502,285.856z M247.932,285.899c0.007,0,0.012,0,0.019,0
			C247.943,285.899,247.938,285.899,247.932,285.899z M248.392,285.933c0.007,0.002,0.014,0.002,0.021,0.002
			C248.405,285.935,248.398,285.935,248.392,285.933z M248.88,285.958c0.005,0,0.01,0,0.014,0
			C248.89,285.958,248.885,285.958,248.88,285.958z M249.385,285.976c0.008,0,0.017,0,0.023,0
			C249.401,285.976,249.393,285.976,249.385,285.976z M249.904,285.983c0.014,0,0.024,0,0.04,0
			C249.929,285.983,249.918,285.983,249.904,285.983z M250.447,285.987c0.01,0,0.021,0,0.033,0
			C250.469,285.987,250.457,285.987,250.447,285.987z M251.005,285.983c0.007,0,0.014,0,0.021,0
			C251.019,285.983,251.012,285.983,251.005,285.983z M251.558,285.976c0.015-0.002,0.03-0.002,0.05-0.004
			C251.588,285.974,251.572,285.974,251.558,285.976z M252.119,285.958c0.021,0,0.043,0,0.062,0
			C252.162,285.958,252.141,285.958,252.119,285.958z M252.693,285.94c0.015,0,0.033-0.002,0.052-0.002
			C252.727,285.938,252.708,285.94,252.693,285.94z M253.249,285.917c0.032-0.002,0.061-0.002,0.094-0.004
			C253.31,285.915,253.281,285.915,253.249,285.917z M253.812,285.888c0.031,0,0.062-0.004,0.096-0.006
			C253.875,285.884,253.844,285.888,253.812,285.888z M254.373,285.856c0.028-0.002,0.057-0.002,0.083-0.002
			C254.43,285.854,254.401,285.854,254.373,285.856z M254.915,285.825c0.036-0.004,0.069-0.008,0.107-0.01
			C254.984,285.817,254.951,285.821,254.915,285.825z M255.442,285.784c0.045-0.002,0.092-0.006,0.137-0.01
			C255.534,285.778,255.487,285.782,255.442,285.784z M255.954,285.747c0.051-0.002,0.101-0.01,0.152-0.01
			C256.055,285.739,256.005,285.745,255.954,285.747z M256.448,285.706c0.054-0.002,0.102-0.01,0.154-0.014
			C256.55,285.696,256.502,285.704,256.448,285.706z M256.92,285.665c0.063-0.006,0.123-0.012,0.181-0.016
			C257.043,285.653,256.983,285.659,256.92,285.665z M257.36,285.624c0.079-0.008,0.154-0.018,0.23-0.025
			C257.515,285.606,257.439,285.616,257.36,285.624z M257.773,285.583c0.08-0.01,0.147-0.018,0.224-0.025
			C257.921,285.565,257.854,285.573,257.773,285.583z M258.16,285.538c0.068-0.008,0.133-0.014,0.197-0.023
			C258.293,285.524,258.229,285.53,258.16,285.538z M258.506,285.499c0.064-0.008,0.119-0.016,0.179-0.025
			C258.625,285.483,258.57,285.491,258.506,285.499z M258.811,285.46c0.095-0.016,0.183-0.027,0.261-0.039
			c0.203-0.031,0.427-0.07,0.666-0.115c-0.239,0.045-0.46,0.084-0.666,0.115C258.993,285.433,258.905,285.444,258.811,285.46z
			 M260.076,285.239c0.14-0.029,0.273-0.055,0.422-0.088C260.35,285.185,260.216,285.21,260.076,285.239z M270.53,281.622
			c0.036-0.033,0.06-0.066,0.088-0.1C270.59,281.556,270.566,281.589,270.53,281.622z M267.462,283.144
			c0.098-0.037,0.194-0.074,0.292-0.111C267.656,283.069,267.56,283.106,267.462,283.144z M268.272,282.829
			c0.091-0.037,0.179-0.074,0.271-0.111C268.451,282.755,268.363,282.792,268.272,282.829z M269.006,282.517
			c0.08-0.039,0.156-0.074,0.232-0.111C269.162,282.442,269.086,282.478,269.006,282.517z M269.639,282.206
			c0.066-0.037,0.129-0.072,0.19-0.105C269.768,282.134,269.705,282.169,269.639,282.206z M270.153,281.907
			c0.053-0.033,0.098-0.068,0.143-0.104C270.251,281.839,270.206,281.874,270.153,281.907z M256.279,266.544
			c1.698-0.307,6.333-0.678,9.166-0.203c0.188,0.029,0.365,0.066,0.532,0.104c0.791,0.18,1.377,0.443,1.631,0.82
			c-0.146,0.486-0.737,0.969-1.577,1.418c-0.165,0.092-0.339,0.176-0.52,0.266c-2.599,1.229-6.847,2.195-8.492,2.406
			c-2.331,0.305-11.315,0.916-12.399-0.555C245.213,269.073,253.963,266.956,256.279,266.544z M257.146,272.022
			c1.619-0.209,5.66-1.119,8.384-2.303c0.18-0.076,0.355-0.156,0.521-0.234c0.772-0.373,1.404-0.764,1.78-1.168
			c0.031,0.365,3.067,15.518,2.941,13.016c-0.003,0.006-0.015,0.014-0.02,0.021c0.039-0.074,0.071-0.145,0.066-0.213
			c-0.353-1.621-9.923-0.871-12.49-0.547c-3.961,0.494-12.186,2.559-12.883,4.17c-0.714-7.008-0.592-12.699-0.653-12.926
			C247.15,272.853,254.959,272.308,257.146,272.022z M266.901,283.345c-0.108,0.039-0.213,0.076-0.322,0.113
			C266.688,283.421,266.796,283.384,266.901,283.345z M265.993,283.655c-0.111,0.035-0.223,0.07-0.336,0.107
			C265.771,283.726,265.882,283.69,265.993,283.655z M265.053,283.952c-0.116,0.035-0.23,0.07-0.349,0.105
			C264.822,284.022,264.937,283.987,265.053,283.952z M264.101,284.233c-0.118,0.037-0.239,0.07-0.362,0.105
			C263.857,284.304,263.982,284.271,264.101,284.233z M263.15,284.501c-0.123,0.035-0.245,0.066-0.368,0.1
			C262.905,284.567,263.027,284.536,263.15,284.501z M262.22,284.747c-0.128,0.031-0.248,0.061-0.372,0.09
			C261.972,284.808,262.092,284.778,262.22,284.747z M261.329,284.964c-0.133,0.031-0.261,0.059-0.392,0.09
			C261.068,285.022,261.196,284.995,261.329,284.964z M261.102,311.497c0.326-0.021,0.651-0.049,0.99-0.102
			c0.366-0.057,0.71-0.133,1.052-0.211c-0.338,0.082-0.687,0.154-1.052,0.211C261.755,311.446,261.428,311.479,261.102,311.497z"/>
		<g>
			<g>
				<path fill="#F5C82D" d="M256.145,282.495c3.191-0.492,11.67-2.627,12.313-3.963c0.342,6.619,5.784,27.613-9.295,29.938
					c-14.088,2.168-15.262-19.797-16.665-26.25c0.004-0.002,0.007-0.002,0.01-0.002C243.209,283.677,253.625,282.88,256.145,282.495
					z"/>
				<g>
					<path fill="#E2BA2B" d="M256.145,282.495c3.351-0.516,12.411-2.664,12.313-3.963c-0.352-1.621-10.487-1.189-13.059-0.865
						c-4.2,0.527-13.212,2.816-12.931,4.459C242.771,283.71,253.575,282.886,256.145,282.495z"/>
				</g>
				<path fill-rule="evenodd" clip-rule="evenodd" fill="#F8F6F6" d="M253.801,338.247c0.119,1.422,2.993,1.527,4.611,1.564
					c3.844,0.092,8.268-0.578,11.959-1.842c1.621-0.551,4.16-1.434,3.942-2.793c-0.209-1.285-2.905-1.357-3.805-1.428
					c-1.75-0.127-2.999-0.08-4.876,0.143c-1.005-0.734-1.297-2.301-1.643-3.857c-0.657-2.975-2.028-11.107-2.403-14.469
					c-0.181-1.641-0.474-3.629-0.196-4.693c0.226-0.869,1.427-2.41,2.793-3.051l-0.016,0.004
					c13.684-6.615,1.112-43.514,1.029-43.857c-0.145-0.602-0.98-0.977-2.163-1.201c-0.173-0.031-0.349-0.061-0.534-0.084
					c-2.967-0.418-7.524-0.043-9.229,0.26c-2.547,0.455-12.571,2.887-12.171,4.732c0.068,0.305-1.242,39.369,12.687,41.748l0,0
					c2.011,0.326,4.309,0.58,5.025,1.76c0.585,0.957,0.898,2.887,1.212,4.447c0.673,3.357,1.774,11.41,2.073,14.609
					c0.145,1.539,0.364,3.1-0.321,4.156c-1.548,0.385-3.154,0.83-4.679,1.422C255.902,336.282,253.694,337.024,253.801,338.247z
					 M264.683,264.333c-0.147,0.49-0.74,0.973-1.578,1.424c-0.165,0.09-0.337,0.178-0.521,0.262
					c-2.599,1.232-6.847,2.195-8.49,2.408c-2.332,0.301-11.317,0.92-12.403-0.553c0.595-1.727,9.349-3.844,11.661-4.26
					c1.698-0.301,6.337-0.676,9.166-0.201c0.188,0.029,0.363,0.064,0.533,0.105C263.836,263.694,264.428,263.96,264.683,264.333z
					 M259.163,308.47c-18.333,2.758-17.131-38.945-17.297-39.555c2.357,1.01,10.161,0.463,12.352,0.178
					c1.616-0.207,5.659-1.119,8.387-2.299c0.178-0.078,0.351-0.158,0.518-0.236c0.774-0.371,1.403-0.764,1.778-1.17
					C264.959,266.036,277.727,305.675,259.163,308.47z"/>
			</g>
			<path fill="#F8F6F6" d="M295.371,321.952c-0.885-0.547-5.936-3.707-9.136-5.195c-3.201-1.488-10.684-2.4-12.986-2.869
				c-2.299-0.471-7.303-2.426-10.05-2.045c-2.748,0.381-7.25,3.303-8.198,5.184c-0.396,0.785,0.453,2.674,1.064,2.621
				c0.406-0.033-1.252,0.996-0.857,2.461c0.389,1.467,1.515,1.545,2.28,1.961c0.767,0.418-1.315,1.111-1.043,2.885
				c0.273,1.773,1.591,1.736,1.57,2.152c-0.019,0.414-4.853,0.252-4.522,2.264c0.26,1.562,3.158,1.205,4.504,1.371
				c1.345,0.162,6.515-0.033,11.431-0.803c4.914-0.766,15.105-2.025,20.136-0.232C290.875,332.173,296.253,322.497,295.371,321.952z
				"/>
		</g>
		<g>
			<g>
				<defs>
					<path id="SVGID_37_" d="M328.697,287.243c1.258-3.822,6.957-15.287,17.688-15.959c29.787-1.869,38.053-2.418,46.802,2.072
						c6.939,3.559,17.893,17.566,15.973,33.34c-4.179,29.422-5.684,18.607-7.06,37.303c1.164,11.291,4.368,24.492,4.491,29.998
						c0.233,10.486-79.521,10.377-80.095-0.971C325.925,361.673,319.053,316.593,328.697,287.243z"/>
				</defs>
				<use xlink:href="#SVGID_37_"  overflow="visible" fill="#5CB990"/>
				<clipPath id="SVGID_6_">
					<use xlink:href="#SVGID_37_"  overflow="visible"/>
				</clipPath>
				<path opacity="0.25" clip-path="url(#SVGID_6_)" fill="#010101" d="M377.365,296.371c-6.138,3.523-40.356,25.507-54.452,25.507
					c-14.094,0-33.137-2.23-34.443-2.262c-1.67-0.039-8.199,9.338-6.543,16.076c8.133,7.492,30.015,12.8,43.188,14.679
					c22.025,3.145,41.605-3.097,60.903-13.05c23.413-12.078,22.495-36.896,17.983-43.6
					C397.801,284.515,405.427,280.266,377.365,296.371z"/>
			</g>
			<path fill="#5CB990" d="M366.487,278.997c-6.138,3.523-26.479,39.881-40.574,39.881c-14.094,0-33.137-2.23-34.443-2.262
				c-1.67-0.039-8.199,9.338-6.543,16.076c8.133,7.492,29.439,12.059,42.613,13.938c22.025,3.145,42.181-2.355,61.479-12.309
				c23.413-12.078,22.495-36.896,17.983-43.6C400.801,281.515,394.549,262.892,366.487,278.997z"/>
		</g>
		<g>
			<g>
				<g>
					<path fill="#F5C82D" d="M49.99,266.202c-30.836,3.201-36.971,44.791-29.601,59.334c10.469,20.664,26.731,15.24,26.999,18.164
						c0.264,2.922,67.068,18.605,67.068,15C114.457,355.099,80.822,262.997,49.99,266.202z"/>
				</g>
			</g>
			<g>
				<g>
					<path fill="#F5C82D" d="M88.172,264.21c27.665,1.908,30.929,87.756,29.378,102.861c-1.552,15.104-91.328,16.871-90.951,3.785
						c0.378-13.09,1.635-107.305,30.955-104.932C86.875,268.304,75.021,264.399,88.172,264.21z"/>
					<path opacity="0.25" fill="#010101" d="M192.066,276.222c0.382-1.852-9.673-4.164-12.224-4.586
						c-1.709-0.285-6.272-0.604-9.236-0.148c-0.184,0.023-0.359,0.057-0.532,0.092c-1.176,0.236-2.011,0.619-2.146,1.227
						c-0.079,0.346-12.205,37.391,1.56,43.84l-0.014-0.004c1.371,0.627,2.59,2.15,2.829,3.018c0.107,0.398,0.138,0.93,0.126,1.521
						c-0.688-0.264-1.345-0.453-1.924-0.525c-2.751-0.352-7.733,1.668-10.026,2.162c-2.294,0.496-9.77,1.502-12.947,3.029
						c-0.941,0.451-2.047,1.051-3.154,1.688c-0.69-1.354-1.343-2.098-1.808-1.857c-2.151,1.127-37.52,3.23-50.693-3.752
						c0.249-7.209-35.383-44.758-35.383-44.758s-0.109-1.395-14.149,19.209c-7.732,34.273-25.882,26.32-11.85,39.244
						c12.905,11.893,44.756,16.1,65.997,16.59c26.256,0.609,45.756-5.744,51.377-10.049c-0.012-0.676-0.053-1.373-0.121-2.084
						c5.35-0.678,12.788,0.176,16.771,0.746c1.613,0.23,3.248,0.4,4.771,0.518c-0.224,0.574-0.518,1.061-0.951,1.387
						c-1.883-0.201-3.128-0.229-4.879-0.08c-0.896,0.078-3.593,0.184-3.785,1.473c-0.202,1.361,2.349,2.213,3.975,2.744
						c3.712,1.219,8.14,1.836,11.979,1.697c1.617-0.059,4.49-0.195,4.596-1.619c0.091-1.225-2.125-1.939-3.329-2.391
						c-1.53-0.572-3.143-0.996-4.693-1.361c-0.317-0.477-0.443-1.062-0.483-1.695c2.009,0.09,3.585,0.078,4.242-0.012
						c1.343-0.18,4.247,0.143,4.484-1.424c0.307-2.016-4.526-1.795-4.549-2.207c-0.023-0.416,1.291-0.395,1.545-2.17
						c0.249-1.779-1.838-2.443-1.079-2.875c0.763-0.426,1.885-0.514,2.258-1.986c0.376-1.469-1.293-2.479-0.888-2.451
						c0.61,0.047,1.439-1.852,1.031-2.633c-0.593-1.146-2.532-2.666-4.574-3.748c0.185-0.818,0.4-1.559,0.694-2.051
						c0.7-1.188,2.998-1.471,5.003-1.822h-0.001C194.093,313.259,192.005,276.526,192.066,276.222z M165.613,287.468
						c0.028,0.031,0.052,0.061,0.088,0.092C165.665,287.528,165.642,287.499,165.613,287.468z M167.71,288.638
						c0.085,0.031,0.169,0.066,0.254,0.098C167.879,288.704,167.795,288.669,167.71,288.638z M165.94,287.743
						c0.045,0.031,0.088,0.064,0.14,0.098C166.028,287.808,165.985,287.774,165.94,287.743z M166.41,288.032
						c0.062,0.033,0.121,0.066,0.188,0.1C166.529,288.099,166.472,288.065,166.41,288.032z M167.006,288.329
						c0.075,0.035,0.149,0.068,0.225,0.105C167.152,288.397,167.081,288.364,167.006,288.329z M185.751,291.681
						c0.036,0,0.073,0,0.109,0C185.824,291.681,185.787,291.681,185.751,291.681z M186.309,291.673c0.028,0,0.059,0,0.086,0
						C186.367,291.673,186.337,291.673,186.309,291.673z M186.843,291.659c0.025,0,0.05-0.002,0.073-0.002
						C186.893,291.657,186.868,291.659,186.843,291.659z M187.357,291.636c0.021,0,0.044-0.004,0.063-0.004
						C187.401,291.632,187.378,291.636,187.357,291.636z M187.861,291.603c0.01,0,0.021,0,0.034-0.002
						C187.883,291.603,187.871,291.603,187.861,291.603z M188.322,291.565c0.012,0,0.023-0.002,0.033-0.004
						C188.346,291.563,188.334,291.565,188.322,291.565z M188.766,291.517c0.005,0,0.012-0.002,0.017-0.002
						C188.777,291.515,188.771,291.517,188.766,291.517z M189.167,291.462c0.006,0,0.011-0.002,0.014-0.002
						C189.178,291.46,189.173,291.462,189.167,291.462z M189.539,291.396c0,0,0.002,0,0.005,0
						C189.541,291.396,189.539,291.396,189.539,291.396z M189.871,291.321v-0.004V291.321z M185.168,291.685c0.05,0,0.102,0,0.151,0
						C185.27,291.685,185.218,291.685,185.168,291.685z M182.808,291.636c0.09,0.004,0.179,0.008,0.267,0.012
						C182.986,291.644,182.897,291.64,182.808,291.636z M183.408,291.657c0.076,0.002,0.151,0.004,0.229,0.008
						C183.56,291.661,183.484,291.659,183.408,291.657z M183.991,291.669c0.069,0.004,0.143,0.004,0.214,0.008
						C184.134,291.673,184.061,291.673,183.991,291.669z M184.589,291.681c0.06,0,0.114,0,0.173,0
						C184.703,291.681,184.648,291.681,184.589,291.681z M177.203,291.22c-0.201-0.027-0.426-0.064-0.661-0.107
						C176.777,291.155,177.002,291.192,177.203,291.22c0.16,0.023,0.352,0.045,0.57,0.072
						C177.555,291.265,177.363,291.243,177.203,291.22z M177.849,291.298c0.091,0.012,0.183,0.02,0.28,0.029
						C178.031,291.317,177.939,291.31,177.849,291.298z M178.141,291.329c0.246,0.023,0.513,0.051,0.799,0.074
						C178.653,291.38,178.387,291.353,178.141,291.329z M178.964,291.405c0.138,0.012,0.284,0.023,0.431,0.035
						C179.248,291.429,179.102,291.417,178.964,291.405z M179.426,291.442c0.141,0.012,0.284,0.021,0.435,0.035
						C179.71,291.464,179.566,291.454,179.426,291.442z M179.99,291.485c0.123,0.008,0.245,0.018,0.37,0.027
						C180.235,291.503,180.113,291.493,179.99,291.485z M180.517,291.521c0.119,0.008,0.237,0.016,0.358,0.023
						C180.754,291.536,180.636,291.528,180.517,291.521z M181.088,291.556c0.103,0.006,0.21,0.014,0.318,0.018
						C181.298,291.569,181.19,291.562,181.088,291.556z M181.646,291.585c0.106,0.006,0.209,0.012,0.312,0.016
						C181.854,291.597,181.752,291.591,181.646,291.585z M182.222,291.614c0.096,0.002,0.192,0.006,0.288,0.012
						C182.414,291.62,182.317,291.616,182.222,291.614z M170.069,272.329c0.167-0.041,0.344-0.08,0.529-0.111
						c2.825-0.508,7.468-0.193,9.171,0.094c2.319,0.385,11.098,2.396,11.711,4.117c-1.068,1.482-10.061,0.977-12.394,0.703
						c-1.646-0.193-5.907-1.107-8.519-2.307c-0.184-0.086-0.36-0.168-0.526-0.256c-0.845-0.443-1.442-0.918-1.594-1.402
						C168.699,272.786,169.282,272.517,170.069,272.329z M168.239,274.222c0.379,0.402,1.018,0.783,1.795,1.146
						c0.168,0.076,0.344,0.156,0.522,0.232c2.739,1.146,6.79,2.01,8.412,2.199c2.19,0.256,10.006,0.707,12.349-0.332
						c-0.059,0.223,0.13,5.916-0.495,12.93c-0.717-1.602-8.966-3.566-12.933-4.014c-2.571-0.291-12.152-0.924-12.482,0.701
						c-0.005,0.068,0.026,0.137,0.066,0.211c-0.003-0.01-0.015-0.016-0.017-0.025c-0.088,0.262-0.181,0.561-0.275,0.879
						C166.368,280.595,168.222,274.472,168.239,274.222z M176.079,291.024c-0.099-0.018-0.189-0.033-0.291-0.055
						C175.89,290.991,175.98,291.007,176.079,291.024z M175.222,290.851c-0.088-0.02-0.174-0.037-0.267-0.057
						C175.048,290.813,175.134,290.831,175.222,290.851z M174.329,290.649c-0.088-0.02-0.173-0.041-0.264-0.062
						C174.156,290.608,174.242,290.63,174.329,290.649z M173.401,290.421c-0.089-0.021-0.173-0.043-0.261-0.064
						C173.229,290.378,173.312,290.399,173.401,290.421z M172.453,290.175c-0.088-0.023-0.18-0.047-0.268-0.072
						C172.273,290.128,172.365,290.151,172.453,290.175z M171.503,289.909c-0.093-0.025-0.184-0.053-0.275-0.08
						C171.319,289.856,171.41,289.884,171.503,289.909z M170.563,289.63c-0.095-0.029-0.189-0.059-0.283-0.088
						C170.374,289.571,170.469,289.601,170.563,289.63z M169.647,289.339c-0.095-0.031-0.189-0.062-0.282-0.094
						C169.458,289.276,169.553,289.308,169.647,289.339z M168.774,289.04c-0.092-0.033-0.183-0.064-0.271-0.098
						C168.592,288.976,168.683,289.007,168.774,289.04z M174.498,317.228c-0.366-0.049-0.719-0.119-1.063-0.199
						C173.783,317.103,174.132,317.177,174.498,317.228c0.339,0.051,0.666,0.074,0.989,0.092
						C175.166,317.304,174.837,317.274,174.498,317.228z"/>
					<g>
						<g>
							<path fill="#F5C82D" d="M172.323,286.341c-3.197-0.453-11.085-2.619-11.745-3.947c-2.051,6.049-6.064,27.818,9.044,29.957
								c14.113,1.998,16.341-19.83,16.341-26.447c0,0-0.003-0.004-0.006-0.004C185.276,287.364,174.849,286.696,172.323,286.341z"/>
							<g>
								<path fill="#E2BA2B" d="M172.323,286.341c-3.354-0.475-11.878-2.836-11.795-4.135c0.33-1.627,9.911-0.992,12.482-0.699
									c4.207,0.477,13.246,2.656,12.982,4.301C185.713,287.396,174.9,286.704,172.323,286.341z"/>
							</g>
							<path fill-rule="evenodd" clip-rule="evenodd" fill="#F8F6F6" d="M172.017,339.671c-1.531-0.57-3.145-0.996-4.695-1.361
								c-0.697-1.051-0.494-2.613-0.372-4.152c0.261-3.205,1.266-11.27,1.896-14.637c0.295-1.564,0.584-3.498,1.157-4.461
								c0.703-1.189,3.001-1.471,5.007-1.822h-0.002c14.204-4.857,12.116-41.592,12.179-41.893
								c0.381-1.854-9.674-4.164-12.224-4.588c-1.708-0.287-6.271-0.604-9.235-0.148c-0.183,0.025-0.358,0.055-0.533,0.092
								c-1.173,0.236-2.007,0.621-2.145,1.225c-0.08,0.346-12.204,37.393,1.559,43.842l-0.015-0.004
								c1.373,0.627,2.595,2.152,2.831,3.02c0.287,1.059,0.021,3.051-0.142,4.695c-0.334,3.361-1.607,11.514-2.228,14.496
								c-0.326,1.561-0.602,3.129-1.596,3.875c-1.883-0.201-3.128-0.23-4.876-0.078c-0.899,0.076-3.594,0.182-3.79,1.469
								c-0.201,1.363,2.349,2.213,3.978,2.746c3.709,1.221,8.14,1.836,11.979,1.697c1.616-0.059,4.49-0.197,4.595-1.621
								C175.437,340.839,173.22,340.124,172.017,339.671z M165.191,267.45c0.166-0.041,0.342-0.08,0.529-0.113
								c2.824-0.504,7.466-0.189,9.169,0.094c2.319,0.387,11.097,2.396,11.711,4.117c-1.067,1.484-10.059,0.977-12.395,0.703
								c-1.646-0.191-5.903-1.107-8.517-2.307c-0.186-0.084-0.36-0.166-0.524-0.254c-0.845-0.443-1.444-0.92-1.598-1.404
								C163.818,267.907,164.404,267.638,165.191,267.45z M163.36,269.343c0.38,0.4,1.018,0.783,1.795,1.148
								c0.166,0.076,0.342,0.152,0.521,0.229c2.743,1.15,6.792,2.01,8.412,2.201c2.191,0.256,10.006,0.707,12.352-0.332
								c-0.162,0.615,1.548,42.299-16.817,39.762C151.025,309.78,163.311,269.991,163.36,269.343z"/>
						</g>
						<path fill="#5CB990" d="M133.58,326.269c0.877-0.555,5.889-3.775,9.073-5.303c3.178-1.525,10.651-2.531,12.945-3.027
							c2.295-0.494,7.278-2.512,10.027-2.164c2.751,0.35,7.288,3.215,8.26,5.084c0.406,0.779-0.422,2.678-1.032,2.631
							c-0.407-0.027,1.263,0.984,0.89,2.453c-0.375,1.471-1.499,1.559-2.258,1.988c-0.763,0.428,1.326,1.094,1.077,2.871
							c-0.252,1.775-1.568,1.756-1.547,2.172c0.026,0.414,4.859,0.193,4.55,2.207c-0.238,1.566-3.143,1.246-4.483,1.424
							c-1.344,0.182-6.517,0.049-11.442-0.66c-4.922-0.709-15.127-1.842-20.136,0.008
							C138.197,336.437,132.704,326.827,133.58,326.269z"/>
					</g>
					<path fill="#F5C82D" d="M103.73,288.272c2.909,6.762-0.963,23.555-1.212,30.758c13.172,6.982,33.021,2.895,35.173,1.768
						c1.54-0.807,5.18,9.266,5.299,16.484c-5.621,4.303-25.123,10.656-51.377,10.047c-21.24-0.49-49.675-3.629-61.118-11.709
						c-15.586-11.002-0.763-9.852,6.969-44.119c14.04-20.607,14.149-19.211,14.149-19.211S100.82,281.509,103.73,288.272z"/>
				</g>
			</g>
			<g>
				<g>
					<g>
						<g>
							<defs>
								<path id="SVGID_39_" d="M105.319,191.999c5.521,16.057,2.959,55.758-1.263,61.975c-3.481,5.119-9.133,5.371-18.154,5.617
									c-7.687,0.209-2.62,9.201-3.607,12.67c-10.324,8.338-38.2,0.914-37.498-2.672c1.011-5.146,2.751-21.979,1.846-31.258
									c-7.872,2.164-10.166-19.371,1.062-10.283c-7.879-20.455-11.091-34.141,14.078-45.826
									C75.445,175.876,100.575,179.78,105.319,191.999z"/>
							</defs>
							<use xlink:href="#SVGID_39_"  overflow="visible" fill="#5CB990"/>
							<clipPath id="SVGID_8_">
								<use xlink:href="#SVGID_39_"  overflow="visible"/>
							</clipPath>
							<g clip-path="url(#SVGID_8_)">
								<g>
									<path fill="none" d="M92.073,216.521c0.218,10.799,4.988,16.619,4.848,17.889c-0.37,3.371-5.758,3.271-6.923,2.295
										C88.834,235.731,90.866,214.616,92.073,216.521z"/>
								</g>
								<g>
									<defs>
										<path id="SVGID_41_" d="M69.723,225.919c0.023,0.924,2.649,1.613,5.875,1.547c3.221-0.072,5.815-0.873,5.798-1.793
											c-0.019-0.918-2.585-2.43-5.81-2.363C72.36,223.378,69.702,224.999,69.723,225.919z"/>
									</defs>
									<use xlink:href="#SVGID_41_"  overflow="visible" fill="#FFFFFF"/>
									<clipPath id="SVGID_10_">
										<use xlink:href="#SVGID_41_"  overflow="visible"/>
									</clipPath>
									<path clip-path="url(#SVGID_10_)" fill="#000100" d="M73.161,226.569c0.21,1.607,1.827,2.719,3.605,2.484
										c1.784-0.236,3.057-1.727,2.842-3.33c-0.209-1.605-1.826-2.719-3.604-2.484C74.222,223.476,72.948,224.966,73.161,226.569z
										"/>
									
										<use xlink:href="#SVGID_41_"  overflow="visible" fill="none" stroke="#000100" stroke-width="0.5642" stroke-miterlimit="10"/>
								</g>
								<g>
									<defs>
										<path id="SVGID_43_" d="M100.576,223.78c0.065,0.918,2.728,1.473,5.943,1.24c3.216-0.23,5.766-1.168,5.698-2.086
											c-0.065-0.92-2.627-2.289-5.843-2.057C103.16,221.112,100.51,222.858,100.576,223.78z"/>
									</defs>
									<use xlink:href="#SVGID_43_"  overflow="visible" fill="#FFFFFF"/>
									<clipPath id="SVGID_12_">
										<use xlink:href="#SVGID_43_"  overflow="visible"/>
									</clipPath>
									<path clip-path="url(#SVGID_12_)" fill="#000100" d="M103.148,223.983c0.292,1.594,1.96,2.623,3.729,2.295
										c1.767-0.326,2.958-1.877,2.666-3.473c-0.296-1.588-1.962-2.615-3.73-2.291
										C104.046,220.839,102.854,222.394,103.148,223.983z"/>
									
										<use xlink:href="#SVGID_43_"  overflow="visible" fill="none" stroke="#000100" stroke-width="0.5642" stroke-miterlimit="10"/>
								</g>
								<path fill="none" stroke="#7B3655" stroke-width="1.4638" stroke-linecap="round" stroke-miterlimit="10" d="
									M67.616,218.302c5.633-3.986,12.547-1.262,12.547-1.262"/>
								<path fill="none" stroke="#7B3655" stroke-width="1.4638" stroke-linecap="round" stroke-miterlimit="10" d="
									M100.708,215.667c5.633-3.988,12.547-1.264,12.547-1.264"/>
							</g>
						</g>
						<g>
							<path fill-rule="evenodd" clip-rule="evenodd" fill="#7B3655" d="M83.723,247.452c0.382-0.602,1.06-0.057,1.509,0.057
								c1.964,0.502,4.051,1.52,8.44,1.35c3.811-0.143,7.829-3.074,8.137-3.277c0.446-0.301,0.809-0.602,0.933-0.537
								c0.956,0.332-0.197,0.854-1.164,1.613c-0.968,0.764-3.207,1.844-4.177,2.17c-1.844,0.617-4.215,0.783-4.397,0.793
								c-1.136,0.059-2.158,0.037-3.394-0.152c-1.186-0.18-3.24-0.867-5.019-1.545C84.269,247.8,83.604,247.61,83.723,247.452z"/>
							<path fill-rule="evenodd" clip-rule="evenodd" fill="#7B3655" d="M95.607,251.464c0.151,0.385-1.433,0.805-2.145,0.785
								c-0.645-0.016-1.755-0.043-1.565-0.523c0.456-0.492,1.252,0.016,2.007-0.094C94.563,251.532,95.201,250.901,95.607,251.464z"
								/>
						</g>
					</g>
					<path fill="#E61C78" d="M90.807,219.229c-0.967-0.203-1.527,13.633-2.359,18.029c-0.596,3.145,7.939,1.51,7.491,0.035
						C94.953,234.052,92.777,218.28,90.807,219.229z"/>
				</g>
			</g>
			<path fill="#7B3655" d="M120.203,258.899c1.645-13.988,20.252-99.688-24.342-82.541c-29.316-16.545-65.235,5.693-72.239,36.412
				c-4.152,18.197,8.202,44.867,21.945,51.756c0.906-7.309,1.789-19.016,1.089-26.203c-7.872,2.17-10.168-19.369,1.061-10.277
				c8.552-6.877,7.636-13.957,6.762-18.586c20.877-0.576,35.129,0.324,50.854-17.467c5.52,16.061,2.958,55.76-1.267,61.977
				c-3.479,5.117-9.128,5.371-18.15,5.619c-3.95,0.105-4.712,2.516-4.214,6.115c2.185,0.189,4.381,0.348,6.783,0.729
				c17.78,2.82,20.91,25.273,25.175,43.389C131.63,297.872,119.108,268.214,120.203,258.899z"/>
		</g>
	</g>
	<g>
		<path fill="#F5C62E" d="M328.569,232.271c-22.018,37.143,3.366,74.652,7.052,74.873c1.003,0.061-6.795-9.297,3.505-19.006
			c11.598-10.938,11.12-32.518,6.199-43.811c-9.284-21.303-7.24-69.414-15.435-51.586c-2.027,4.416-3.045,10.119-3.302,16.316
			C326.547,210.065,328.433,231.583,328.569,232.271z"/>
		<path fill="#F5C62E" d="M399.091,236.819c18.104,28.643-2.326,77.527-11.562,79.213c-0.988,0.18,3.642-12.564-3.158-24.975
			c-7.485-13.668-17.317-40.859-0.521-44.246c22.777-4.592-54.698-15.639-54.698-15.639s0.207-14.367-3.196-13.68
			c-3.401,0.686-11.688-18.646,3.017-34.648c8.766-9.539,47.307-5.096,50.5,3.258c16.987-3.465,27.637,9.855,27.487,28.139
			C406.889,223.075,399.315,236.153,399.091,236.819z"/>
		<path fill="#5CB990" d="M376.903,238.667c-0.59-0.74-0.538-1.328-0.072-2.213c5.004,1.646,14.528,1.598,22.357,0.209
			c0,0,1.449-0.459,0.844,1.395C392.387,242.862,377.977,240.005,376.903,238.667z"/>
		<g>
			<defs>
				<path id="SVGID_45_" d="M328.273,196.8c-6.539,15.67-6.539,55.451-2.725,61.932c3.142,5.328,8.765,5.947,17.753,6.773
					c7.658,0.703,1.965,9.463,2.728,12.988c6.222,6.941,34.122,5.564,33.142,2.043c-0.984-3.52-6.636-25.152,4.678-33.725
					c7.719,2.668,11.391-18.678-0.398-10.326c-12.257-2.596-15.169-17.564-12.051-29.043
					C360.008,206.858,345.038,206.097,328.273,196.8z"/>
			</defs>
			<use xlink:href="#SVGID_45_"  overflow="visible" fill="#F8F6F6"/>
			<clipPath id="SVGID_14_">
				<use xlink:href="#SVGID_45_"  overflow="visible"/>
			</clipPath>
			<g clip-path="url(#SVGID_14_)">
				<g>
					<g>
						<path fill="#E1116F" d="M340.66,223.993c-1.771,10.387-6.076,13.412-6.124,14.656c-0.133,3.307,5.088,3.869,6.356,3.096
							C342.152,240.974,342.103,222.331,340.66,223.993z"/>
					</g>
					<g>
						<defs>
							<path id="SVGID_47_" d="M361.059,232.956c-0.102,0.896-2.716,1.33-5.844,0.979c-3.125-0.355-5.573-1.367-5.472-2.258
								c0.101-0.895,2.728-2.131,5.852-1.775C358.723,230.255,361.158,232.065,361.059,232.956z"/>
						</defs>
						<use xlink:href="#SVGID_47_"  overflow="visible" fill="#FFFFFF"/>
						<clipPath id="SVGID_16_">
							<use xlink:href="#SVGID_47_"  overflow="visible"/>
						</clipPath>
						<path clip-path="url(#SVGID_16_)" fill="#000100" d="M357.673,232.638c-0.349,1.539-2.015,2.477-3.729,2.088
							c-1.708-0.387-2.807-1.947-2.46-3.486c0.349-1.543,2.016-2.479,3.726-2.092C356.918,229.534,358.021,231.097,357.673,232.638z
							"/>
						
							<use xlink:href="#SVGID_47_"  overflow="visible" fill="none" stroke="#000100" stroke-width="0.4879" stroke-miterlimit="10"/>
					</g>
					<g>
						<defs>
							<path id="SVGID_49_" d="M331.3,227.433c-0.189,0.881-2.832,1.061-5.906,0.402c-3.078-0.654-5.419-1.896-5.229-2.777
								c0.186-0.879,2.845-1.857,5.92-1.205C329.16,224.511,331.487,226.554,331.3,227.433z"/>
						</defs>
						<use xlink:href="#SVGID_49_"  overflow="visible" fill="#FFFFFF"/>
						<clipPath id="SVGID_18_">
							<use xlink:href="#SVGID_49_"  overflow="visible"/>
						</clipPath>
						<path clip-path="url(#SVGID_18_)" fill="#000100" d="M327.702,227.188c-0.493,1.5-2.247,2.268-3.906,1.719
							c-1.667-0.555-2.609-2.213-2.115-3.715c0.497-1.498,2.25-2.264,3.91-1.717C327.254,224.028,328.2,225.688,327.702,227.188z"/>
						
							<use xlink:href="#SVGID_49_"  overflow="visible" fill="none" stroke="#000100" stroke-width="0.4879" stroke-miterlimit="10"/>
					</g>
					<path fill="none" stroke="#F5C62E" stroke-width="1.4638" stroke-linecap="round" stroke-miterlimit="10" d="M363.494,227.562
						c-4.938-4.58-11.972-2.826-11.972-2.826"/>
					<path fill="none" stroke="#F5C62E" stroke-width="1.4638" stroke-linecap="round" stroke-miterlimit="10" d="M331.831,220.78
						c-4.936-4.578-11.973-2.826-11.973-2.826"/>
				</g>
			</g>
		</g>
		<g>
			<path fill="none" stroke="#79304A" stroke-width="1.2013" stroke-miterlimit="10" d="M328.859,247.995
				c2.238,0.15,4.482-0.029,7.373,0.4c2.853,0.424,4.248,1.766,6.935,2.91c-1.52,3.818-4.393,7.217-8.72,6.281
				C329.424,256.503,329.046,251.718,328.859,247.995z"/>
		</g>
	</g>
</g>
<g opacity="0.25">
	<g>
		<defs>
			<path id="SVGID_51_" d="M246.895,164.038c0.647,3.33-11.515,6.09-22.991,4.27c-11.765-1.869-22.831-8.402-20.728-11.943
				c4.164-6.998,31.749-52.488,31.749-52.488S245.583,157.296,246.895,164.038z"/>
		</defs>
		<use xlink:href="#SVGID_51_"  overflow="visible" fill-rule="evenodd" clip-rule="evenodd" fill="#010101"/>
		<clipPath id="SVGID_20_">
			<use xlink:href="#SVGID_51_"  overflow="visible"/>
		</clipPath>
		<path clip-path="url(#SVGID_20_)" fill-rule="evenodd" clip-rule="evenodd" fill="#010101" d="M201.954,132.326
			c-6.02,14.804,40.138,29.952,58.158,27.37c17.153-2.461,21.951-24.688,6.092-26.68c-15.75-1.976-35.201,4.569-53.235-18.597
			C194.932,91.254,206.235,121.801,201.954,132.326z"/>
	</g>
	<circle fill-rule="evenodd" clip-rule="evenodd" fill="#010101" cx="235.251" cy="103.66" r="2.806"/>
</g>
<g>
	<g>
		<defs>
			<path id="SVGID_53_" d="M243.968,161.11c0.648,3.33-11.517,6.092-22.992,4.27c-11.764-1.869-22.833-8.404-20.725-11.945
				c4.16-6.994,31.748-52.488,31.748-52.488S242.654,154.368,243.968,161.11z"/>
		</defs>
		<use xlink:href="#SVGID_53_"  overflow="visible" fill-rule="evenodd" clip-rule="evenodd" fill="#F5C82D"/>
		<clipPath id="SVGID_22_">
			<use xlink:href="#SVGID_53_"  overflow="visible"/>
		</clipPath>
		<path clip-path="url(#SVGID_22_)" fill-rule="evenodd" clip-rule="evenodd" fill="#E61C78" d="M199.028,129.397
			c-6.024,14.807,40.133,29.953,58.159,27.367c17.149-2.457,21.947-24.684,6.091-26.673c-15.753-1.979-35.203,4.568-53.237-18.599
			C192.005,88.325,203.307,118.872,199.028,129.397z"/>
	</g>
	<circle fill-rule="evenodd" clip-rule="evenodd" fill="#E61C78" cx="232.323" cy="100.733" r="2.805"/>
</g>
<g opacity="0.25">
	<g>
		<defs>
			<path id="SVGID_55_" d="M87.901,183.636c1.874,2.824-8.301,10.039-19.599,12.756c-11.581,2.785-24.31,0.994-23.722-3.084
				c1.162-8.057,9.2-60.649,9.2-60.649S84.104,177.911,87.901,183.636z"/>
		</defs>
		<use xlink:href="#SVGID_55_"  overflow="visible" fill-rule="evenodd" clip-rule="evenodd" fill="#010101"/>
		<clipPath id="SVGID_24_">
			<use xlink:href="#SVGID_55_"  overflow="visible"/>
		</clipPath>
		<path clip-path="url(#SVGID_24_)" fill-rule="evenodd" clip-rule="evenodd" fill="#010101" d="M34.238,174.177
			c0.114,15.98,48.55,12.273,64.207,2.98c14.899-8.848,10.806-31.217-4.603-26.975c-15.307,4.215-30.759,17.717-56.301,3.236
			C12.004,138.936,34.155,162.815,34.238,174.177z"/>
		<path clip-path="url(#SVGID_24_)" fill-rule="evenodd" clip-rule="evenodd" fill="#010101" d="M26.281,138.511
			c-0.591,15.973,49.812,18.529,64.013,5.814c12.912-11.558,12.179-30.705-3.403-27.149c-15.477,3.533-31.514,16.339-56.388,0.744
			C5.629,102.322,26.703,127.155,26.281,138.511z"/>
	</g>
	<path fill-rule="evenodd" clip-rule="evenodd" fill="#010101" d="M56.735,131.716c0.34,1.511-0.607,3.011-2.117,3.354
		c-1.512,0.344-3.015-0.604-3.354-2.117c-0.346-1.509,0.604-3.013,2.113-3.355C54.891,129.255,56.392,130.203,56.735,131.716z"/>
</g>
<g>
	<g>
		<defs>
			<path id="SVGID_57_" d="M84.975,181.685c1.874,2.826-8.305,10.037-19.599,12.756c-11.583,2.785-24.308,0.992-23.722-3.086
				c1.16-8.055,9.197-60.648,9.197-60.648S81.176,175.958,84.975,181.685z"/>
		</defs>
		<use xlink:href="#SVGID_57_"  overflow="visible" fill-rule="evenodd" clip-rule="evenodd" fill="#E61C78"/>
		<clipPath id="SVGID_26_">
			<use xlink:href="#SVGID_57_"  overflow="visible"/>
		</clipPath>
		<path clip-path="url(#SVGID_26_)" fill-rule="evenodd" clip-rule="evenodd" fill="#83BACF" d="M31.309,172.228
			c0.116,15.98,48.553,12.273,64.208,2.977c14.899-8.848,10.808-31.213-4.604-26.973c-15.304,4.215-30.76,17.717-56.296,3.236
			C9.077,136.984,31.227,160.864,31.309,172.228z"/>
		<path clip-path="url(#SVGID_26_)" fill-rule="evenodd" clip-rule="evenodd" fill="#83BACF" d="M23.354,136.56
			c-0.591,15.971,49.812,18.529,64.014,5.814c12.908-11.559,12.174-30.707-3.408-27.15c-15.476,3.532-31.512,16.339-56.384,0.743
			C2.7,100.368,23.774,125.204,23.354,136.56z"/>
	</g>
	<path fill-rule="evenodd" clip-rule="evenodd" fill="#E61C78" d="M53.805,129.763c0.344,1.513-0.605,3.014-2.115,3.357
		c-1.512,0.339-3.015-0.607-3.356-2.118s0.606-3.014,2.118-3.357C51.962,127.303,53.463,128.252,53.805,129.763z"/>
</g>
<g opacity="0.25">
	<g>
		<path fill="#010101" d="M399.866,169.282c-0.659,0-1.307-0.316-1.703-0.9l-5.514-8.102l-2.404,2.793
			c-0.425,0.488-1.049,0.754-1.682,0.709c-0.643-0.035-1.222-0.367-1.587-0.895l-7.021-10.324c-0.641-0.943-0.396-2.223,0.546-2.865
			c0.946-0.645,2.223-0.393,2.865,0.547l5.509,8.1l2.409-2.789c0.413-0.486,0.982-0.766,1.675-0.715
			c0.641,0.037,1.227,0.365,1.589,0.896l7.022,10.324c0.643,0.941,0.396,2.225-0.545,2.865
			C400.671,169.165,400.263,169.282,399.866,169.282z"/>
	</g>
	<g>
		<path fill="#010101" d="M33.875,93.185c-0.641,0-1.271-0.295-1.672-0.852c-0.664-0.925-0.46-2.211,0.461-2.882l7.935-5.744
			l-2.864-2.324c-0.496-0.405-0.778-1.018-0.759-1.657c0.017-0.639,0.332-1.234,0.851-1.613l10.117-7.318
			c0.921-0.667,2.208-0.461,2.877,0.462c0.669,0.92,0.463,2.21-0.46,2.877l-7.936,5.746l2.862,2.324
			c0.498,0.408,0.778,1.02,0.76,1.66s-0.334,1.235-0.854,1.613l-10.109,7.318C34.717,93.057,34.295,93.185,33.875,93.185z"/>
	</g>
	<g>
		<path fill="#010101" d="M143.386,142.887c-0.021,0-0.044,0-0.066,0l-12.475-0.412c-1.139-0.038-2.032-0.991-1.991-2.126
			c0.039-1.14,1.012-2.014,2.129-1.992l9.788,0.321l-0.833-3.586c-0.149-0.622,0.006-1.281,0.408-1.779
			c0.41-0.495,0.966-0.757,1.667-0.757l12.476,0.411c1.138,0.039,2.03,0.991,1.99,2.129c-0.039,1.139-0.971,2.049-2.13,1.992
			l-9.788-0.324l0.837,3.597c0.147,0.622-0.01,1.279-0.413,1.774C144.589,142.612,144.001,142.887,143.386,142.887z"/>
	</g>
	<g>
		<path fill="#010101" d="M348.287,96.902c-0.58,0-1.159-0.243-1.567-0.721c-0.742-0.858-0.643-2.163,0.223-2.902l7.424-6.388
			l-3.045-2.075c-0.527-0.359-0.859-0.95-0.895-1.588c-0.035-0.642,0.226-1.26,0.712-1.677l9.467-8.141
			c0.861-0.742,2.164-0.651,2.906,0.216c0.742,0.866,0.646,2.168-0.217,2.908l-7.433,6.392l3.033,2.068
			c0.537,0.357,0.873,0.945,0.914,1.591c0.038,0.641-0.228,1.265-0.719,1.682l-9.461,8.137
			C349.239,96.736,348.764,96.902,348.287,96.902z"/>
	</g>
	<g>
		<path fill="#010101" d="M387.968,37.417c-0.047,0-0.088,0-0.131-0.003l-12.461-0.806c-1.136-0.071-1.998-1.053-1.925-2.188
			c0.073-1.142,1.058-1.998,2.191-1.927l9.771,0.634l-0.724-3.615c-0.126-0.631,0.052-1.282,0.47-1.762
			c0.422-0.485,1.024-0.739,1.684-0.704l12.461,0.8c1.138,0.073,1.994,1.057,1.925,2.191c-0.075,1.14-1.083,1.97-2.188,1.926
			l-9.78-0.631l0.725,3.602c0.133,0.631-0.04,1.283-0.46,1.768C389.137,37.163,388.563,37.417,387.968,37.417z"/>
	</g>
	<g>
		<path fill="#010101" d="M231.501,28.806c-0.461,0-0.928-0.152-1.312-0.468l-7.562-6.23l-1.522,3.333
			c-0.261,0.593-0.783,1.024-1.414,1.167c-0.625,0.156-1.283-0.005-1.778-0.415l-9.634-7.943c-0.877-0.723-1-2.024-0.274-2.9
			c0.729-0.884,2.027-0.996,2.899-0.279l7.555,6.235l1.531-3.354c0.266-0.581,0.788-1.007,1.412-1.155
			c0.626-0.143,1.28,0.014,1.775,0.419l9.634,7.938c0.876,0.728,1.003,2.025,0.28,2.903
			C232.686,28.554,232.096,28.806,231.501,28.806z"/>
	</g>
	<g>
		<path fill="#010101" d="M139.869,51.751c-0.291,0-0.586-0.06-0.866-0.191c-1.033-0.481-1.479-1.703-1.002-2.739l4.126-8.883
			l-3.629-0.637c-0.633-0.109-1.174-0.506-1.47-1.075c-0.299-0.568-0.313-1.242-0.046-1.823l5.258-11.325
			c0.479-1.031,1.699-1.484,2.737-1.003c1.032,0.481,1.482,1.707,1.004,2.739l-4.127,8.892l3.614,0.63
			c0.636,0.107,1.188,0.503,1.486,1.073c0.3,0.568,0.316,1.245,0.046,1.83l-5.261,11.317
			C141.392,51.311,140.647,51.751,139.869,51.751z"/>
	</g>
	<g>
		<path fill="#010101" d="M275.255,113.633c-0.443,0-0.89-0.145-1.267-0.438l-7.715-6.039l-1.441,3.39
			c-0.254,0.591-0.762,1.029-1.381,1.186c-0.619,0.159-1.281,0.026-1.785-0.372l-9.834-7.693c-0.896-0.7-1.058-1.993-0.354-2.892
			c0.698-0.894,1.993-1.06,2.892-0.355l7.722,6.042l1.438-3.379c0.247-0.595,0.755-1.037,1.378-1.198
			c0.619-0.161,1.286-0.027,1.793,0.368l9.831,7.696c0.894,0.702,1.056,1.997,0.353,2.893
			C276.475,113.359,275.871,113.633,275.255,113.633z"/>
	</g>
	<g>
		<path fill="#010101" d="M147.333,194.122c2.027,0,3.671,1.645,3.671,3.672s-1.644,3.672-3.671,3.672
			c-2.03,0-3.672-1.645-3.672-3.672S145.303,194.122,147.333,194.122z"/>
	</g>
	<g>
		<circle fill="#010101" cx="311.313" cy="82.541" r="3.671"/>
	</g>
	<g>
		<circle fill="#010101" cx="146.03" cy="81.339" r="3.67"/>
	</g>
	<g>
		<circle fill="#010101" cx="301.099" cy="174.604" r="3.672"/>
	</g>
	<g>
		<circle fill="#010101" cx="265.493" cy="57.742" r="3.671"/>
	</g>
	<g>
		<circle fill="#010101" cx="95.704" cy="71.165" r="3.67"/>
	</g>
	<g>
		<path fill="#010101" d="M315.922,20.087c2.03,0,3.676,1.644,3.676,3.675c0,2.025-1.646,3.671-3.676,3.671
			c-2.028,0-3.674-1.646-3.674-3.671C312.248,21.73,313.894,20.087,315.922,20.087z"/>
	</g>
	<g>
		<path fill="#010101" d="M27.415,157.886c2.025,0,3.671,1.641,3.671,3.672c0,2.025-1.646,3.67-3.671,3.67
			c-2.027,0-3.672-1.645-3.672-3.67C23.743,159.526,25.388,157.886,27.415,157.886z"/>
	</g>
	<g>
		<path fill="#010101" d="M90.639,141.893c-0.106,0-0.216-0.014-0.322-0.044c-3.687-1.019-5.863-4.853-4.843-8.541
			c0.82-3.002,3.569-5.102,6.683-5.102c0.628,0,1.253,0.083,1.859,0.254c0.641,0.18,1.022,0.845,0.844,1.492l-3.047,11.05
			c-0.091,0.311-0.29,0.576-0.571,0.732C91.056,141.841,90.848,141.893,90.639,141.893z M92.153,130.63
			c-2.022,0.005-3.808,1.368-4.342,3.32c-0.556,1.999,0.33,4.061,2.027,5.08L92.153,130.63z"/>
	</g>
	<g>
		<path fill="#010101" d="M63.027,31.892L63.027,31.892c-1.19,0-2.376-0.312-3.42-0.904c-1.612-0.91-2.774-2.4-3.27-4.188
			c-0.494-1.788-0.262-3.664,0.658-5.276c0.328-0.586,1.068-0.785,1.653-0.456l9.973,5.657c0.277,0.156,0.481,0.422,0.569,0.732
			c0.085,0.309,0.043,0.643-0.116,0.921C67.845,30.546,65.527,31.892,63.027,31.892z M58.646,23.855
			c-0.186,0.747-0.177,1.533,0.032,2.297c0.323,1.166,1.074,2.132,2.128,2.723c1.752,0.993,4.046,0.64,5.417-0.722L58.646,23.855z"
			/>
	</g>
	<g>
		<path fill="#010101" d="M190.512,112.762c-0.041,0-0.077-0.004-0.119-0.005l-11.408-1.107c-0.322-0.032-0.616-0.188-0.822-0.436
			c-0.204-0.25-0.301-0.567-0.272-0.89c0.376-3.8,3.704-6.619,7.589-6.24c1.843,0.176,3.51,1.062,4.69,2.493
			c1.18,1.435,1.731,3.241,1.55,5.087C191.656,112.292,191.128,112.762,190.512,112.762z M180.584,109.37l8.677,0.84
			c-0.135-0.761-0.46-1.478-0.963-2.087c-0.768-0.932-1.854-1.509-3.054-1.622C183.081,106.299,181.288,107.528,180.584,109.37z"/>
	</g>
	<g>
		<path fill="#010101" d="M335.399,156.14c-0.498,0-0.965-0.307-1.145-0.801l-3.886-10.783c-0.108-0.307-0.092-0.639,0.044-0.931
			c0.142-0.288,0.386-0.515,0.688-0.624c0.757-0.272,1.551-0.41,2.35-0.41c2.923,0,5.552,1.846,6.537,4.596
			c0.631,1.738,0.547,3.625-0.245,5.305c-0.789,1.682-2.188,2.955-3.939,3.582C335.673,156.116,335.532,156.14,335.399,156.14z
			 M333.118,145.026l2.951,8.199c0.638-0.445,1.141-1.049,1.479-1.768c0.512-1.09,0.567-2.314,0.158-3.447
			C337.024,146.108,335.094,144.849,333.118,145.026z"/>
	</g>
	<g>
		<path fill="#010101" d="M152.644,257.823L152.644,257.823c-2.649,0-5.102-1.543-6.248-3.928c-0.294-0.6-0.04-1.328,0.561-1.615
			l10.321-4.994c0.286-0.143,0.624-0.166,0.925-0.053c0.306,0.104,0.558,0.326,0.692,0.619c0.811,1.668,0.913,3.555,0.307,5.307
			c-0.61,1.754-1.869,3.16-3.537,3.967C154.716,257.591,153.7,257.823,152.644,257.823z M149.252,253.862
			c0.847,0.961,2.082,1.539,3.389,1.539l0,0c0.683,0,1.345-0.154,1.968-0.457c1.087-0.525,1.905-1.443,2.297-2.58
			c0.263-0.752,0.326-1.535,0.187-2.293L149.252,253.862z"/>
	</g>
	<g>
		<path fill="#010101" d="M302.531,248.552L302.531,248.552c-1.127,0-2.248-0.279-3.249-0.812c-1.637-0.863-2.841-2.316-3.385-4.092
			c-0.547-1.777-0.364-3.66,0.506-5.301c0.312-0.588,1.053-0.812,1.641-0.498l10.129,5.377c0.283,0.148,0.496,0.404,0.591,0.713
			c0.091,0.309,0.062,0.645-0.092,0.926C307.467,247.138,305.111,248.552,302.531,248.552z M298.123,240.632
			c-0.166,0.756-0.141,1.541,0.092,2.301c0.355,1.156,1.141,2.098,2.203,2.662c1.784,0.957,4.061,0.529,5.4-0.875L298.123,240.632z"
			/>
	</g>
	<g>
		<path fill="#010101" d="M209.534,80.649L209.534,80.649c-1.674,0-3.292-0.606-4.552-1.707c-0.507-0.441-0.562-1.205-0.118-1.71
			l7.519-8.654c0.213-0.244,0.51-0.394,0.829-0.413c0.321-0.017,0.642,0.083,0.88,0.295c2.89,2.517,3.198,6.91,0.684,9.795
			C213.464,79.772,211.55,80.649,209.534,80.649z M207.595,77.785c0.604,0.287,1.262,0.44,1.939,0.44l0,0
			c1.312,0,2.557-0.568,3.41-1.561c1.361-1.562,1.454-3.806,0.361-5.457L207.595,77.785z"/>
	</g>
</g>
<g>
	<g>
		<path fill="#5CB990" d="M396.939,166.353c-0.661,0-1.305-0.314-1.708-0.898l-5.509-8.102l-2.409,2.791
			c-0.42,0.488-1.046,0.758-1.678,0.713c-0.64-0.037-1.224-0.371-1.584-0.898l-7.022-10.322c-0.641-0.943-0.397-2.225,0.546-2.865
			c0.944-0.645,2.225-0.393,2.865,0.545l5.507,8.1l2.407-2.789c0.415-0.484,0.986-0.764,1.679-0.713
			c0.641,0.037,1.229,0.365,1.587,0.896l7.024,10.322c0.641,0.947,0.394,2.225-0.548,2.867
			C397.741,166.239,397.338,166.353,396.939,166.353z"/>
	</g>
	<g>
		<path fill="#5CB990" d="M30.946,90.258c-0.64,0-1.269-0.295-1.669-0.856c-0.669-0.92-0.463-2.21,0.459-2.875l7.936-5.744
			l-2.866-2.326c-0.494-0.405-0.774-1.018-0.758-1.658c0.018-0.638,0.332-1.235,0.853-1.61l10.115-7.321
			c0.924-0.668,2.21-0.462,2.878,0.458c0.669,0.925,0.459,2.215-0.459,2.882l-7.937,5.747l2.863,2.324
			c0.495,0.405,0.775,1.015,0.759,1.657s-0.335,1.238-0.854,1.613l-10.112,7.321C31.79,90.127,31.366,90.258,30.946,90.258z"/>
	</g>
	<g>
		<path fill="#F5C62E" d="M140.458,139.96c-0.022,0-0.044,0-0.066,0l-12.476-0.412c-1.138-0.04-2.03-0.992-1.992-2.126
			c0.04-1.141,1.015-2.015,2.128-1.992l9.792,0.32l-0.835-3.586c-0.146-0.621,0.007-1.282,0.41-1.78
			c0.406-0.494,0.964-0.754,1.665-0.754l12.476,0.412c1.136,0.036,2.03,0.986,1.992,2.125c-0.038,1.141-0.969,2.049-2.13,1.994
			l-9.79-0.322l0.837,3.594c0.146,0.621-0.01,1.278-0.413,1.773C141.657,139.685,141.074,139.96,140.458,139.96z"/>
	</g>
	<g>
		<path fill="#F5C62E" d="M345.358,93.974c-0.576,0-1.155-0.241-1.564-0.718c-0.741-0.859-0.644-2.164,0.22-2.905l7.426-6.388
			l-3.045-2.075c-0.531-0.358-0.859-0.946-0.895-1.584c-0.037-0.645,0.228-1.264,0.712-1.68l9.465-8.142
			c0.863-0.744,2.165-0.649,2.907,0.219c0.741,0.862,0.646,2.163-0.218,2.907l-7.43,6.39l3.032,2.068
			c0.536,0.357,0.874,0.946,0.913,1.591c0.036,0.641-0.225,1.265-0.716,1.684l-9.463,8.135
			C346.312,93.808,345.835,93.974,345.358,93.974z"/>
	</g>
	<g>
		<path fill="#7B3655" d="M385.043,34.488c-0.047,0-0.088,0-0.135-0.002l-12.46-0.807c-1.135-0.071-1.995-1.053-1.924-2.189
			c0.075-1.138,1.058-1.997,2.188-1.923l9.774,0.633l-0.724-3.616c-0.126-0.631,0.05-1.281,0.47-1.765
			c0.422-0.479,1.026-0.735,1.684-0.7l12.461,0.8c1.139,0.075,1.994,1.057,1.925,2.19c-0.075,1.139-1.085,1.969-2.191,1.926
			l-9.777-0.63l0.723,3.602c0.136,0.627-0.04,1.284-0.458,1.77C386.206,34.234,385.639,34.488,385.043,34.488z"/>
	</g>
	<g>
		<path fill="#7B3655" d="M228.573,25.877c-0.46,0-0.925-0.15-1.312-0.466l-7.564-6.232l-1.521,3.337
			c-0.261,0.589-0.781,1.02-1.411,1.167c-0.629,0.154-1.283-0.009-1.783-0.417l-9.63-7.943c-0.879-0.725-1-2.022-0.275-2.902
			c0.729-0.883,2.028-0.996,2.899-0.275l7.556,6.232l1.531-3.354c0.267-0.581,0.788-1.008,1.409-1.152
			c0.626-0.146,1.281,0.012,1.776,0.415l9.636,7.942c0.876,0.724,1.002,2.021,0.28,2.901
			C229.757,25.623,229.167,25.877,228.573,25.877z"/>
	</g>
	<g>
		<path fill="#E61C78" d="M136.94,48.824c-0.287,0-0.584-0.063-0.866-0.191c-1.034-0.481-1.479-1.705-0.998-2.739l4.126-8.885
			l-3.631-0.636c-0.633-0.113-1.174-0.505-1.47-1.074c-0.299-0.568-0.312-1.244-0.046-1.823l5.256-11.324
			c0.482-1.034,1.701-1.487,2.739-1.002c1.03,0.478,1.482,1.703,1.004,2.735l-4.127,8.894l3.612,0.629
			c0.638,0.106,1.186,0.502,1.484,1.073c0.302,0.57,0.32,1.248,0.05,1.827l-5.261,11.322
			C138.461,48.382,137.719,48.824,136.94,48.824z"/>
	</g>
	<g>
		<path fill="#83BACF" d="M272.33,110.704c-0.447,0-0.892-0.143-1.269-0.438l-7.715-6.038l-1.441,3.388
			c-0.252,0.592-0.764,1.028-1.385,1.189c-0.617,0.159-1.279,0.022-1.782-0.372l-9.835-7.695c-0.896-0.7-1.056-1.997-0.355-2.894
			c0.702-0.893,1.994-1.056,2.894-0.354l7.722,6.041l1.439-3.38c0.247-0.591,0.754-1.036,1.379-1.198
			c0.616-0.161,1.284-0.026,1.792,0.37l9.831,7.694c0.894,0.704,1.056,1.999,0.351,2.893
			C273.55,110.433,272.942,110.704,272.33,110.704z"/>
	</g>
	<g>
		<circle fill="#5CB990" cx="144.404" cy="194.868" r="3.672"/>
	</g>
	<g>
		<path fill="#E61C78" d="M308.387,75.94c2.025,0,3.669,1.644,3.669,3.675c0,2.026-1.644,3.67-3.669,3.67
			c-2.029,0-3.673-1.644-3.673-3.67C304.714,77.584,306.357,75.94,308.387,75.94z"/>
	</g>
	<g>
		<circle fill="#83BACF" cx="143.104" cy="78.413" r="3.67"/>
	</g>
	<g>
		<path fill="#E61C78" d="M298.172,168.005c2.025,0,3.67,1.645,3.67,3.67c0,2.029-1.645,3.674-3.67,3.674
			c-2.029,0-3.674-1.645-3.674-3.674C294.498,169.649,296.143,168.005,298.172,168.005z"/>
	</g>
	<g>
		<path fill="#7B3655" d="M262.566,51.142c2.028,0,3.671,1.644,3.671,3.672c0,2.025-1.643,3.673-3.671,3.673
			c-2.029,0-3.671-1.647-3.671-3.673C258.896,52.785,260.537,51.142,262.566,51.142z"/>
	</g>
	<g>
		<circle fill="#F5C62E" cx="92.777" cy="68.236" r="3.67"/>
	</g>
	<g>
		<circle fill="#83BACF" cx="312.993" cy="20.832" r="3.674"/>
	</g>
	<g>
		<circle fill="#F5C62E" cx="24.485" cy="158.629" r="3.671"/>
	</g>
	<g>
		<path fill="#7B3655" d="M87.714,138.966c-0.108,0-0.22-0.014-0.322-0.045c-3.692-1.02-5.869-4.852-4.845-8.544
			c0.82-2.998,3.568-5.098,6.683-5.098c0.624,0,1.25,0.084,1.855,0.252c0.646,0.181,1.023,0.847,0.849,1.492l-3.048,11.052
			c-0.09,0.311-0.292,0.575-0.571,0.732C88.127,138.91,87.923,138.966,87.714,138.966z M89.228,127.704
			c-2.023,0.004-3.81,1.365-4.345,3.317c-0.556,2.001,0.332,4.061,2.027,5.083L89.228,127.704z"/>
	</g>
	<g>
		<path fill="#83BACF" d="M60.102,28.965L60.102,28.965c-1.193,0-2.375-0.312-3.423-0.906c-1.612-0.91-2.772-2.4-3.269-4.187
			c-0.492-1.79-0.261-3.666,0.659-5.278c0.326-0.582,1.067-0.781,1.651-0.454l9.971,5.655c0.279,0.158,0.483,0.424,0.569,0.732
			c0.087,0.311,0.044,0.645-0.114,0.922C64.916,27.617,62.603,28.965,60.102,28.965z M55.719,20.929
			c-0.188,0.748-0.179,1.533,0.032,2.299c0.321,1.162,1.074,2.128,2.126,2.721c1.752,0.993,4.048,0.638,5.417-0.722L55.719,20.929z"
			/>
	</g>
	<g>
		<path fill="#5CB990" d="M187.585,109.835c-0.043,0-0.079-0.004-0.119-0.007l-11.414-1.104c-0.318-0.033-0.614-0.19-0.816-0.437
			c-0.206-0.249-0.302-0.567-0.272-0.893c0.377-3.796,3.702-6.616,7.587-6.237c1.845,0.174,3.51,1.062,4.691,2.493
			c1.181,1.433,1.73,3.239,1.551,5.085C188.728,109.366,188.203,109.835,187.585,109.835z M177.657,106.441l8.675,0.84
			c-0.133-0.759-0.458-1.475-0.963-2.087c-0.768-0.932-1.852-1.509-3.052-1.622C180.152,103.37,178.361,104.602,177.657,106.441z"/>
	</g>
	<g>
		<path fill="#F5C62E" d="M332.472,153.214c-0.498,0-0.963-0.309-1.144-0.799l-3.888-10.788c-0.108-0.303-0.092-0.638,0.048-0.927
			c0.136-0.292,0.382-0.518,0.686-0.628c0.757-0.271,1.549-0.408,2.35-0.408c2.923,0,5.55,1.845,6.539,4.595
			c0.629,1.74,0.545,3.621-0.249,5.305c-0.785,1.68-2.188,2.953-3.937,3.582C332.743,153.19,332.604,153.214,332.472,153.214z
			 M330.192,142.102l2.952,8.198c0.636-0.449,1.141-1.049,1.478-1.768c0.51-1.092,0.567-2.316,0.157-3.449
			C334.098,143.181,332.167,141.922,330.192,142.102z"/>
	</g>
	<g>
		<path fill="#E61C78" d="M149.714,254.896L149.714,254.896c-2.648,0-5.1-1.541-6.247-3.926c-0.292-0.604-0.04-1.328,0.561-1.619
			l10.321-4.992c0.289-0.145,0.625-0.168,0.929-0.055c0.304,0.107,0.553,0.33,0.69,0.617c0.81,1.67,0.915,3.561,0.306,5.307
			c-0.609,1.756-1.868,3.166-3.536,3.967C151.787,254.663,150.768,254.896,149.714,254.896z M146.327,250.935
			c0.844,0.959,2.078,1.537,3.385,1.537l0,0c0.685,0,1.345-0.152,1.968-0.455c1.087-0.527,1.905-1.441,2.301-2.582
			c0.257-0.75,0.322-1.531,0.181-2.291L146.327,250.935z"/>
	</g>
	<g>
		<path fill="#5CB990" d="M299.603,245.626L299.603,245.626c-1.127,0-2.249-0.283-3.247-0.814c-1.639-0.863-2.841-2.316-3.387-4.092
			c-0.548-1.775-0.365-3.658,0.505-5.299c0.316-0.594,1.056-0.814,1.642-0.5l10.129,5.375c0.283,0.15,0.498,0.408,0.591,0.717
			c0.091,0.309,0.062,0.643-0.09,0.926C304.54,244.21,302.186,245.626,299.603,245.626z M295.196,237.706
			c-0.169,0.752-0.143,1.541,0.092,2.297c0.354,1.156,1.137,2.102,2.203,2.668c1.784,0.955,4.059,0.527,5.402-0.881L295.196,237.706
			z"/>
	</g>
	<g>
		<path fill="#F5C62E" d="M206.607,77.721L206.607,77.721c-1.674,0-3.292-0.606-4.556-1.707c-0.505-0.438-0.556-1.205-0.116-1.71
			l7.519-8.652c0.213-0.242,0.512-0.392,0.832-0.415c0.322-0.017,0.638,0.083,0.878,0.295c2.889,2.519,3.198,6.912,0.685,9.795
			C210.537,76.848,208.623,77.721,206.607,77.721z M204.667,74.856c0.601,0.287,1.265,0.44,1.94,0.44l0,0
			c1.312,0,2.555-0.568,3.411-1.561c1.36-1.564,1.451-3.804,0.362-5.455L204.667,74.856z"/>
	</g>
</g>
</svg>
