<?xml version="1.0" encoding="utf-8"?>
<!-- Generator: Adobe Illustrator 16.0.0, SVG Export Plug-In . SVG Version: 6.00 Build 0)  -->
<!DOCTYPE svg PUBLIC "-//W3C//DTD SVG 1.1//EN" "http://www.w3.org/Graphics/SVG/1.1/DTD/svg11.dtd">
<svg version="1.1" id="Ebene_1" xmlns="http://www.w3.org/2000/svg" xmlns:xlink="http://www.w3.org/1999/xlink" x="0px" y="0px"
	 width="425.197px" height="425.197px" viewBox="0 0 425.197 425.197" enable-background="new 0 0 425.197 425.197"
	 xml:space="preserve">
<g>
	<path opacity="0.25" fill="#010101" d="M156.653,260.069c0.07-3.604-0.686-7.455-2.491-11.558
		c2.996-1.987,16.874-14.984,5.874-36.271c6.178-10.946,0.567-16.548,0.567-16.548s0.702-2.576,1.362-6.769l0.281-0.04
		c0,0-0.104-0.034-0.262-0.082c1.169-7.5,2.185-20.087-1.125-32.514c-4.888-18.352-40.725-18.655-66.093-8.495
		c-18.963-4.646-36.244,13.935-30.314,59.883c-18.451,11.194-12.637,36.262-14.556,38.849c-9.674,13.041-9.466,23.229-3.685,30.979
		c-9.957,19.522-17.772,43.854-17.6,48.776c0.605,17.251,30.917,20.225,30.917,24.288c0,4.062,0,10.983,0,18.656
		c0,3.244,15.806,5.955,34.236,6.916c-1.601-6.755,0.369-13.231,8.351-16.973c3.693-1.729,7.448-0.651,10.951-0.602
		c-0.798-5.894,5.612-12.147,12.443-13.407c1.233-0.227,2.546-0.265,3.889-0.148c0.187-0.309,0.38-0.586,0.578-0.817
		c1.54-1.793,5.841-3.373,7.575-4.369c1.736-1.001,7.031-4.648,9.917-5.508c2.887-0.856,7.899-1.691,8.772-1.841
		c0.872-0.152,2.903,9.068,1.801,9.513c-1.841,0.738-3.979,2.401-6.031,4.312c1.294,1.704,2.746,2.834,3.981,2.73
		c6.6-0.55,29.7-13.75,29.975-29.149C186.106,312.197,175.83,278.793,156.653,260.069z M163.603,322.083
		c-1.283,4.216-10.739,9.228-13.108,10.724c-0.211,0.133-0.396,0.287-0.567,0.451c-0.591-10.912-0.849-20.233,1.21-21.809
		C152.694,310.257,164.887,317.866,163.603,322.083z"/>
	<path opacity="0.25" fill="#010101" d="M145.314,353.515c-0.08,0.095-0.162,0.188-0.243,0.284c3.27,4.285,4.975,8.722,5.363,13.061
		c0.729-4.707,0.617-11.765,0.27-19.295C148.549,349.71,146.588,351.977,145.314,353.515z"/>
	<path opacity="0.25" fill="#010101" d="M109.121,376.509c2.247-3.129,4.499-6.256,5.664-9.611
		c-6.008-7.288-14.677,3.456-10.14,9.593C106.14,376.51,107.633,376.516,109.121,376.509z"/>
	<path opacity="0.25" fill="#010101" d="M138.547,366.36c-6.317,0.702-12.758,2-18.954,2.094c-1.741,2.665-3.56,5.312-5.281,7.979
		c8.837-0.228,17.178-0.953,23.616-2.304C139.09,371.673,139.399,369.037,138.547,366.36z"/>
	<g>
		<path fill="#E1116F" d="M156.203,191.292c0,0,5.449-19.909,0.257-39.404c-4.888-18.351-40.725-18.655-66.092-8.495
			c-18.964-4.645-36.244,13.935-30.314,59.884c-18.452,11.194-12.638,36.261-14.556,38.848
			c-28.289,38.134,27.89,51.875,60.973,51.601c5.178,0.004,57.71-16.866,43.292-49.613c2.996-1.987,16.874-14.984,5.874-36.271
			C161.814,196.895,156.203,191.292,156.203,191.292z"/>
		<path fill="#83BACF" stroke="#83BACF" stroke-miterlimit="10" d="M127.8,243.001c34.757,3.61,53.956,61.995,53.77,72.48
			c-0.275,15.4-23.375,28.6-29.976,29.15c-4.13,0.344-10.725-12.926-5.5-16.226c2.37-1.496,11.825-6.508,13.109-10.724
			c1.283-4.217-10.909-11.826-12.467-10.634c-4.351,3.331,1.646,41.263-0.744,55.706c-2.395,14.444-90.862,9.744-90.862,2.069
			c0-7.673,0-14.594,0-18.655c0-4.064-30.311-7.037-30.917-24.288c-0.248-7.078,16.01-54.278,31.411-69.62
			C72.894,235.058,93.045,239.391,127.8,243.001z"/>
		<g>
			<defs>
				<path id="SVGID_59_" d="M151.888,166.832c-14.773,9.17-47.893,1.951-55.892-1.695c-1.124,12.921-2.58,28.584-12.608,32.073
					c-11.445-11.312-10.27,15.836-1.197,11.587c1.348,12.923-2.752,33.273-2.477,35.198c1.237,5.363,41.571,10.188,41.638,2.694
					c0.042-4.745-1.097-7.19,1.106-9.945c3.129-3.905,14.993-1.897,22.938-8.834C153.344,220.971,153.636,188.053,151.888,166.832z"
					/>
			</defs>
			<use xlink:href="#SVGID_59_"  overflow="visible" fill="#79304A"/>
			<clipPath id="SVGID_2_">
				<use xlink:href="#SVGID_59_"  overflow="visible"/>
			</clipPath>
			<g clip-path="url(#SVGID_2_)">
				<g>
					<path fill="#E1116F" d="M139.51,206.961c-0.418,3.803-6.489,3.69-7.805,2.589c-1.312-1.098,0.739-24.399,2.342-19.452
						C134.369,200.592,139.51,206.961,139.51,206.961z"/>
				</g>
				<g>
					<defs>
						<path id="SVGID_61_" d="M108.851,197.394c0.025,1.04,2.986,1.817,6.621,1.74c3.633-0.077,6.558-0.979,6.535-2.018
							c-0.021-1.039-2.914-2.741-6.546-2.664C111.824,194.527,108.829,196.356,108.851,197.394z"/>
					</defs>
					<use xlink:href="#SVGID_61_"  overflow="visible" fill="#FFFFFF"/>
					<clipPath id="SVGID_4_">
						<use xlink:href="#SVGID_61_"  overflow="visible"/>
					</clipPath>
					<path clip-path="url(#SVGID_4_)" fill="#000100" d="M110.656,197.273c0.237,1.812,2.06,3.062,4.066,2.797
						c2.009-0.264,3.441-1.944,3.203-3.753c-0.237-1.809-2.06-3.062-4.064-2.8C111.853,193.784,110.417,195.465,110.656,197.273z"/>
					<use xlink:href="#SVGID_61_"  overflow="visible" fill="none" stroke="#000100" stroke-width="0.636" stroke-miterlimit="10"/>
				</g>
				<g>
					<defs>
						<path id="SVGID_63_" d="M143.678,194.183c0.124,1.03,3.148,1.516,6.756,1.089c3.609-0.428,6.434-1.614,6.311-2.646
							c-0.123-1.033-3.077-2.44-6.687-2.012C146.45,191.045,143.556,193.15,143.678,194.183z"/>
					</defs>
					<use xlink:href="#SVGID_63_"  overflow="visible" fill="#FFFFFF"/>
					<clipPath id="SVGID_6_">
						<use xlink:href="#SVGID_63_"  overflow="visible"/>
					</clipPath>
					<path clip-path="url(#SVGID_6_)" fill="#000100" d="M145.79,193.974c0.412,1.778,2.347,2.849,4.318,2.389
						c1.974-0.46,3.236-2.269,2.824-4.05c-0.415-1.774-2.349-2.845-4.319-2.387C146.642,190.384,145.378,192.196,145.79,193.974z"/>
					<use xlink:href="#SVGID_63_"  overflow="visible" fill="none" stroke="#000100" stroke-width="0.636" stroke-miterlimit="10"/>
				</g>
				<path fill="none" stroke="#E1116F" stroke-width="1.65" stroke-linecap="round" stroke-miterlimit="10" d="M106.618,190.927
					c6.163-4.746,14.076-1.985,14.076-1.985"/>
				<path fill="none" stroke="#E1116F" stroke-width="1.65" stroke-linecap="round" stroke-miterlimit="10" d="M143.771,186.47
					c6.164-4.744,14.076-1.986,14.076-1.986"/>
			</g>
		</g>
		<g>
			<path fill-rule="evenodd" clip-rule="evenodd" d="M125.908,220.503c0.388-0.674,1.086-0.059,1.546,0.072
				c2.016,0.576,4.158,0.633,8.651,0.464c3.898-0.146,8.002-2.327,8.318-2.557c0.455-0.334,0.821-0.673,0.951-0.599
				c0.981,0.379-0.416,1.475-1.185,1.813c-1.176,0.745-3.524,1.295-4.364,1.507c-2.428,0.608-4.215,0.678-4.402,0.688
				c-1.161,0.059-2.021,0.155-3.325,0.059c-0.804-0.06-3.473-0.138-5.297-0.91C126.47,220.899,125.79,220.683,125.908,220.503z"/>
			<path fill-rule="evenodd" clip-rule="evenodd" d="M138.027,223.987c0.169,0.434-1.614,0.906-2.417,0.885
				c-0.726-0.02-1.977-0.048-1.764-0.593c0.513-0.552,1.41,0.02,2.261-0.105C136.853,224.064,137.57,223.352,138.027,223.987z"/>
		</g>
	</g>
	<path opacity="0.25" fill="#010101" d="M376.831,259.918c-9.329-5.846-23.097-6.677-31.623-6.537
		c-0.011-7.878-0.428-25.467,0.939-30.377c-0.44,1.595-0.715,5.091-0.878,9.437c8.073-2.487,21.674-11.136,14.754-41.426
		c2.812-5.845,14.028-27.099-13.91-30.645c-0.526-5.604-12.652-22.515-26.929-10.222c-53.378-32.237-56.693,14.935-46.305,37.127
		c0.019-0.148,0.041-0.3,0.06-0.449c-0.443,3.502-0.73,6.918-0.886,10.229c-2.808,0.014-5.021,1.939-4.761,4.308l0.923,8.401
		c0.204,1.84,1.877,3.361,4.046,3.782c0.944,13.298,3.478,23.448,4.498,28.232c2.039,9.518,20.93,8.71,23.319,10.331
		c1.92,1.299,1.54,6.1,1.386,10.242c-7.89-0.705-33.71-1.979-37.142,11.128c-0.487,1.866-0.437,7.8-0.025,15.829
		c-4.983-3.6-9.104-7.054-11.47-9.548c-0.389-0.409-1.819-0.173-3.729,0.534c0.066-3.125,0.604-7.592,1.059-9.452
		c0.467-1.917,1-4.39,1.232-6.617c1.17-0.325,2.287-0.863,3.29-1.557c0.003-0.004,0.006-0.006,0.011-0.008
		c11.609-8.051,10.055-16.287,9.392-18.432c-0.139-0.453-0.115-0.934,0.092-1.36c0.423-0.876,2.202-2.457,3.005-3.2
		c0.215-0.199,0.367-0.438,0.47-0.691c0.013-0.006,0.03-0.003,0.042-0.012c0.172-0.123,0.193-0.43,0.091-0.85
		c-0.027-0.304-0.136-0.601-0.317-0.869c-0.25-0.546-0.61-1.166-1.064-1.796c-0.333-0.463-0.676-0.871-1.01-1.223
		c-0.031-0.053-0.071-0.107-0.102-0.161c-0.27-0.476-0.713-0.778-1.204-0.89c-0.26-0.124-0.477-0.161-0.611-0.064
		c-0.01,0.007-0.012,0.021-0.021,0.029c-0.21,0.024-0.421,0.081-0.624,0.18c-0.981,0.478-3.075,1.602-4.043,1.678
		c-0.475,0.038-0.933-0.112-1.306-0.406c-1.76-1.389-8.886-5.82-20.588,2.11c-1.228,0.83-2.299,1.901-3.077,3.149
		c-0.368,0.592-0.677,1.219-0.893,1.888c-1.314,4.077-6.445,8.029-11.217,9.158c-3.896,0.916-7.714,2.144-11.189,4.132
		c-5.721,3.275-13.534,8.031-18.209,12.062c-2.409,1.65-1.945,6.516,4.108,15.353c6.054,8.835,11.421,12.479,13.831,10.828
		c5.427-2.896,12.66-8.442,17.779-12.594c0.015-0.011,0.028-0.021,0.041-0.032c0.18-0.145,0.338-0.31,0.513-0.459
		c1.309-1.113,2.525-2.316,3.649-3.608c1.73,3.523,3.882,7.483,5.644,10.634c-0.721,0.68-1.381,1.385-1.946,2.107
		c-1.708,1.404-3.198,2.953-4.18,4.561c0.304,8.708,15.555,25.074,26.809,34.446c2.808,2.338,6.091,4.733,9.718,7.102
		c1.666,14.569,3.517,26.905,4.971,30.479c3.965,9.762,108.022,14.301,110.309,1.554c0.97-5.416,2.551-23.933,2.952-44.148
		c5.315-8.959,8.902-18.854,10.586-28.344C400.082,278.101,389.563,266.243,376.831,259.918z M346.178,222.887
		c0-0.003,0.001-0.006,0.002-0.01c0.469-0.286,1.037-0.842,1.646-1.586C347.216,222.036,346.646,222.598,346.178,222.887z
		 M348.743,220.065c-0.116,0.166-0.23,0.329-0.346,0.485C348.513,220.395,348.627,220.23,348.743,220.065z M348.271,220.718
		c-0.126,0.168-0.25,0.331-0.374,0.485C348.021,221.05,348.146,220.886,348.271,220.718z M348.911,219.821
		c0.104-0.154,0.21-0.315,0.315-0.479C349.12,219.506,349.016,219.665,348.911,219.821z M349.431,219.021
		c0.095-0.151,0.189-0.306,0.283-0.463C349.62,218.716,349.525,218.869,349.431,219.021z M349.949,218.158
		c0.085-0.146,0.169-0.293,0.253-0.442C350.118,217.865,350.034,218.013,349.949,218.158z M350.462,217.24
		c0.073-0.136,0.146-0.273,0.218-0.412C350.608,216.968,350.535,217.104,350.462,217.24z M350.963,216.27
		c0.06-0.122,0.121-0.243,0.18-0.367C351.084,216.026,351.023,216.147,350.963,216.27z M351.446,215.249
		c0.046-0.101,0.092-0.2,0.137-0.303C351.538,215.049,351.492,215.148,351.446,215.249z M351.909,214.174
		c0.027-0.068,0.058-0.138,0.085-0.207C351.967,214.036,351.937,214.105,351.909,214.174z M353.451,207.984c0-0.008,0-0.015,0-0.022
		C353.451,207.97,353.451,207.977,353.451,207.984z M352.343,213.042c0.01-0.023,0.019-0.048,0.027-0.072
		C352.361,212.994,352.353,213.019,352.343,213.042z M353.447,207.097c-0.001-0.028-0.004-0.056-0.007-0.083
		C353.443,207.041,353.446,207.068,353.447,207.097z M353.357,206.256c-0.007-0.037-0.015-0.073-0.021-0.109
		C353.343,206.183,353.351,206.219,353.357,206.256z M353.173,205.473c-0.013-0.039-0.026-0.079-0.039-0.119
		C353.146,205.394,353.16,205.432,353.173,205.473z M352.888,204.755c-0.02-0.039-0.04-0.077-0.061-0.115
		C352.848,204.678,352.868,204.716,352.888,204.755z M352.493,204.11c-0.025-0.035-0.053-0.069-0.079-0.104
		C352.44,204.041,352.467,204.075,352.493,204.11z M351.979,203.548c-0.031-0.028-0.061-0.057-0.094-0.085
		C351.919,203.491,351.948,203.52,351.979,203.548z M349.556,202.44c0.011,0.002,0.021,0.005,0.032,0.008
		C349.576,202.445,349.566,202.442,349.556,202.44z M350.462,202.673c0.03,0.011,0.057,0.022,0.086,0.033
		C350.519,202.695,350.492,202.684,350.462,202.673z M351.237,203.017c0.034,0.019,0.065,0.04,0.101,0.061
		C351.303,203.057,351.271,203.035,351.237,203.017z M277.123,167.006c-0.318,1.054-0.618,2.105-0.902,3.152
		c0.284-1.049,0.58-2.101,0.897-3.157C277.12,167.003,277.121,167.004,277.123,167.006z M275.463,173.108
		c0.222-0.906,0.455-1.817,0.699-2.73C275.917,171.291,275.686,172.202,275.463,173.108z M275.3,173.789
		c-0.181,0.758-0.352,1.515-0.515,2.269C274.948,175.304,275.12,174.547,275.3,173.789z M273.329,184.02
		c-0.059,0.386-0.116,0.772-0.17,1.156C273.213,184.792,273.271,184.405,273.329,184.02z M274.606,176.882
		c-0.158,0.749-0.305,1.495-0.447,2.239C274.301,178.377,274.448,177.631,274.606,176.882z M273.984,180.043
		c-0.148,0.811-0.287,1.619-0.418,2.422C273.696,181.662,273.836,180.854,273.984,180.043z M245.777,264.843
		c-0.562,0.625-1.119,0.904-1.646,0.514C244.682,265.146,245.231,264.975,245.777,264.843z"/>
	<g>
		<g>
			<defs>
				<path id="SVGID_65_" d="M299.351,258.191c0,0-35.37-4.61-39.427,10.89c-1.987,7.602,4.951,82.67,8.919,92.429
					c3.965,9.762,108.022,14.3,110.31,1.553c2.28-12.747,7.96-98.053-6.361-107.327c-14.318-9.28-39.678-6.32-39.678-6.32
					L299.351,258.191z"/>
			</defs>
			<use xlink:href="#SVGID_65_"  overflow="visible" fill="#5CB990"/>
			<clipPath id="SVGID_8_">
				<use xlink:href="#SVGID_65_"  overflow="visible"/>
			</clipPath>
			<g clip-path="url(#SVGID_8_)">
				<path opacity="0.25" fill="#010101" d="M341.07,307.049c-6.329,4.643-51.259-9.675-54.922-2.912
					c-14.646-4.414-34.494-18.594-41.021-25.476c-1.278-1.345-13.771,4.248-17.782,10.822c0.304,8.707,15.555,25.073,26.81,34.445
					c17.407,14.5,53.005,31.231,76.952,29.995c32.578-1.687,53.407-32.567,58.282-60.054c4.135-23.309-10.862,7.18-28.52,4.379
					C352.149,296.865,347.399,302.404,341.07,307.049z"/>
			</g>
		</g>
		<g>
			<g>
				<g>
					<path fill="#F8F6F6" d="M272.728,162.59c-10.415,34.543-2.398,65.271-0.368,74.789c2.039,9.518,20.931,8.71,23.319,10.331
						c2.392,1.618,1.214,8.672,1.35,13.117c0.195,6.672,43.271-2.094,43.724-8.521c0.276-3.932-0.649-28.177,1.028-33.828
						c3.862-2.365,14.42-22.739-0.301-20.378c11.468-29.274-0.131-46.211-31.648-51.595
						C293.399,143.696,276.25,150.156,272.728,162.59z"/>
				</g>
				<g>
					<g>
						<defs>
							<path id="SVGID_67_" d="M321.512,203.26c-0.021,1.069-3.062,1.873-6.796,1.804c-3.732-0.069-6.741-0.991-6.718-2.058
								c0.018-1.071,2.985-2.824,6.714-2.754C318.443,200.324,321.529,202.192,321.512,203.26z"/>
						</defs>
						<use xlink:href="#SVGID_67_"  overflow="visible" fill="#FFFFFF"/>
						<clipPath id="SVGID_10_">
							<use xlink:href="#SVGID_67_"  overflow="visible"/>
						</clipPath>
						<path clip-path="url(#SVGID_10_)" fill="#000100" d="M319.361,203.258c-0.239,1.86-2.107,3.149-4.17,2.881
							c-2.062-0.268-3.541-1.989-3.298-3.847c0.24-1.861,2.108-3.15,4.172-2.884C318.124,199.677,319.602,201.397,319.361,203.258z"
							/>
						<use xlink:href="#SVGID_67_"  overflow="visible" fill="none" stroke="#000100" stroke-width="0.55" stroke-miterlimit="10"/>
					</g>
					<g>
						<defs>
							<path id="SVGID_69_" d="M284.462,200.563c-0.126,1.062-3.23,1.566-6.938,1.136c-3.709-0.433-6.612-1.645-6.49-2.704
								c0.128-1.062,3.156-2.514,6.866-2.083C281.607,197.346,284.589,199.502,284.462,200.563z"/>
						</defs>
						<use xlink:href="#SVGID_69_"  overflow="visible" fill="#FFFFFF"/>
						<clipPath id="SVGID_12_">
							<use xlink:href="#SVGID_69_"  overflow="visible"/>
						</clipPath>
						<path clip-path="url(#SVGID_12_)" fill="#000100" d="M282.683,200.125c-0.422,1.828-2.403,2.932-4.435,2.463
							c-2.025-0.467-3.323-2.325-2.906-4.147c0.419-1.831,2.404-2.935,4.43-2.467C281.799,196.44,283.101,198.299,282.683,200.125z"
							/>
						<use xlink:href="#SVGID_69_"  overflow="visible" fill="none" stroke="#000100" stroke-width="0.55" stroke-miterlimit="10"/>
					</g>
					<path fill="none" stroke="#F5C82D" stroke-width="2.2" stroke-linecap="round" stroke-miterlimit="10" d="M323.841,194.396
						c-6.338-4.862-14.459-2.008-14.459-2.008"/>
					<path fill="none" stroke="#F5C82D" stroke-width="2.2" stroke-linecap="round" stroke-miterlimit="10" d="M285.669,189.901
						c-6.34-4.86-14.465-2.004-14.465-2.004"/>
				</g>
				<path fill-rule="evenodd" clip-rule="evenodd" fill="#7B3655" d="M288.512,237.633c-0.223,0.554,2.052,1.199,3.079,1.188
					c0.932-0.01,2.537-0.018,2.277-0.725c-0.647-0.718-1.812-0.003-2.896-0.183C290.02,237.758,289.11,236.829,288.512,237.633z"/>
				<path fill="#E61C78" d="M296.735,196.33c1.559-0.198,1.498,16.259,2.507,22.243c0.723,4.284-11.674,1.451-10.853-0.499
					C290.196,213.78,293.656,194.904,296.735,196.33z"/>
				<path fill-rule="evenodd" clip-rule="evenodd" fill="#7B3655" d="M304.084,234.147c-0.482-0.874-1.394-0.102-1.99,0.057
					c-2.595,0.697-5.343,0.72-11.101,0.408c-4.994-0.273-10.214-3.158-10.609-3.461c-0.576-0.437-1.039-0.881-1.205-0.788
					c-1.267,0.466,0.5,1.9,1.477,2.354c1.494,0.977,4.494,1.734,5.562,2.023c3.103,0.831,5.391,0.961,5.636,0.978
					c1.486,0.104,2.585,0.243,4.26,0.151c1.033-0.062,4.458-0.104,6.813-1.053C303.354,234.645,304.229,234.378,304.084,234.147z"/>
			</g>
			<path fill="#F5C82D" d="M341.775,218.488c4.121-2.526,15.855-25.54-3.594-19.592c-3.982-6.562-8.685-15.664,2.105-19.229
				c-13.961-1.916-27.296,0.168-33.376-14.889c-10.964,1.644-26.912,7.964-34.192-2.179c-2.097,6.961-3.438,13.766-4.239,20.275
				c-10.389-22.192-7.072-69.365,46.306-37.128c14.276-12.293,26.402,4.617,26.929,10.222c27.938,3.546,16.721,24.801,13.91,30.646
				c6.92,30.289-6.681,38.938-14.755,41.425C341.036,223.6,341.318,220.03,341.775,218.488z"/>
			<g>
				<path fill="none" stroke="#7B3655" stroke-width="2.2" stroke-linecap="round" stroke-miterlimit="10" d="M306.512,213.102
					l13.894,1.407c2.436,0.243,4.663-0.973,5.278-2.883l2.588-8.044c0.787-2.441-1.339-4.965-4.452-5.278l-17.409-1.762
					c-3.111-0.312-5.698,1.728-5.419,4.275l0.923,8.403C302.137,211.219,304.075,212.854,306.512,213.102z"/>
				<path fill="none" stroke="#7B3655" stroke-width="2.2" stroke-linecap="round" stroke-miterlimit="10" d="M268.413,209.243
					l13.892,1.407c2.438,0.246,4.667-0.967,5.285-2.882l2.585-8.044c0.788-2.442-1.343-4.962-4.452-5.276l-17.408-1.765
					c-3.113-0.314-5.702,1.729-5.422,4.279l0.923,8.401C264.037,207.359,265.977,208.996,268.413,209.243z"/>
				
					<line fill="none" stroke="#7B3655" stroke-width="2.2" stroke-linecap="round" stroke-miterlimit="10" x1="301.131" y1="202.803" x2="290.312" y2="201.71"/>
			</g>
		</g>
		<g>
			<path fill="none" d="M276.832,171.259c0.275-1.029,0.572-2.058,0.884-3.095c0-0.002,0-0.002-0.004-0.002
				C277.402,169.198,277.107,170.229,276.832,171.259z"/>
			<path fill="none" d="M347.923,223.023c-0.422,0.454-0.812,0.808-1.148,1.017c0,0-0.004,0.002-0.004,0.005
				C347.11,223.838,347.501,223.481,347.923,223.023z"/>
		</g>
	</g>
	<g>
		<g>
			<g>
				<path fill="#F8F6F6" d="M244.918,278.869c-0.635-1.763,0.191-9.766,0.839-12.426c1.05-4.308,2.446-11.435-0.025-12.253
					c-1.438-0.477-4.107,8.891-6.204,6.579c-4.549-5.002-2.581-26.533-8.871-17.666c-5.745,8.104-4.826,16.357-3.687,21.707
					c1.139,5.35,9.795,23.765,9.795,23.765S245.551,280.63,244.918,278.869z"/>
				<g>
					<path fill="#F8F6F6" stroke="#83BACF" stroke-width="1.1" stroke-miterlimit="10" d="M223.668,276.248
						c3.109-2.521,5.629-5.639,7.896-8.939c2.771-4.045,8.31-7.4,12.589-7.156c2.179,0.125,4.334-0.641,6.128-1.884
						c11.621-8.054,10.064-16.294,9.401-18.438c-0.139-0.454-0.114-0.934,0.093-1.361c0.422-0.876,2.202-2.457,3.005-3.2
						c0.732-0.679,0.823-1.787,0.189-2.563c-0.375-0.456-0.744-0.95-1.103-1.474c-0.362-0.525-0.687-1.049-0.978-1.563
						c-0.494-0.87-1.561-1.187-2.46-0.746c-0.982,0.479-3.076,1.602-4.044,1.678c-0.475,0.038-0.933-0.112-1.305-0.405
						c-1.76-1.39-8.887-5.82-20.589,2.109c-1.806,1.226-3.298,2.958-3.969,5.037c-1.315,4.078-6.445,8.029-11.218,9.159
						c-3.895,0.916-7.714,2.143-11.188,4.131c-5.722,3.275-13.534,8.032-18.209,12.062c-2.41,1.651-1.945,6.517,4.107,15.353
						c6.055,8.836,11.421,12.479,13.832,10.828C211.288,285.971,218.546,280.401,223.668,276.248z"/>
					<path fill="#83BACF" d="M223.668,276.248c3.109-2.521,5.629-5.639,7.896-8.939c2.771-4.045,8.31-7.4,12.589-7.156
						c2.179,0.125,4.334-0.641,6.128-1.884c11.621-8.054,10.064-16.294,9.401-18.438c-0.139-0.454-19.812,2.638-31.159-2.489
						c-1.315,4.078-6.445,8.029-11.218,9.159c-3.895,0.916-7.714,2.143-11.188,4.131c-5.722,3.275-13.534,8.032-18.209,12.062
						c-2.41,1.651-1.945,6.517,4.107,15.353c6.055,8.836,11.421,12.479,13.832,10.828
						C211.288,285.971,218.546,280.401,223.668,276.248z"/>
					<path fill="#5CB990" stroke="#5CB990" stroke-width="1.1" stroke-miterlimit="10" d="M233.095,231.928
						c-0.203,0.131-0.398,0.239-0.604,0.377c-1.807,1.224-3.297,2.958-3.969,5.037c-1.315,4.078-6.445,8.029-11.218,9.159
						c-3.895,0.916-7.714,2.143-11.188,4.131c-0.193,0.11-0.408,0.238-0.608,0.353c1.366,3.898,3.922,8.813,7.364,13.839
						c3.444,5.026,7.104,9.184,10.247,11.865c0.178-0.145,0.372-0.299,0.548-0.439c3.109-2.522,5.63-5.64,7.896-8.939
						c2.771-4.044,8.311-7.401,12.587-7.155c2.18,0.124,4.335-0.642,6.13-1.885c0.205-0.141,0.375-0.284,0.569-0.425
						c-3.16-2.68-6.864-6.872-10.345-11.953C237.023,240.812,234.45,235.841,233.095,231.928z"/>
					
						<ellipse transform="matrix(0.8109 -0.5852 0.5852 0.8109 -86.1631 196.6375)" fill="#F8F6F6" stroke="#A2D7E4" stroke-width="1.1" stroke-miterlimit="10" cx="261.182" cy="231.642" rx="1.008" ry="3.606"/>
				</g>
				<path fill="#F8F6F6" d="M244.918,278.869c-0.635-1.763,0.191-9.766,0.839-12.426c1.05-4.308-4.133-3.362-6.229-5.674
					c-4.549-5.002,0.738-22.751-8.871-17.666c-12.054,6.379-6.96,16.43-5.82,21.779c1.139,5.35,11.929,23.692,11.929,23.692
					S245.551,280.63,244.918,278.869z"/>
			</g>
			<path fill="#5CB990" d="M344.571,279.667c-6.33,4.643-51.46,14.407-55.123,21.17c-14.646-4.414-34.494-18.594-41.02-25.476
				c-1.278-1.345-13.771,4.248-17.783,10.822c0.305,8.707,15.555,25.073,26.81,34.445c17.407,14.5,53.005,31.231,76.953,29.994
				c32.577-1.687,53.406-32.566,58.281-60.053c4.135-23.309-17.52-37.054-35.177-39.854
				C348.793,249.332,350.9,275.022,344.571,279.667z"/>
		</g>
	</g>
	<g>
		<path fill="none" d="M126.633,384.148c5.176-2.438,9.389-5.985,11.295-10.02c-6.438,1.351-14.779,2.076-23.616,2.304
			c-1.257,1.946-2.465,3.902-3.547,5.886C114.56,384.715,121.026,386.789,126.633,384.148z"/>
		<path fill="none" d="M107.495,378.8c0.53-0.766,1.078-1.528,1.626-2.291c-1.488,0.007-2.981,0.001-4.476-0.019
			C105.303,377.38,106.235,378.173,107.495,378.8z"/>
		<path fill="none" d="M151.137,311.449c-2.059,1.575-1.801,10.896-1.21,21.809c0.172-0.164,0.356-0.318,0.567-0.451
			c2.369-1.496,11.825-6.508,13.108-10.724C164.887,317.866,152.694,310.257,151.137,311.449z"/>
		<path opacity="0.25" fill="#010101" d="M150.704,347.564c0.432-0.428,0.866-0.853,1.309-1.264
			c-0.53-0.698-1.036-1.482-1.486-2.334C150.591,345.173,150.65,346.374,150.704,347.564z"/>
		<path opacity="0.25" fill="#010101" d="M137.928,374.129c-1.906,4.034-6.119,7.582-11.295,10.02
			c-5.606,2.641-12.073,0.566-15.868-1.83c1.082-1.983,2.29-3.939,3.547-5.886c-1.716,0.044-3.448,0.068-5.19,0.076
			c-0.548,0.763-1.096,1.525-1.626,2.291c-1.26-0.627-2.192-1.42-2.85-2.31c-3.661-0.046-7.319-0.164-10.879-0.35
			c0.904,3.815,2.943,7.719,5.692,11.271c8.827,11.404,24.621,11.625,36.445,4.34c9.663-5.952,15.401-15.179,14.53-24.892
			c-0.015,0.098-0.026,0.201-0.043,0.295C149.859,370.369,145.06,372.632,137.928,374.129z"/>
		<path opacity="0.25" fill="#010101" d="M156.243,332.476c-0.873,0.149-5.886,0.984-8.772,1.841
			c-2.886,0.859-8.181,4.507-9.917,5.508c-1.734,0.996-6.035,2.576-7.575,4.369c-0.198,0.231-0.392,0.509-0.578,0.817
			c-1.343-0.116-2.655-0.078-3.889,0.148c-6.831,1.26-13.241,7.514-12.443,13.407c-3.503-0.05-7.258-1.128-10.951,0.602
			c-7.981,3.741-9.951,10.218-8.351,16.973c3.56,0.186,7.218,0.304,10.879,0.35c-4.537-6.137,4.132-16.881,10.14-9.593
			c-1.165,3.355-3.417,6.482-5.664,9.611c1.742-0.008,3.475-0.032,5.19-0.076c1.722-2.666,3.54-5.313,5.281-7.979
			c6.196-0.094,12.637-1.392,18.954-2.094c0.853,2.677,0.543,5.312-0.619,7.769c7.132-1.497,11.932-3.76,12.464-6.975
			c0.017-0.094,0.028-0.197,0.043-0.295c-0.389-4.339-2.094-8.775-5.363-13.061c0.081-0.096,0.163-0.189,0.243-0.284
			c1.273-1.538,3.234-3.805,5.39-5.95c-0.054-1.19-0.113-2.392-0.178-3.598c0.45,0.852,0.956,1.636,1.486,2.334
			c2.052-1.911,4.19-3.574,6.031-4.312C159.146,341.544,157.115,332.323,156.243,332.476z M118.433,358.815
			c0.284-3.349,5.29-5.999,9.685-6.09c0.56,0.459,1.455,0.76,1.714,0.485c0.242-0.25-0.237,1.347,0.844,2.058
			c1.076,0.72,1.842,0.13,2.565-0.034c0.725-0.167-0.213,1.453,0.964,2.432c1.175,0.978,1.413,0.755,1.635,1.033
			c0.223,0.275-0.905,0.844,0.442,1.94c0.277,0.225,0.492,0.36,0.678,0.435C131.47,363.264,117.75,366.978,118.433,358.815z"/>
	</g>
	<g>
		<g>
			<path fill="#E61C78" d="M116.293,365.154c6.196-0.095,12.636-1.392,18.953-2.094c2.254,7.072-3.584,13.866-11.914,17.788
				c-5.606,2.641-12.073,0.566-15.867-1.83C110.028,374.318,113.281,369.764,116.293,365.154 M111.484,363.598
				c-1.447,4.173-4.58,7.992-7.289,11.902C94.238,370.547,104.606,355.253,111.484,363.598 M115.133,355.516
				c0.356-4.203,8.156-7.322,12.844-5.635c3.601,1.301,4.52,4.178,6.423,7.589C129.531,359.577,114.416,364.07,115.133,355.516
				 M109.769,355.267c-3.503-0.05-7.258-1.128-10.951,0.602c-12.488,5.854-10.274,18.403-2.658,28.243
				c8.826,11.403,24.621,11.625,36.444,4.34c14.354-8.841,20.063-24.902,8.298-39.055c-4.337-5.209-12.502-8.679-18.689-7.537
				C115.381,343.119,108.97,349.373,109.769,355.267"/>
			<path fill="#FFFFFF" d="M129.444,386.861c0.305,0.895,0.531,0.882,0.682,0.864c0.204-0.025,0.252-0.607,0.017-1.185
				c-0.067-0.175-0.38-0.826-0.677-0.727C129.363,385.842,129.259,386.319,129.444,386.861"/>
			<path fill="#FFFFFF" d="M125.752,382.114c0.894,0.312,1.018,0.125,1.097-0.007c0.11-0.175-0.321-0.572-0.919-0.746
				c-0.177-0.049-0.886-0.209-0.99,0.086C124.903,381.55,125.211,381.924,125.752,382.114"/>
			<path fill="#FFFFFF" d="M125.967,386.129c0.749-0.568,0.664-0.78,0.599-0.916c-0.083-0.189-0.652-0.051-1.127,0.354
				c-0.143,0.116-0.662,0.626-0.477,0.875C125.024,386.529,125.507,386.475,125.967,386.129"/>
			<path fill="#FFFFFF" d="M137.926,383.712c0.749-0.576,0.666-0.784,0.605-0.921c-0.09-0.191-0.659-0.053-1.134,0.354
				c-0.143,0.12-0.662,0.623-0.478,0.872C136.982,384.104,137.468,384.056,137.926,383.712"/>
			<path fill="#FFFFFF" d="M115.395,385.574c0.331-0.886,0.147-1.021,0.021-1.099c-0.177-0.114-0.581,0.311-0.767,0.905
				c-0.056,0.176-0.224,0.881,0.066,0.994C114.818,386.414,115.196,386.109,115.395,385.574"/>
			<path fill="#FFFFFF" d="M131.905,386.95c0.446-0.832,0.281-0.987,0.165-1.086c-0.158-0.132-0.621,0.228-0.879,0.796
				c-0.079,0.169-0.343,0.841-0.072,0.991C131.215,387.702,131.635,387.456,131.905,386.95"/>
			<path fill="#FFFFFF" d="M131.731,379.249c0.447-0.832,0.28-0.99,0.166-1.086c-0.158-0.133-0.616,0.227-0.88,0.794
				c-0.085,0.169-0.345,0.839-0.069,0.992C131.042,379.999,131.46,379.754,131.731,379.249"/>
			<path fill="#FFFFFF" d="M121.162,387.596c0.479-0.812,0.321-0.979,0.212-1.08c-0.154-0.138-0.63,0.207-0.912,0.759
				c-0.088,0.167-0.374,0.83-0.11,0.991C120.445,388.322,120.875,388.088,121.162,387.596"/>
			<path fill="#FFFFFF" d="M120.36,386.021c0.518-0.792,0.367-0.962,0.263-1.068c-0.15-0.147-0.639,0.173-0.95,0.716
				c-0.089,0.16-0.412,0.807-0.155,0.98C119.609,386.708,120.048,386.496,120.36,386.021"/>
			<path fill="#FFFFFF" d="M135.525,375.96c0.76-0.559,0.68-0.772,0.617-0.91c-0.085-0.188-0.657-0.059-1.138,0.341
				c-0.146,0.119-0.67,0.615-0.484,0.869C134.582,376.347,135.067,376.301,135.525,375.96"/>
			<path fill="#FFFFFF" d="M143.986,367.734c0.941,0.038,1.009-0.177,1.05-0.321c0.052-0.205-0.479-0.458-1.102-0.445
				c-0.185,0.001-0.907,0.062-0.922,0.374C143.006,367.445,143.413,367.714,143.986,367.734"/>
			<path fill="#FFFFFF" d="M138.23,369.481c0.607-0.719,0.481-0.905,0.391-1.026c-0.127-0.164-0.654,0.092-1.031,0.591
				c-0.112,0.147-0.509,0.75-0.274,0.956C137.397,370.075,137.859,369.914,138.23,369.481"/>
			<path fill="#FFFFFF" d="M142.056,370.725c-0.265-0.911-0.489-0.907-0.639-0.896c-0.207,0.015-0.287,0.595-0.08,1.186
				c0.063,0.174,0.349,0.84,0.649,0.756C142.089,371.745,142.214,371.27,142.056,370.725"/>
			<path fill="#FFFFFF" d="M137.751,380.387c-0.708-0.624-0.898-0.498-1.021-0.41c-0.165,0.126,0.081,0.655,0.572,1.04
				c0.143,0.12,0.74,0.527,0.95,0.293C138.324,381.228,138.181,380.77,137.751,380.387"/>
			<path fill="#FFFFFF" d="M144.95,365.472c-0.617-0.714-0.821-0.616-0.953-0.547c-0.182,0.103-0.01,0.66,0.425,1.106
				c0.127,0.136,0.663,0.621,0.9,0.423C145.402,366.386,145.324,365.905,144.95,365.472"/>
			<path fill="#FFFFFF" d="M141.062,377.67c-0.92-0.227-1.032-0.026-1.098,0.107c-0.091,0.188,0.373,0.541,0.989,0.657
				c0.178,0.035,0.898,0.122,0.975-0.179C141.956,378.151,141.611,377.808,141.062,377.67"/>
			<path fill="#FFFFFF" d="M141.7,375.733c-0.584-0.74-0.796-0.654-0.929-0.588c-0.185,0.093-0.033,0.663,0.382,1.122
				c0.123,0.143,0.64,0.649,0.884,0.459C142.124,376.66,142.06,376.177,141.7,375.733"/>
			<path fill="#FFFFFF" d="M139.942,375.913c-0.552-0.764-0.766-0.686-0.901-0.627c-0.19,0.085-0.067,0.659,0.325,1.142
				c0.117,0.145,0.608,0.674,0.863,0.498C140.315,376.863,140.276,376.377,139.942,375.913"/>
			<path fill="#FFFFFF" d="M108.056,384.735c0.947-0.049,0.998-0.27,1.022-0.42c0.032-0.203-0.518-0.409-1.135-0.344
				c-0.184,0.023-0.901,0.144-0.889,0.457C107.062,384.536,107.491,384.765,108.056,384.735"/>
			<path fill="#FFFFFF" d="M111.984,389.582c0.76-0.561,0.678-0.774,0.617-0.91c-0.086-0.19-0.656-0.059-1.137,0.338
				c-0.142,0.12-0.668,0.615-0.485,0.87C111.042,389.967,111.524,389.921,111.984,389.582"/>
			<path fill="#FFFFFF" d="M107.519,385.845c0.757-0.562,0.674-0.771,0.617-0.907c-0.086-0.189-0.66-0.058-1.139,0.338
				c-0.143,0.12-0.667,0.618-0.484,0.87C106.572,386.232,107.057,386.186,107.519,385.845"/>
			<path fill="#FFFFFF" d="M114.689,383.103c0.612-0.721,0.481-0.906,0.391-1.028c-0.127-0.164-0.65,0.094-1.031,0.591
				c-0.108,0.15-0.508,0.751-0.276,0.957C113.858,383.693,114.319,383.539,114.689,383.103"/>
			<path fill="#FFFFFF" d="M118.518,384.341c-0.264-0.909-0.489-0.903-0.644-0.895c-0.206,0.019-0.282,0.599-0.071,1.187
				c0.057,0.174,0.344,0.842,0.643,0.759C118.549,385.362,118.675,384.893,118.518,384.341"/>
			<path fill="#FFFFFF" d="M124.933,390.051c-0.915-0.229-1.026-0.031-1.091,0.104c-0.091,0.189,0.371,0.546,0.983,0.659
				c0.188,0.037,0.902,0.124,0.982-0.179C125.833,390.529,125.488,390.185,124.933,390.051"/>
			<path fill="#FFFFFF" d="M117.519,391.287c-0.917-0.223-1.026-0.028-1.095,0.108c-0.089,0.188,0.375,0.544,0.986,0.659
				c0.184,0.033,0.902,0.123,0.979-0.18C118.416,391.771,118.072,391.43,117.519,391.287"/>
			<path fill="#FFFFFF" d="M118.165,389.351c-0.588-0.74-0.797-0.648-0.931-0.584c-0.188,0.091-0.038,0.661,0.377,1.126
				c0.128,0.14,0.639,0.645,0.89,0.453C118.582,390.281,118.519,389.797,118.165,389.351"/>
			<path fill="#FFFFFF" d="M116.4,389.53c-0.548-0.764-0.762-0.682-0.898-0.625c-0.195,0.086-0.068,0.658,0.325,1.141
				c0.119,0.148,0.605,0.677,0.865,0.499C116.777,390.481,116.737,389.998,116.4,389.53"/>
		</g>
		<path fill="#7B3655" d="M152.943,329.176c-0.873,0.149-5.886,0.983-8.772,1.841c-2.886,0.859-8.181,4.507-9.917,5.508
			c-1.734,0.996-6.035,2.576-7.575,4.369c-1.539,1.797-2.764,6.209-2.307,7.944c0.19,0.728,1.8,1.455,2.159,1.073
			c0.242-0.25-0.237,1.346,0.844,2.058c1.076,0.72,1.842,0.13,2.564-0.035c0.726-0.166-0.212,1.454,0.965,2.433
			c1.175,0.978,1.413,0.755,1.634,1.033c0.224,0.275-0.904,0.844,0.443,1.94c1.05,0.852,1.229,0.5,2.184-0.153
			c0.949-0.658,4.144-3.704,6.849-6.973c2.707-3.268,8.505-9.83,12.729-11.526C155.847,338.244,153.815,329.023,152.943,329.176z"/>
	</g>
	<path fill="#83BACF" d="M181.569,315.481c-0.275,15.4-23.65,28.325-29.976,29.15c-4.109,0.536-10.725-15.125-8.25-16.226
		c2.562-1.139,14.575-6.508,15.859-10.724C160.486,313.466,181.756,304.996,181.569,315.481z"/>
	<path opacity="0.25" d="M122.637,302.431c-0.756-2.405-4.302-3.796-6.506-4.628c-8.202-3.096-19.325-3.982-30.076-3.471
		c-6.573,0.312-10.924,0.771-16.194,2.024c-2.383,0.568-4.619,1.171-6.796,2.17c-2.108,0.968-4.307,1.922-4.917,4.047
		c-0.419,1.461-0.187,3.846,0,5.785c0.544,5.669,2.187,10.403,4.194,14.026c2.807,5.062,7.262,9.354,12.868,11.566
		c0.072,0.029,0.158,0.052,0.232,0.08c-1.294,1.588-3.88,2.876-1.674,2.763c2.823-0.143,9.957,2.005,13.062,2.338
		c3.737,0.398,10.794,1.863,10.794,1.863c0.987-0.042,0.595-1.466-0.441-1.794c-0.146-0.047,6.358,0.673,7.917,0.517
		c1.563-0.156,0.626-1.697-0.144-1.861c0.989-0.074,1.623,0.051,1.674-0.922c0.066-1.332-1.113-1.372-1.89-1.588
		c0.056-0.09-1.126-0.231-2.895-0.393c0.997-0.195,1.96-0.425,2.859-0.713c3.243-1.037,6.206-3.06,8.532-5.205
		c5.214-4.812,8.516-11.656,9.398-20.823C122.785,306.677,123.136,304.018,122.637,302.431z"/>
	<path fill="#7B3655" d="M74.159,336.907c-2.824,0.144-2.051-5.814,0.454-5.817c2.506-0.001,7.315,0.358,10.348,0.607
		c0.428,0.034,17.793,1.108,17.58,1.45c0.776,0.216,1.956,0.255,1.89,1.587c-0.051,0.973-0.685,0.848-1.674,0.922
		c0.771,0.164,1.707,1.705,0.144,1.861c-1.559,0.156-8.062-0.563-7.917-0.517c1.036,0.328,1.429,1.752,0.441,1.794
		c0,0-6.993-0.687-10.729-1.085C81.589,337.377,76.982,336.764,74.159,336.907z"/>
	<ellipse fill-rule="evenodd" clip-rule="evenodd" fill="#F8F6F6" cx="88.344" cy="301.869" rx="31.075" ry="8.662"/>
	<ellipse fill-rule="evenodd" clip-rule="evenodd" fill="#F5C82D" cx="88.344" cy="306.819" rx="31.075" ry="8.662"/>
	<g>
		<path fill="#7B3655" d="M79.129,303.44c0.824,0.087,0.912-0.017,0.963-0.088c0.071-0.099-0.359-0.268-0.909-0.308
			c-0.163-0.012-0.802-0.034-0.856,0.123C78.308,303.223,78.63,303.387,79.129,303.44z"/>
		<path fill="#7B3655" d="M81.519,306.325c0.771-0.19,0.744-0.305,0.719-0.381c-0.036-0.105-0.555-0.107-1.05,0.034
			c-0.148,0.042-0.702,0.229-0.599,0.376C80.626,306.405,81.052,306.439,81.519,306.325z"/>
		<path fill="#7B3655" d="M78.434,303.931c0.77-0.19,0.743-0.306,0.717-0.382c-0.035-0.104-0.554-0.106-1.049,0.034
			c-0.147,0.043-0.704,0.229-0.599,0.376C77.538,304.011,77.966,304.045,78.434,303.931z"/>
		<path fill="#7B3655" d="M90.504,303.227c0.809,0.131,0.911,0.031,0.974-0.037c0.085-0.095-0.317-0.285-0.857-0.354
			c-0.161-0.021-0.794-0.076-0.873,0.077C89.721,302.966,90.017,303.147,90.504,303.227z"/>
		<path fill="#7B3655" d="M85.181,303.413c0.677-0.287,0.604-0.396,0.55-0.467c-0.076-0.098-0.582-0.03-1.01,0.173
			c-0.127,0.061-0.593,0.315-0.434,0.445C84.343,303.609,84.772,303.586,85.181,303.413z"/>
		<path fill="#7B3655" d="M88.227,304.487c-0.039-0.485-0.236-0.51-0.367-0.522c-0.183-0.018-0.367,0.265-0.31,0.582
			c0.018,0.095,0.126,0.461,0.402,0.454C88.048,305,88.252,304.78,88.227,304.487z"/>
		<path fill="#7B3655" d="M82.527,308.799c-0.483-0.396-0.673-0.355-0.795-0.325c-0.17,0.042-0.064,0.336,0.278,0.586
			c0.103,0.074,0.532,0.35,0.762,0.259C82.851,309.287,82.819,309.039,82.527,308.799z"/>
		<path fill="#7B3655" d="M91.803,302.211c-0.385-0.43-0.581-0.406-0.711-0.386c-0.177,0.027-0.143,0.327,0.139,0.604
			c0.084,0.082,0.445,0.388,0.692,0.316C92.008,302.72,92.036,302.472,91.803,302.211z"/>
		<path fill="#7B3655" d="M89.928,308.441c-0.745-0.223-0.881-0.138-0.966-0.078c-0.117,0.082,0.211,0.316,0.715,0.446
			c0.15,0.04,0.752,0.168,0.884,0.026C90.605,308.788,90.378,308.575,89.928,308.441z"/>
		<path fill="#7B3655" d="M85.939,307.835c-0.744-0.221-0.881-0.136-0.965-0.076c-0.117,0.082,0.21,0.316,0.715,0.446
			c0.15,0.038,0.752,0.167,0.881,0.026C86.615,308.184,86.389,307.971,85.939,307.835z"/>
		<path fill="#7B3655" d="M86.895,306.944c-0.355-0.439-0.554-0.419-0.684-0.401c-0.18,0.024-0.166,0.325,0.098,0.605
			c0.078,0.084,0.418,0.398,0.67,0.333C87.065,307.459,87.109,307.21,86.895,306.944z"/>
		<path fill="#7B3655" d="M85.338,306.826c-0.319-0.447-0.519-0.433-0.649-0.419c-0.182,0.019-0.192,0.319,0.047,0.607
			c0.071,0.087,0.386,0.409,0.643,0.352C85.467,307.346,85.531,307.099,85.338,306.826z"/>
		<path fill="#7B3655" d="M91.764,306.262c0.473-0.401,0.342-0.489,0.251-0.545c-0.128-0.078-0.568,0.082-0.854,0.355
			c-0.084,0.082-0.38,0.41-0.154,0.503C91.084,306.607,91.477,306.503,91.764,306.262z"/>
		<path fill="#7B3655" d="M95.431,303.41c-0.315-0.447-0.516-0.435-0.646-0.421c-0.183,0.019-0.195,0.319,0.042,0.608
			c0.07,0.087,0.383,0.41,0.639,0.353C95.556,303.93,95.622,303.683,95.431,303.41z"/>
		<path fill="#7B3655" d="M95.884,307.934c-0.315-0.447-0.516-0.435-0.647-0.421c-0.182,0.019-0.194,0.319,0.042,0.608
			c0.07,0.086,0.382,0.41,0.64,0.353C96.008,308.453,96.073,308.206,95.884,307.934z"/>
		<path fill="#7B3655" d="M96.806,306.898c-0.021-0.484-0.216-0.513-0.347-0.526c-0.182-0.021-0.377,0.259-0.332,0.577
			c0.013,0.096,0.107,0.462,0.382,0.461C96.604,307.409,96.818,307.191,96.806,306.898z"/>
	</g>
	<g>
		<g>
			<path fill="#FFFFFF" d="M83.854,292.132c10.751-0.512,21.875,0.375,30.076,3.472c2.204,0.831,5.75,2.222,6.506,4.627
				c0.499,1.587,0.149,4.247,0,5.783c-0.882,9.166-4.185,16.011-9.398,20.822c-2.326,2.146-5.288,4.168-8.531,5.206
				c-4.163,1.329-9.467,1.59-14.894,1.59c-5.364,0-10.907-0.422-14.604-1.88c-5.606-2.213-10.062-6.505-12.868-11.567
				c-2.008-3.622-3.65-8.357-4.194-14.026c-0.187-1.938-0.419-4.323,0-5.784c0.61-2.126,2.809-3.08,4.917-4.048
				c2.177-0.999,4.413-1.602,6.796-2.17C72.931,292.902,77.281,292.445,83.854,292.132z M64.479,297.626
				c-1.664,0.675-4.05,2.103-4.05,3.617c0,1.878,2.897,3.199,4.772,3.903c2.409,0.903,4.764,1.35,6.94,1.734
				c5.459,0.971,9.838,1.303,16.05,1.303c8.174,0,16.624-0.647,22.99-3.037c2.034-0.763,4.872-2.123,4.771-4.049
				c-0.103-1.979-3.13-3.102-5.493-3.904c-7.431-2.524-16.674-3.186-25.882-2.747C77.532,294.782,70.153,295.33,64.479,297.626z"/>
		</g>
	</g>
</g>
</svg>
