<?xml version="1.0" encoding="utf-8"?>
<!-- Generator: Adobe Illustrator 16.0.0, SVG Export Plug-In . SVG Version: 6.00 Build 0)  -->
<!DOCTYPE svg PUBLIC "-//W3C//DTD SVG 1.1//EN" "http://www.w3.org/Graphics/SVG/1.1/DTD/svg11.dtd">
<svg version="1.1" id="Ebene_1" xmlns="http://www.w3.org/2000/svg" xmlns:xlink="http://www.w3.org/1999/xlink" x="0px" y="0px"
	 width="425.197px" height="425.197px" viewBox="0 0 425.197 425.197" enable-background="new 0 0 425.197 425.197"
	 xml:space="preserve">
<g>
	<g>
		<path opacity="0.25" d="M108.442,360.319c-22.172-6.526-37.757-21.951-53.207-41.591c-15.366-19.533-14.751-40.199-9.168-48.625
			c1.228-1.852,2.69-3.121,4.28-3.647c2.152-0.713,4.714-2.674,7.743-4.448c-6.498,2.207-11.963,5.141-14.189,9.005
			c-6.642,3.502-10.178,16.104-0.788,33.347c1.922,13.662,5.156,28.856,6.744,44.11c1.492,14.343,2.021,33.134,2.007,34.062
			c-0.105,8.148,102.257,19.206,104.04-4.56c0.266-3.544,0.837-8.633,1.582-14.64c0.024-0.194,0.047-0.38,0.071-0.576
			C138.413,363.661,118.66,363.327,108.442,360.319z"/>
		<path opacity="0.25" d="M101.834,293.6c3.645,7.28,11.48,24.974,31.283,34.102c6.501,2.249,17.274,3.674,28.452,4.605
			c3.255-24.463,6.387-49.355,4.931-53.514c-3.863-11.044-25.969-12.672-38.933-12.65c0.269-2.685,0.427-3.827,1.896-4.717
			c2.322-1.403,21.06,0.287,23.43-8.548c1.174-4.392,3.58-13.806,5.001-26.188c0.1,2.071,0.281,4.335,0.589,6.915
			c0.668-16.194,7.562-31.398,4.663-50.286c-4.224-27.493-31.729-37.255-56.114-22.527c-1.182,0.794-2.731,2.98-2.638,5.117
			c-23.254-6.19-28.705,20.576-27.593,41.155c0.023,0.442,0.049,0.883,0.079,1.324c0.004,0.053,0.006,0.107,0.009,0.16
			c0.009,0.101,0.018,0.19,0.026,0.285c0.976,12.899,5.305,25.575,11.747,30.763c0.007,0.838,0.017,1.681,0.027,2.522
			c0.065,5.165,0.169,10.262,0.238,13.929c-4.012,0.389-11.137,1.219-18.602,2.744C78.551,259.769,88.884,267.743,101.834,293.6z"/>
		<path fill="#E61C78" stroke="#E61C78" stroke-miterlimit="10" d="M38.019,268.009c3.822-14.159,49.2-17.186,49.2-17.186
			l25.812,10.706c0,0,42.88-3.477,48.407,12.327c2.559,7.31-9.06,78.72-10.595,99.179c-1.784,23.766-104.146,12.708-104.041,4.561
			c0.014-0.93-0.513-19.721-2.007-34.062C41.815,314.903,33.032,286.477,38.019,268.009z"/>
		<path opacity="0.25" d="M58.091,262.008c3.872-1.314,8.104-2.373,12.236-3.217C65.577,258.228,61.531,259.994,58.091,262.008z"/>
		<path opacity="0.25" d="M374.46,286.603c0.135-4.13-1.083-8.895-4.45-14.305c4.112-1.138,15.049-11.869,5.051-25.455
			c3.689-5.354,12.894-32.053-2.438-49.41c-4.216-4.773-16.112-12.597-29.992-14.083c-23.128-2.476-48.938,2.354-53.648,12.002
			c-4.316,8.859-2.35,20.286,0.11,28.42c-1.085,0.218-1.756,0.461-1.756,0.461l1.972,0.248c0.325,1.039,0.655,2.019,0.979,2.926
			l-1.537-0.155c-2.37-0.24-4.345,1.314-4.13,3.258l0.705,6.399c0.167,1.52,1.645,2.768,3.501,2.954l3.303,0.335
			c0.346,11.692,1.715,21.841,3.623,24.806c3.436,5.332,9.216,5.737,18.453,6.219c5.198,0.271,4.598,4.325,3.856,8.079
			c-0.738,0.037-1.408,0.071-1.996,0.098c-10.115,0.462-15.331,6.877-17.956,13.947c-4.229,8.122-10.521,23.56-23.084,30.767
			c-10.706,6.143-34.827,15.264-36.077,15.745c-0.29,0.113-0.438,0.634-0.464,1.437c-0.258-0.031-0.517-0.058-0.785-0.068
			c-0.876-0.035-2.709,0.16-3.451,0c-0.74-0.16-4.273-3.388-10.118-3.824c-2.804-0.209-5.849-0.063-11.34,2.733
			c-0.024,0.013-0.052,0.026-0.077,0.039c-3.669-0.746-7.727-1.363-10.714-1.198c-0.367-1.545-1.022-2.618-2.014-2.877
			c-1.459-0.381-41.835-5.196-59.833-11.425c-19.802-9.128-31.722-22.793-35.369-30.073c-27.022-53.958-45.751-27.076-54.576-24.156
			c-8.825,2.923-13.705,20.791,5.038,44.615c15.451,19.642,35.816,34.346,57.987,40.872c21.344,6.284,70.97,6.595,83.062,2.636
			c1.21-0.497,2.28-1.748,3.173-3.415c1.823,0.62,3.462,1.533,4.805,2.438c-0.955,0.791-1.598,1.371-1.729,1.616
			c-0.785,1.461-0.625,2.213-0.229,3.292c0.229,0.625,2.276,1.115,2.626,1.072c0.349-0.044,0.02,1.919,1.134,2.398
			c1.113,0.48,2.354-0.218,2.704-0.305c0.349-0.087,0.174,2.312,1.569,3.14c1.396,0.829,3.175-0.23,3.315,0
			c0.141,0.231-0.741,2.355,1.919,3.141c0.667,0.196,1.761-0.475,3.038-1.61c0.615,0.427,1.534,0.874,2.419,0.542
			c1.436-0.539,1.302-2.262,1.759-2.136c0.456,0.126,2.699,0.44,3.703-0.438c1.004-0.879,0.63-2.828,0.817-3.33
			s3.393,1.318,4.646,0.126c1.255-1.193,0.88-2.701,0.879-3.391c-0.001-0.69,3.769,0.313,4.898-1.131
			c0.927-1.185,0.94-2.44,0.762-3.208c1.791-0.097,3.337-0.216,4.12-0.428c0.096,0,0.183-0.013,0.274-0.018
			c0.419,0.766,0.857,1.476,1.316,2.098c12.402-1.08,30.546-3.518,43.786-8.424c4.386-1.625,8.621-3.618,12.787-6.051
			c3.171,19.957,5.999,34.104,9.952,39.001c7.312,9.062,75.316,12.074,75.069,1.327c0-0.016-0.002-0.038-0.002-0.054
			c0.142,0.128,0.208,0.076,0.185-0.179c-0.631-6.947-0.838-9.229-1.171-12.906c-0.335-3.681,18.691-7.415,18.931-13.85
			C403.988,351.534,397.528,301.892,374.46,286.603z M359.398,249.091c4.145-4.392,3.902-16.255-5.259-9.208
			c0.002-0.005,0.004-0.011,0.007-0.016c0.003-0.001,0.006-0.001,0.01-0.002C363.328,232.809,363.561,244.712,359.398,249.091z"/>
		<g>
			<path fill="#F8F6F6" d="M232.699,336.226c-0.877,0-2.709,0.16-3.451,0c-0.74-0.16-4.273-3.388-10.118-3.824
				c-2.804-0.209-6.974,4.958-4.238,6.224c2.076,0.961-16.563,14.12-17.349,15.582c-0.785,1.461-0.625,2.213-0.229,3.292
				c0.229,0.625,2.276,1.115,2.626,1.072c0.349-0.044,0.02,1.919,1.134,2.398c1.113,0.48,2.354-0.218,2.704-0.305
				c0.349-0.087,0.174,2.312,1.569,3.14c1.396,0.829,3.175-0.23,3.315,0c0.141,0.231-0.741,2.355,1.919,3.141
				s12.125-12.256,12.91-13.434s11.559-0.872,14.132-1.569C240.196,351.243,233.576,336.226,232.699,336.226z"/>
		</g>
		<path fill="#F5C62E" d="M195.694,334.104c-9.471,1.532-9.527,15.592-6.647,15.326c5.938-0.547,11.309,3.759,13.177,5.48
			s10.675,9.836,10.675,9.836s1.632,1.696,3.14,1.131c1.436-0.539,1.302-2.262,1.759-2.136c0.456,0.126,2.699,0.44,3.703-0.438
			c1.004-0.879,0.63-2.828,0.817-3.33s3.393,1.318,4.646,0.126c1.255-1.193,0.88-2.701,0.879-3.391
			c-0.001-0.69,3.769,0.313,4.898-1.131c1.129-1.443,0.908-3.004,0.628-3.642c-0.881-2.001-14.809-14.205-19.34-15.321
			C209.497,335.499,200.445,333.335,195.694,334.104z"/>
		<path fill="#F8F6F6" d="M232.699,336.226c-0.876-0.035-2.709,0.16-3.451,0c-0.74-0.16-4.273-3.388-10.118-3.824
			c-2.804-0.209-5.849-0.063-11.34,2.733c-2.778,1.415-7.677,3.81-6.892,5.641c1.894,4.42,11.295-3.493,13.993-2.15
			c7.088,3.528,20.065,13.305,22.731,13.317C244.841,351.976,242.841,336.636,232.699,336.226z"/>
		<g>
			<path fill="#5CB990" d="M295.231,284.741c-4.276,5.856-10.366,25.857-25.206,34.371c-10.706,6.143-34.827,15.264-36.077,15.745
				c-1.595,0.623,1.043,13.44,5.266,19.165c12.402-1.08,30.546-3.518,43.786-8.424c14.733-5.459,27.784-14.955,42.127-31.97
				c17.399-20.642-0.343-21.575-8.109-24.441C309.252,286.321,309.482,265.224,295.231,284.741z"/>
		</g>
		<g>
			<g>
				<path fill="#E61C78" stroke="#E61C78" stroke-miterlimit="10" d="M103.77,288.574c3.647,7.28,11.581,21.972,31.383,31.1
					c17.998,6.229,58.374,11.044,59.833,11.425c4.63,1.208,2,20.132-3.69,22.469c-12.093,3.959-61.719,3.648-83.062-2.636
					c-22.171-6.526-42.536-21.23-57.987-40.872c-18.743-23.824-13.863-41.692-5.038-44.615
					C54.032,262.524,76.747,234.616,103.77,288.574z"/>
			</g>
		</g>
		<path fill="#7B3655" d="M88.545,168.354c16.147-17.646,59.674-8.641,65.405,0.148c6.792,10.415,5.243,20.973-1.493,31.207
			c-12.427,18.874-43.15,38.203-62.84,37.395C69.929,236.295,62.146,170.336,88.545,168.354z"/>
		<path fill="#F5C62E" d="M151.811,177.108c5.741,32.832-1.615,61.993-3.98,70.831c-2.368,8.836-21.105,7.146-23.428,8.55
			c-2.321,1.404-1.369,3.426-2.748,11.183c-12.326,4.97-37.657-9.571-37.771-15.632c-0.069-3.7-0.184-9.25-0.256-14.859
			c-0.044-3.569-0.072-7.163-0.059-10.321c-3.747-2.567-13.659-24.739,4.314-18.22c4.055-5.97,5.165-9.854,7.797-25.293
			c9.084,8.252,25.781,13.875,30.921,11.646c-8.541-3.228-10.924-7.458-7.932-7.652c2.744-0.179,5.319,4.519,9.869,2.627
			c-6.109-2.924-6.22-6.512-3.008-8.128C131.397,178.884,146.994,186.479,151.811,177.108z"/>
		<g>
			<g>
				<defs>
					<path id="SVGID_23_" d="M103.49,213.974c0.007,1.005,2.857,1.797,6.365,1.775c3.509-0.022,6.35-0.854,6.342-1.856
						c-0.006-1.003-2.775-2.688-6.285-2.666C106.403,211.252,103.484,212.973,103.49,213.974z"/>
				</defs>
				<use xlink:href="#SVGID_23_"  overflow="visible" fill="#FFFFFF"/>
				<clipPath id="SVGID_2_">
					<use xlink:href="#SVGID_23_"  overflow="visible"/>
				</clipPath>
				<path clip-path="url(#SVGID_2_)" d="M107.242,213.891c0.202,1.749,1.944,2.982,3.884,2.756c1.944-0.228,3.352-1.831,3.147-3.579
					c-0.207-1.751-1.946-2.984-3.887-2.759C108.445,210.536,107.037,212.139,107.242,213.891z"/>
				<use xlink:href="#SVGID_23_"  overflow="visible" fill="none" stroke="#000000" stroke-width="0.5" stroke-miterlimit="10"/>
			</g>
			<g>
				<defs>
					<path id="SVGID_25_" d="M136.967,212.069c0.057,1.003,2.942,1.653,6.445,1.459c3.505-0.193,6.297-1.165,6.242-2.168
						c-0.058-1-2.817-2.537-6.323-2.342C139.827,209.214,136.911,211.068,136.967,212.069z"/>
				</defs>
				<use xlink:href="#SVGID_25_"  overflow="visible" fill="#FFFFFF"/>
				<clipPath id="SVGID_4_">
					<use xlink:href="#SVGID_25_"  overflow="visible"/>
				</clipPath>
				<g clip-path="url(#SVGID_4_)">
					<path d="M141.241,211.928c0.29,1.737,2.091,2.887,4.02,2.565c1.929-0.324,3.257-1.994,2.966-3.73
						c-0.291-1.74-2.091-2.887-4.019-2.568C142.279,208.521,140.952,210.188,141.241,211.928z"/>
				</g>
				<use xlink:href="#SVGID_25_"  overflow="visible" fill="none" stroke="#000000" stroke-width="0.5" stroke-miterlimit="10"/>
			</g>
			<path fill="none" stroke="#7B3655" stroke-width="2" stroke-linecap="round" stroke-miterlimit="10" d="M101.424,207.475
				c6.018-4.495,13.618-1.721,13.618-1.721"/>
			<g>
				<path fill="none" stroke="#7B3655" stroke-width="2" stroke-linecap="round" stroke-miterlimit="10" d="M136.531,204.38
					c6.225-4.199,13.687-1.061,13.687-1.061"/>
			</g>
		</g>
		<path fill="#E61C78" stroke="#E61C78" stroke-miterlimit="10" d="M126.969,212.22c-1.457-0.261-2.297,13.276-3.532,18.85
			c-0.882,3.983,11.936,1.949,11.259,0.079C133.203,227.031,129.925,211.029,126.969,212.22z"/>
		<path fill="none" stroke="#7B3655" stroke-width="1.231" stroke-miterlimit="10" d="M140.076,241.357
			c-2.678-0.377-6.491-1.1-10.001-1.311c-3.462-0.21-7.881,1.109-11.328,1.79c0.843,4.871,5.728,7.049,11.057,7.025
			C135.987,248.829,138.935,245.693,140.076,241.357z"/>
		<path fill-rule="evenodd" clip-rule="evenodd" fill="#7B3655" d="M109.63,180.907c0.644,0.551,0.293,2.286,1.82,1.781
			c-3.863,1.08-8.041-3.141-10.134-6.361c-2.264,5.482-3.195,1.71-5.636,7.02c-0.713,9.939-6.246,17.947-2.513,30.201
			c-1.072-0.042-1.46-2.077-2.274-2.419c0.645,4.549,2.253,12.307,1.521,19.252c-7.72-48.197-19.53-11.744-20.586-26.77
			c-1.459-20.747,3.688-48.98,27.504-42.64c-0.095-2.138,1.454-4.324,2.637-5.118c24.384-14.727,51.893-4.966,56.114,22.527
			c2.9,18.889-3.995,34.093-4.662,50.285c-1.242-10.407-0.459-15.704-0.277-23.713c0.688-12.966,0.989-19.161-1.361-22.942
			c-4.488,2.368-15.964,2.756-23.077,3.124c0.133,0.497,2.073,2.836,2.103,3.46C125.16,185.852,117.254,186.169,109.63,180.907z"/>
	</g>
	<g>
		<g>
			<path fill="#5CB990" d="M290.812,307.113c-0.632-4.074-1.163-31.736,20.254-32.715c9.348-0.427,38.989-2.499,47.958,2.097
				c7.112,3.644,23.344,17.988,21.387,34.154c-4.266,30.152,0.27,63.583,0.398,69.227c0.247,10.747-67.757,7.735-75.069-1.327
				C299.886,371.297,296.5,343.783,290.812,307.113z"/>
			<path fill="#5CB990" d="M368.572,281.031c-4.742-2.907-23.897-12.276-23.838-3.448c0.19,27.725,36.736,107.33,36.257,102.061
				c-0.631-6.947-0.838-9.229-1.171-12.906c-0.335-3.681,18.691-7.415,18.931-13.85
				C398.991,346.453,392.364,295.615,368.572,281.031z"/>
		</g>
	</g>
</g>
<path opacity="0.25" d="M231.559,62.244l36.082-13.772c0,0,8.679-3.311,11.991,5.366l23.899,62.623c0,0,3.313,8.676-5.365,11.989
	l-33.444,12.772l-7.979,13.068l-6.652-17.425l-0.028-0.071l-23.872-62.561C226.189,74.234,222.879,65.555,231.559,62.244"/>
<path opacity="0.25" d="M367.854,64.145l38.025,6.756c0,0,9.145,1.629,7.521,10.772l-11.729,65.993c0,0-1.624,9.145-10.77,7.521
	l-35.25-6.258l-13.565,7.1l3.261-18.364l0.015-0.075l11.72-65.925C357.08,71.664,358.708,62.518,367.854,64.145"/>
<path opacity="0.25" d="M73.161,46.447L35.929,56.708c0,0-8.954,2.471-6.486,11.424l17.812,64.618c0,0,2.466,8.954,11.421,6.485
	l34.517-9.504l14.166,5.809l-4.953-17.981l-0.021-0.074L84.587,52.933C84.587,52.933,82.118,43.978,73.161,46.447"/>
<path opacity="0.25" d="M195.056,40.786l-35.993-14.001c0,0-8.658-3.364-12.025,5.292l-24.295,62.47c0,0-3.368,8.655,5.289,12.022
	l33.362,12.985l7.897,13.117l6.763-17.382l0.028-0.072l24.266-62.407C200.348,52.811,203.715,44.153,195.056,40.786"/>
<path fill="#83BACF" d="M226.559,57.244l36.082-13.772c0,0,8.679-3.311,11.991,5.366l23.899,62.623c0,0,3.313,8.676-5.365,11.989
	l-33.444,12.772l-7.979,13.068l-6.652-17.425l-0.028-0.071l-23.872-62.561C221.189,69.234,217.879,60.555,226.559,57.244"/>
<path fill="#F5C62E" d="M362.854,59.145l38.025,6.756c0,0,9.145,1.629,7.521,10.772l-11.729,65.993c0,0-1.624,9.145-10.77,7.521
	l-35.25-6.258l-13.565,7.1l3.261-18.364l0.015-0.075l11.72-65.925C352.08,66.664,353.708,57.518,362.854,59.145"/>
<path fill="#5CB990" d="M68.161,41.447L30.929,51.708c0,0-8.954,2.471-6.486,11.424l17.812,64.618c0,0,2.466,8.954,11.421,6.485
	l34.517-9.504l14.166,5.809l-4.953-17.981l-0.021-0.074L79.587,47.933C79.587,47.933,77.118,38.978,68.161,41.447"/>
<path fill="#E61C78" stroke="#E61C78" stroke-miterlimit="10" d="M190.056,35.786l-35.993-14.001c0,0-8.658-3.364-12.025,5.292
	l-24.295,62.47c0,0-3.368,8.655,5.289,12.022l33.362,12.985l7.897,13.117l6.763-17.382l0.028-0.072l24.266-62.407
	C195.348,47.811,198.715,39.153,190.056,35.786"/>
<g>
	<g>
		<path fill-rule="evenodd" clip-rule="evenodd" fill="#7B3655" d="M367.981,77.96c-0.175,1.044-0.349,2.086-0.523,3.13
			c-1.102-0.184-2.203-0.368-3.305-0.553c-0.657,0.061-0.128-0.726-0.173-1.102c-3.568-0.155-7.293,0.578-8.961,3.329
			c-2.621,4.324-1.165,10.847-0.938,15.222c-0.037,0.812,1.139-0.13,1.131,0.725c1.004,3.856,1.9,8.708,4.342,11.456
			c1.072,1.204,3.931,2.447,6.292,1.944c3.846-0.819,7.343-6.509,9.399-10.228c0.453-0.339,0.668,0.172,1.216,0.203
			c1.587-3.92,5.134-9.607,4.243-14.668c-0.598-3.393-3.457-5.124-7.159-6.384c-0.487-0.11-0.034,1.097-0.521,0.985
			c-1.161-0.193-2.319-0.387-3.479-0.581c0.175-1.045,0.35-2.087,0.523-3.131c1.103,0.185,2.204,0.369,3.307,0.554
			c0.73-0.166-0.066,0.76,0.403,0.781c4.233,0.896,7.729,3.659,8.463,7.138c1.128,5.359-2.477,11.42-4.241,15.741
			c-0.633,0.562,0.905,0.602,0.463,1.508c-1.47,2.344-3.165,4.71-5.078,6.839c-2.33,2.593-4.82,5.18-9.222,4.896
			c-0.387,3.83-0.274,6.333,1.503,8.117c3.091,3.109,8.35,2.025,10.263-0.429c4.34-5.56,2.295-18.548,9.059-22.088
			c6.449-3.375,11.955,3.992,9.794,10.937c4.561,1.667,4.024,9.582-1.195,10.349c-7.451,1.098-8.376-9.953-1.791-10.668
			c0.8-3.438,0.447-8.127-3.243-8.411c-2.54-0.194-4.734,2.429-5.512,5.158c-1.669,5.866-1.528,12.87-5.169,17.015
			c-1.765,2.01-4.913,3.421-8.7,2.837c-6.642-1.021-8.85-6.151-7.994-13.138c-6.659-2.858-7.96-9.538-9.472-16.067
			c-0.156-0.933,0.822-0.278,0.869-0.927c-0.458-3.876-1.021-8.361-0.224-12.555c1.194-6.288,5.733-8.372,11.892-8.024
			c0.026-0.249,0.054-0.498,0.261-0.492C365.662,77.571,366.822,77.766,367.981,77.96z M391.182,119.925
			c4.678,2.062,6.188-6.074,0.901-5.393C388.865,114.948,389.654,119.252,391.182,119.925z"/>
	</g>
</g>
<g>
	<path fill="#7B3655" stroke="#83BACF" stroke-width="0.25" stroke-miterlimit="10" d="M268.869,70.293
		c-0.291,8.313-0.28,16.774-0.572,25.088c0.776,0.546,1.9,0.936,3.032,1.417c1.062,0.448,2.295,0.741,2.977,1.54
		c1.347,1.579,1.058,3.833-0.198,5.009l-24.117,9.045c-1.182,0.464-2.759,1.361-3.122-0.278c-0.224-1.016,1.017-1.375,2.26-1.826
		l20.298-7.359c1.754-0.636,3.984-1.049,3.375-2.634c-0.193-0.486-0.768-0.686-1.343-0.924c-1.058-0.44-1.854-0.777-2.97-1.241
		c-0.521-0.217-1.108-0.563-1.512-0.559c-0.795,0.012-1.858,0.466-2.857,0.734c-5.591,1.5-10.876,2.914-16.806,4.484
		c-1.024,0.267-2.202,0.639-2.655,0.455c-0.609-0.245-1.372-2.178-1.848-3.156c-1.504-3.078-2.61-5.306-4.211-8.546
		c-0.32-0.651-0.699-1.271-0.645-1.778c0.111-0.995,22.991-9.517,28.304-11.673c0.212-2.335,0.153-4.267,0.208-6.927
		c0.018-0.838-0.089-1.766,0.213-2.192c0.422-0.599,2.103-1.317,3.125-1.938c0.608-0.371,1.094-0.679,1.562-0.971
		c0.932-0.584,2.535-1.753,3.109-0.32c0.505,1.278-1.231,1.896-2.303,2.546C270.941,69.037,269.96,69.668,268.869,70.293
		 M263.058,81.768l1.389,3.829l1.783-0.646c-0.045-1.499,0.144-2.889,0.002-4.437C265.336,81.01,264.134,81.355,263.058,81.768
		 M258.495,83.622l1.324,3.652l3.74-1.356l-1.356-3.742C260.893,82.624,259.664,83.109,258.495,83.622 M253.811,85.422l1.292,3.563
		l3.827-1.389l-1.324-3.651C256.253,84.397,255.209,84.993,253.811,85.422 M249.247,87.281l1.227,3.382l3.737-1.355
		c-0.479-1.14-0.81-2.595-1.381-3.53C251.888,86.396,250.198,86.668,249.247,87.281 M244.589,89.169l1.163,3.206l3.829-1.388
		l-1.227-3.383C247.009,88.081,245.724,88.592,244.589,89.169 M240.763,90.556c0.493,1.053,0.981,2.118,1.52,3.078l2.671-0.969
		c-0.444-1.053-0.748-2.411-1.284-3.262C242.821,89.845,241.774,90.193,240.763,90.556 M244.342,97.923l2.135-0.774
		c-0.174-1.118-0.859-2.474-1.233-3.683l-2.582,0.937C243.186,95.65,243.802,96.707,244.342,97.923 M246.074,93.265
		c0.479,1.139,0.81,2.59,1.383,3.528l3.738-1.355l-1.324-3.65C248.643,92.296,247.102,92.659,246.074,93.265 M250.764,91.464
		l1.323,3.65l3.737-1.355c-0.354-1.227-0.867-2.275-1.323-3.65L250.764,91.464z M256.716,93.436l3.828-1.388l-1.324-3.65
		l-3.827,1.388L256.716,93.436z M260.109,88.075c0.543,1.286,0.754,2.422,1.234,3.683l3.83-1.389l-1.324-3.65L260.109,88.075z
		 M266.149,90.015c-0.038-1.397,0.073-2.729,0.013-4.135l-1.426,0.518C265.229,87.564,265.566,89.048,266.149,90.015
		 M244.719,98.689c0.377,0.618,0.65,1.454,1.043,2.041c0.6-0.069,1.277-0.31,1.935-0.501c-0.334-0.757-0.532-1.81-0.962-2.37
		C246.089,98.149,245.166,98.306,244.719,98.689 M247.655,97.625l0.84,2.315c1.217-0.076,2.69-0.689,3.99-0.943l-1.033-2.849
		C250.225,96.659,248.685,97.023,247.655,97.625 M253.409,98.761c1.316-0.436,2.492-0.583,3.836-1.085
		c-0.343-1.075-0.925-2.256-1.073-3.238l-3.827,1.388L253.409,98.761z M257.006,94.234l1.162,3.205
		c1.273-0.249,2.62-0.652,3.957-1.03l-1.324-3.65C259.572,93.27,258.033,93.634,257.006,94.234 M263.048,96.177
		c0.961-0.21,1.97-0.532,2.945-0.768c0.056-1.327,0.294-2.571-0.562-4.33l-3.83,1.389C262.183,93.488,262.555,94.961,263.048,96.177
		"/>
	<path fill="#7B3655" stroke="#83BACF" stroke-width="0.25" stroke-miterlimit="10" d="M252.107,112.358
		c0.268,0.864-0.225,1.979-1.023,2.269c-0.805,0.292-1.672-0.284-1.966-1.14c-0.471-1.4,0.307-2.336,1.107-2.627
		C251.029,110.569,251.838,111.492,252.107,112.358"/>
	<path fill="#7B3655" stroke="#83BACF" stroke-width="0.25" stroke-miterlimit="10" d="M273.098,104.748
		c0.269,0.863-0.224,1.978-1.026,2.269c-0.798,0.289-1.668-0.285-1.96-1.142c-0.473-1.4,0.307-2.336,1.104-2.625
		C272.021,102.958,272.825,103.883,273.098,104.748"/>
</g>
<g>
	<path fill-rule="evenodd" clip-rule="evenodd" fill="#7B3655" d="M69.517,65.549c2.853,0.166,5.242-0.247,7.699,0.047
		c1.991,0.238,3.589,1.767,3.778,3.92c0.092,1.042,0,2.188,0,3.307c0,6.521,0,13.108,0,19.791c0,1.14,0.145,2.36-0.047,3.211
		c-0.237,1.051-1.126,1.907-2.078,2.173c-0.413,0.116-1.14,0.104-1.606,0.095c0.196,2.22-0.331,3.524-1.653,4.156
		c-1.775,0.85-3.721-0.18-4.156-1.889c-0.157-0.618-0.068-1.473-0.094-2.268c-4.551,0-9.101,0-13.65,0
		c-0.148,0.891,0.054,1.618-0.095,2.268c-0.411,1.795-2.567,2.729-4.204,1.889c-1.22-0.626-1.837-1.98-1.605-4.156
		c-1.928,0.193-3.274-0.725-3.59-2.268c-0.182-0.89-0.047-2.104-0.047-3.259c0-6.551,0-13.227,0-19.79c0-1.105-0.09-2.229,0-3.26
		c0.185-2.118,1.978-3.772,3.967-3.967c1.387-0.136,2.608,0,3.779,0c1.13,0,2.281,0,3.731,0c0.148-1.57,1.065-2.969,2.739-3.165
		c0.708-0.082,1.546,0,2.314,0c0.798,0,1.617-0.056,2.22,0.048C68.498,62.701,69.337,63.87,69.517,65.549z M50.624,68.854
		c-0.722,1.374-0.029,3.112,1.228,3.543c0.693,0.237,2.047,0.095,3.117,0.095c6.525,0,12.793,0,19.271,0
		c1.067,0,2.385,0.14,3.117-0.095c0.704-0.226,1.196-0.825,1.417-1.464c0.495-1.436-0.288-2.731-1.181-3.118
		c-0.688-0.298-2.06-0.188-2.976-0.188c-6.398,0-12.729,0-18.987,0c-1.021,0-2.385-0.073-3.26,0.047
		C51.457,67.801,50.95,68.233,50.624,68.854z M50.529,75.562c-0.396,0.973-0.189,2.486-0.189,4.015c0,1.331-0.167,3.018,0.143,3.921
		c0.215,0.627,0.78,1.175,1.275,1.37c0.657,0.258,2.015,0.142,3.069,0.142c6.775,0,12.854,0,19.46,0
		c1.113,0,2.386,0.123,3.117-0.142c0.645-0.233,1.207-0.747,1.417-1.512c0.237-0.861,0.095-2.449,0.095-3.779
		s0.14-2.932-0.095-3.778c-0.184-0.664-0.684-1.27-1.322-1.511c-0.78-0.296-2.004-0.143-2.976-0.143c-6.476,0-12.655,0-18.987,0
		c-0.981,0-2.326-0.082-3.212,0.048C51.523,74.31,50.894,74.667,50.529,75.562z M50.104,91.574
		c-0.326,2.357,1.998,3.661,3.731,2.834c0.421-0.202,0.917-0.624,1.181-1.134c0.833-1.614-0.264-3.266-1.37-3.685
		c-0.32-0.121-0.931-0.161-1.369-0.095C51.175,89.662,50.254,90.487,50.104,91.574z M74.146,90.818
		c-0.058,0.11-0.249,0.589-0.283,0.944c-0.15,1.537,0.989,2.759,2.314,2.881c1.272,0.117,2.378-0.678,2.739-1.605
		c0.449-1.154-0.135-2.485-0.708-2.976c-0.5-0.427-1.173-0.701-2.126-0.567C75.123,89.631,74.451,90.237,74.146,90.818z"/>
	<path fill-rule="evenodd" clip-rule="evenodd" fill="#7B3655" d="M41.839,79.435c0,6.881,0,13.761,0,20.641
		c1.555,0.083,2.54,0.734,2.645,2.268c-2.267,0-4.534,0-6.802,0c0.138-1.516,1.038-2.269,2.74-2.22c0-6.881,0-13.761,0-20.641
		c-2.004-0.308-3.39-1.438-3.731-3.212c-0.161-0.837-0.13-1.874,0-2.598c0.33-1.854,1.911-3.15,3.968-3.259
		c3.453-0.184,5.261,1.739,5.006,5.242C45.514,77.731,44.079,79.266,41.839,79.435z"/>
</g>
<g>
	<path fill-rule="evenodd" clip-rule="evenodd" fill="#7B3655" d="M155.473,47.686c1.021-0.161,2.188,0.615,3.136,1.102
		c5.379,2.762,10.367,5.554,16.098,8.388c0.848,0.419,2.342,1.057,2.458,1.61c0.171,0.816-1.072,2.745-1.695,2.966
		c-1.021,0.36-3.31,0.084-4.914,0.084c-10.109,0-19.398,0-29.57,0c-1.617,0-3.859,0.259-4.83-0.084
		c-0.524-0.186-1.855-2.14-1.694-2.966c0.095-0.486,1.47-1.156,2.372-1.61c2.513-1.263,5.76-2.938,7.88-4.066
		c3.345-1.782,6.863-3.668,10.507-5.423C155.28,47.656,155.405,47.696,155.473,47.686z M156.744,52.176
		c-0.22-0.232-0.174-0.73-0.509-0.847c-0.672-0.106-0.443,0.687-0.848,0.847c-1.329,0.37-2.121,1.032-1.948,2.288
		c0.241,1.762,3.508,1.389,3.559,2.542c0.032,0.745-0.763,0.828-1.44,0.763c-0.354-0.184-0.438-0.637-0.678-0.933
		c-0.549-0.158-1.372-0.147-1.525,0.339c0.171,1.072,0.888,1.598,2.033,1.695c0.309,0.229,0.232,0.841,0.763,0.847
		c0.44-0.012,0.312-0.593,0.594-0.763c1.497-0.283,2.761-1.798,1.779-3.22c-0.476-0.688-3.338-0.917-3.305-1.863
		c0.013-0.373,0.363-0.823,1.187-0.594c0.287,0.081,0.367,0.693,0.932,0.848c0.414,0.113,0.707-0.021,1.187-0.085
		C158.751,52.918,157.8,52.291,156.744,52.176z"/>
	<path fill-rule="evenodd" clip-rule="evenodd" fill="#7B3655" d="M146.661,81.153c1.977,0,3.954,0,5.931,0
		c0.329-4.083,0.543-9.018,0.848-13.642c0.06-0.905,0.262-1.964-0.254-2.287c-0.461-0.288-1.179-0.029-1.187-0.848
		c-0.012-1.153,2.399-0.763,3.729-0.763c0.498,0,1.478-0.008,2.287,0c0.922,0.01,1.515-0.024,1.61,0.594
		c0.183,1.188-1.059,0.589-1.44,1.355c-0.329,0.66,0.105,2.57,0.169,3.812c0.202,3.947,0.4,8.223,0.678,11.693
		c1.779,0.197,3.926,0.028,5.847,0.084c0.371-4.11,0.55-9.043,0.848-13.642c0.056-0.87,0.293-1.966-0.255-2.287
		c-0.468-0.275-1.123-0.076-1.186-0.763c-0.116-1.271,2.655-0.848,3.812-0.848c1.114,0,3.84-0.366,3.897,0.679
		c0.052,0.938-1.077,0.563-1.44,1.186c-0.404,0.692-0.009,2.432,0.085,3.897c0.256,4.03,0.394,7.916,0.678,11.777
		c1.41-0.481,3.327,0.933,2.118,2.288c-0.544,0.609-2.735,0.424-4.151,0.424c-8.747,0-18.147,0-27.029,0
		c-1.946,0-4.323,0.386-4.406-1.271c-0.057-1.137,1.12-1.625,2.373-1.44c0.424-3.611,0.503-7.614,0.763-11.692
		c0.037-0.583,0.138-1.282,0.169-1.949c0.031-0.642,0.133-1.543,0-1.863c-0.214-0.517-1.295-0.575-1.44-1.102
		c-0.304-1.1,1.107-0.933,2.457-0.933c0.636,0,1.346,0,1.949,0c1.389,0,3.155-0.203,3.22,0.679c0.076,1.036-1.107,0.601-1.44,1.271
		c-0.337,0.679,0.106,2.494,0.169,3.812C146.258,73.362,146.506,77.529,146.661,81.153z"/>
	<path fill-rule="evenodd" clip-rule="evenodd" fill="#7B3655" d="M136.408,84.797c1.173-0.311,3.74-0.084,5.254-0.084
		c8.616,0,17.018,0,25.758,0c1.224,0,3.138,0,5.168,0c1.747,0,3.729-0.252,3.729,1.355c0,1.573-2.036,1.355-4.067,1.355
		c-11.055,0-21.283,0-32.451,0c-1.659,0-4.027,0.363-4.406-0.932C135.133,85.606,135.687,84.988,136.408,84.797z"/>
</g>
<g>
	<g>
		<g>
			<g>
				<g>
					<defs>
						<path id="SVGID_27_" d="M291.035,196.482c-6.063,16.309-4.451,57.044-0.283,63.521c3.436,5.332,9.216,5.737,18.453,6.219
							c7.869,0.409,2.449,9.492,3.371,13.071c10.366,8.804,39.111,1.907,38.482-1.785c-0.904-5.295-2.258-22.581-1.092-32.068
							c8.009,2.42,10.908-19.584-0.827-10.557c8.591-20.756,12.232-34.694-13.255-47.308
							C322.051,180.729,296.209,184.087,291.035,196.482z"/>
					</defs>
					<use xlink:href="#SVGID_27_"  overflow="visible" fill="#F8F6F6"/>
					<clipPath id="SVGID_6_">
						<use xlink:href="#SVGID_27_"  overflow="visible"/>
					</clipPath>
					<g clip-path="url(#SVGID_6_)">
						<g>
							<path fill="none" d="M303.979,221.94c-0.497,11.057-5.531,16.897-5.421,18.201c0.294,3.466,5.813,3.501,7.035,2.529
								C306.811,241.703,305.267,220.021,303.979,221.94z"/>
						</g>
						<g>
							<defs>
								<path id="SVGID_29_" d="M326.638,232.141c-0.046,0.944-2.755,1.584-6.056,1.432c-3.3-0.152-5.938-1.039-5.894-1.981
									c0.042-0.944,2.71-2.425,6.009-2.272C324.001,229.469,326.682,231.198,326.638,232.141z"/>
							</defs>
							<use xlink:href="#SVGID_29_"  overflow="visible" fill="#FFFFFF"/>
							<clipPath id="SVGID_8_">
								<use xlink:href="#SVGID_29_"  overflow="visible"/>
							</clipPath>
							
								<ellipse transform="matrix(0.9879 0.155 -0.155 0.9879 39.7287 -46.6419)" clip-path="url(#SVGID_8_)" fill="#000100" cx="318.948" cy="231.433" rx="3.333" ry="3.003"/>
							
								<use xlink:href="#SVGID_29_"  overflow="visible" fill="none" stroke="#000100" stroke-width="0.5781" stroke-miterlimit="10"/>
						</g>
						<g>
							<defs>
								<path id="SVGID_31_" d="M295.085,229.161c-0.092,0.938-2.832,1.438-6.119,1.119c-3.288-0.318-5.879-1.343-5.786-2.282
									c0.092-0.941,2.75-2.277,6.038-1.957C292.506,226.363,295.177,228.22,295.085,229.161z"/>
							</defs>
							<use xlink:href="#SVGID_31_"  overflow="visible" fill="#FFFFFF"/>
							<clipPath id="SVGID_10_">
								<use xlink:href="#SVGID_31_"  overflow="visible"/>
							</clipPath>
							
								<ellipse transform="matrix(0.9786 0.2057 -0.2057 0.9786 53.0461 -54.4219)" clip-path="url(#SVGID_10_)" fill="#000100" cx="288.282" cy="227.931" rx="3.333" ry="3.004"/>
							
								<use xlink:href="#SVGID_31_"  overflow="visible" fill="none" stroke="#000100" stroke-width="0.5781" stroke-miterlimit="10"/>
						</g>
						<path fill="none" stroke="#7B3655" stroke-width="1.5" stroke-linecap="round" stroke-miterlimit="10" d="M328.99,224.39
							c-5.668-4.229-12.821-1.612-12.821-1.612"/>
						<path fill="none" stroke="#7B3655" stroke-width="1.5" stroke-linecap="round" stroke-miterlimit="10" d="M295.158,220.846
							c-5.668-4.228-12.822-1.613-12.822-1.613"/>
					</g>
				</g>
				<g>
					<path fill-rule="evenodd" clip-rule="evenodd" fill="#7B3655" d="M310.563,254.757c-0.337-0.622-0.985-0.079-1.406,0.03
						c-1.845,0.478-3.794,0.48-7.873,0.226c-3.54-0.221-7.22-2.296-7.502-2.512c-0.406-0.313-0.731-0.63-0.851-0.566
						c-0.9,0.323,0.345,1.351,1.035,1.676c1.053,0.703,3.174,1.257,3.933,1.468c2.192,0.608,3.814,0.711,3.985,0.725
						c1.054,0.08,1.833,0.187,3.02,0.129c0.733-0.037,3.16-0.047,4.835-0.707C310.044,255.104,310.667,254.922,310.563,254.757z"/>
					<path fill-rule="evenodd" clip-rule="evenodd" fill="#7B3655" d="M299.471,257.648c-0.163,0.391,1.447,0.86,2.177,0.859
						c0.66-0.002,1.797,0,1.616-0.499c-0.453-0.514-1.282-0.015-2.052-0.147C300.537,257.745,299.901,257.081,299.471,257.648z"/>
				</g>
			</g>
			<path fill="#E61C78" stroke="#E61C78" stroke-miterlimit="10" d="M305.208,224.748c0.997-0.184,1.219,14.004,1.96,18.529
				c0.528,3.237-8.173,1.346-7.677-0.152C300.583,239.826,303.215,223.728,305.208,224.748z"/>
		</g>
		<g>
			<path fill="none" stroke="#7B3655" stroke-width="1.5" stroke-linecap="round" stroke-miterlimit="10" d="M312.845,237.801
				l10.58,1.071c1.857,0.189,3.555-0.738,4.022-2.193l1.974-6.129c0.599-1.858-1.021-3.778-3.394-4.018l-13.258-1.344
				c-2.372-0.238-4.343,1.315-4.129,3.258l0.702,6.399C309.512,236.366,310.987,237.613,312.845,237.801z"/>
			<path fill="none" stroke="#7B3655" stroke-width="1.5" stroke-linecap="round" stroke-miterlimit="10" d="M283.826,234.862
				l10.58,1.072c1.855,0.188,3.555-0.738,4.023-2.193l1.973-6.129c0.6-1.858-1.023-3.778-3.393-4.02l-13.26-1.342
				c-2.37-0.24-4.345,1.314-4.13,3.258l0.705,6.399C280.492,233.428,281.97,234.676,283.826,234.862z"/>
			
				<line fill="none" stroke="#7B3655" stroke-width="1.5" stroke-linecap="round" stroke-miterlimit="10" x1="308.743" y1="229.959" x2="300.506" y2="229.125"/>
		</g>
	</g>
	<path fill="#7B3655" d="M344.637,298.421c-0.01-1.021-3.745-8.602-1.444-16.74c0.022-0.006,0.046-0.012,0.067-0.017
		c0.224-0.392,0.312-0.953,0.476-1.614c0.291-0.756,0.633-1.514,1.046-2.269c0.028-0.053,0.043-0.114,0.064-0.173
		c0.408-0.548,0.963-1.108,1.735-1.659c-9.524-7.545-5.771-22.706,3.401-30.526c8.01,2.419,10.908-19.585-0.826-10.558
		c-14.686,3.424-10.439-19.682-12.631-25.534c-35.812,5.444-46.359-10.224-46.735-8.713c-1.774,7.11-2.596,16.812-2.714,26.354
		c-2.594-6.025-9.267-23.952-3.095-36.62c4.71-9.647,30.521-14.478,53.648-12.002c13.88,1.486,25.776,9.31,29.992,14.083
		c15.332,17.357,6.128,44.057,2.438,49.41c9.998,13.586-0.938,24.317-5.051,25.455c14.01,22.511-8.923,33.962-13.648,34.208
		c2.109,13.96-14.991,17.465-18.939,16.532C336.534,315.438,334.016,299.51,344.637,298.421z"/>
</g>
</svg>
