<?xml version="1.0" encoding="utf-8"?>
<!-- Generator: Adobe Illustrator 16.0.0, SVG Export Plug-In . SVG Version: 6.00 Build 0)  -->
<!DOCTYPE svg PUBLIC "-//W3C//DTD SVG 1.1//EN" "http://www.w3.org/Graphics/SVG/1.1/DTD/svg11.dtd">
<svg version="1.1" id="Ebene_1" xmlns="http://www.w3.org/2000/svg" xmlns:xlink="http://www.w3.org/1999/xlink" x="0px" y="0px"
	 width="425.197px" height="425.197px" viewBox="0 0 425.197 425.197" enable-background="new 0 0 425.197 425.197"
	 xml:space="preserve">
<g>
	<g>
		<g>
			<path fill-rule="evenodd" clip-rule="evenodd" fill="#7B3655" d="M160.526,23.37c2.697-0.546,2.793,2.731,1.558,3.896
				C159.386,27.812,159.29,24.534,160.526,23.37z"/>
			<path fill-rule="evenodd" clip-rule="evenodd" fill="#7B3655" d="M297.626,29.603c1.817,0,3.635,0,5.452,0
				c0.064,1.233-0.374,2.971,0.779,3.115c-0.173,2.424-3.877,1.316-6.231,1.559C297.626,32.718,297.626,31.16,297.626,29.603z"/>
			<path fill-rule="evenodd" clip-rule="evenodd" fill="#7B3655" d="M310.089,34.276c-0.906,6.88,2.183,9.762,3.116,14.8
				c-2.895,0.298-2.036-3.156-5.453-2.337c-2.788,0.327-3.747,2.484-3.895,5.453c-3.552-0.344-6.694-1.096-7.79-3.895
				c0.701-3.003,4.408-7.472,0.779-10.127c1.411-1.861,6.1-0.439,7.79,0c3.002-0.877-3.003-3.019,0-3.895
				C306.32,32.52,307.294,34.921,310.089,34.276z"/>
			<path fill-rule="evenodd" clip-rule="evenodd" fill="#7B3655" d="M239.98,43.624c3.308,0.848,4.137,4.173,4.675,7.789
				C240.649,51.144,237.815,47.738,239.98,43.624z"/>
			<path fill-rule="evenodd" clip-rule="evenodd" fill="#7B3655" d="M316.321,56.087c2.793-0.197,2.854,2.34,5.452,2.337
				c-0.253,1.824-3.397,0.757-3.895,2.337C315.89,60.675,316.334,58.152,316.321,56.087z"/>
			<path fill-rule="evenodd" clip-rule="evenodd" fill="#7B3655" d="M330.343,69.33c-1.759-3.683-6.507-1.501-10.127-0.778
				C313.341,58.077,334.747,59.647,330.343,69.33z"/>
		</g>
	</g>
	<g opacity="0.25">
		<defs>
			<path id="SVGID_13_" opacity="0.25" d="M221.611,411.627c-2.615-6.991-7.526-11.688-14.021-14.8
				c-3.267-0.412-4.351,1.359-7.011,1.557c-5.212-2.837-13.701-2.397-17.916-6.231c-10.075,2.858-12.713-8.45-20.254-3.116
				c-0.326,3.185,2.564,3.149,1.559,7.011c-11.785-1.921-31.511,8.37-37.391-3.895c1.873-18.401,5.225-34.136,11.685-46.738
				c4.136-8.067,14.676-12.539,15.58-22.591c-10.271-1.414-22.043-1.327-26.486-8.568c-3.401-0.027-4.601,2.15-7.789,2.338
				c-2.771-1.386-5.856-2.454-7.79-4.676c-15.354,4.958-11.407-14-20.253-17.915c1.543-3.65,2.797-7.589,4.674-10.906
				c-5.312-7.418-12.321-10.686-10.127-21.032c1.231-5.807,8.503-8.919,7.79-14.801c-0.635-5.231-8.57-11.893-13.243-13.242
				c0.808-6.159,4.014-10.503-0.778-14.801c4.609-7.5,10.603-14.676,9.348-25.706c-0.68-5.976-5.962-10.506-4.674-17.139
				c1.034-0.781,2.898-0.735,3.115-2.337c5.847,3.129,14.432,1.492,20.254-1.557c1.207-10.312,16.591-22.659,1.557-28.822
				c-0.273-4.169,1.383-6.407,2.338-9.348c1.299,0,2.597,0,3.895,0c4.243-7.646,9.6-15.832,8.569-26.485
				c-0.839-8.675-6.438-17.565,0.778-24.148c9.887,0.02,16.986-2.748,27.265-2.337c4.727,2.312,1.466,11.139,3.896,14.021
				c3.15-0.744,2.161-5.628,3.115-8.569c2.936-0.598,3.724,0.95,6.232,0.78c1.368-3.565,0.449-9.417,2.337-12.465
				c6.627,1.051,12.735,0.678,19.474,0c-1.567-5.185-11.058-2.443-13.242-7.011c-0.812-7.561,2.933-10.569,3.895-16.358
				c-3.47-0.096-4.829,1.922-7.789,2.337c-3.603-7.419,6.659-6.523,8.568-10.905c0.131-1.688-2.763-0.353-3.895-0.779
				c0.044-2.553,2.215-2.977,1.558-6.231c-2.056-0.237-2.009,1.627-2.337,3.116c1.113-4.998-1.545-10.757-5.453-14.801
				c-3.353-0.237-6.286-0.055-6.232,3.116c-2.245-2.551,0.625-6.613,0.78-9.348c5.782,5.901,21.19,2.179,27.264,7.789
				c11.824-5.791,27.626,6.291,18.695,18.695c2.337,0,4.674,0,7.011,0c0,1.819,0,3.635,0,5.453c0.909-1.169,2.251-1.905,2.337-3.895
				c3.961,1.492,6.077,4.829,9.348,7.011c5.319-0.359,7.924-5.031,13.243-3.116c3.586,9.396-5.312,12.794-9.348,17.138
				c-0.329,2.666,2.332,2.34,3.115,3.896c4.457-4.62,10.047-2.122,16.358-0.78c0.101-1.397-0.772-1.821-2.337-1.557
				c3.796-6.333,12.211-8.045,21.812-8.569c5.742-3.086,7.841-9.816,10.905-15.58c3.378,1.036,6.38,2.45,10.905,2.337
				c-2.385,3.588-10.491,1.453-11.685,6.232c5.018,0.852,9.947-5.104,17.138-4.674c-0.073,10.719,9.28,12.01,19.474,12.463
				c1.607,4.105,4.585,6.841,4.674,12.465c2.067,3.646,7.352,4.074,10.906,6.23c4.128,8.077,6.366,18.042,6.232,30.381
				c-12.842,9.22,0.795,20.949,9.348,24.148c-3.713,11.355,0.929,18.577,6.23,24.927c-1.023,3.91-3.213,6.653-4.674,10.126
				c1.256,5.237,4.701,8.284,3.896,15.58c11.91,4.72,10.248,19.741,7.011,32.717c-10.068,3.217-7.458-10.061-14.8-7.011
				c-2.4,0.777,0.867,2.106,1.557,2.337c-2.818,4.971-9.248,6.331-15.578,7.791c-7.71,6.571-14.188,14.373-24.149,18.695
				c-0.97,1.886-1.928,3.783-2.337,6.231c-12.332-1.687-12.86,8.431-19.474,12.463c-3.951,0.316-5.424-1.847-7.79-3.115
				c2.502,9.442,8.012,15.876,14.021,21.811c-2.709,11.958,5.744,17.662,9.348,25.706c10.071,0.55,17.387,14.872,24.927,21.812
				c5.516,5.075,17.525,8.129,9.348,18.695c-2.049,0.806-4.78,0.933-7.789,0.778c-3.264,1.67-3.245,6.622-4.674,10.127
				c-5.966,4.133-16.961,5.55-17.917,12.464c-0.931,6.735,7.303,8.771,9.348,15.579c-4.514,6.896,4.173,7.694,2.337,16.358
				c-8.243,2.012-9.267-3.196-12.463-6.231c-6.168,1.084-10.017,0.331-14.801-1.558c-3.587-0.471-2.196,4.036-4.674,4.674
				c-13.386-4.236-20.372,8.223-28.821,10.126c-10.233,2.308-15.083-4.419-25.708-7.011c-3.375,3.376-2.009,11.493-7.011,13.243
				C223.17,411.627,222.392,411.627,221.611,411.627z"/>
		</defs>
		<use xlink:href="#SVGID_13_"  overflow="visible" fill-rule="evenodd" clip-rule="evenodd"/>
		<clipPath id="SVGID_2_">
			<use xlink:href="#SVGID_13_"  overflow="visible"/>
		</clipPath>
		
			<rect x="75.699" y="17.146" clip-path="url(#SVGID_2_)" fill-rule="evenodd" clip-rule="evenodd" width="295.485" height="131.641"/>
		<g clip-path="url(#SVGID_2_)">
			<rect x="75.699" y="148.343" fill-rule="evenodd" clip-rule="evenodd" width="295.485" height="131.641"/>
			<rect x="75.699" y="279.096" fill-rule="evenodd" clip-rule="evenodd" width="295.485" height="131.641"/>
		</g>
	</g>
	<g>
		<defs>
			<path id="SVGID_15_" d="M216.611,406.627c-2.615-6.991-7.526-11.688-14.021-14.8c-3.267-0.412-4.351,1.359-7.011,1.557
				c-5.212-2.837-13.701-2.397-17.916-6.231c-10.075,2.858-12.713-8.45-20.254-3.116c-0.326,3.185,2.564,3.149,1.559,7.011
				c-11.785-1.921-31.511,8.37-37.391-3.895c1.873-18.401,5.225-34.136,11.685-46.738c4.136-8.067,14.676-12.539,15.58-22.591
				c-10.271-1.414-22.043-1.327-26.486-8.568c-3.401-0.027-4.601,2.15-7.789,2.338c-2.771-1.386-5.856-2.454-7.79-4.676
				c-15.354,4.958-11.407-14-20.253-17.915c1.543-3.65,2.797-7.589,4.674-10.906c-5.312-7.418-12.321-10.686-10.127-21.032
				c1.231-5.807,8.503-8.919,7.79-14.801c-0.635-5.231-8.57-11.893-13.243-13.242c0.808-6.159,4.014-10.503-0.778-14.801
				c4.609-7.5,10.603-14.676,9.348-25.706c-0.68-5.976-5.962-10.506-4.674-17.139c1.034-0.781,2.898-0.735,3.115-2.337
				c5.847,3.129,14.432,1.492,20.254-1.557c1.207-10.312,16.591-22.659,1.557-28.822c-0.273-4.169,1.383-6.407,2.338-9.348
				c1.299,0,2.597,0,3.895,0c4.243-7.646,9.6-15.832,8.569-26.485c-0.839-8.675-6.438-17.565,0.778-24.148
				c9.887,0.02,16.986-2.748,27.265-2.337c4.727,2.312,1.466,11.139,3.896,14.021c3.15-0.744,2.161-5.628,3.115-8.569
				c2.936-0.598,3.724,0.95,6.232,0.78c1.368-3.565,0.449-9.417,2.337-12.465c6.627,1.051,12.735,0.678,19.474,0
				c-1.567-5.185-11.058-2.443-13.242-7.011c-0.812-7.561,2.933-10.569,3.895-16.358c-3.47-0.096-4.829,1.922-7.789,2.337
				c-3.603-7.419,6.659-6.523,8.568-10.905c0.131-1.688-2.763-0.353-3.895-0.779c0.044-2.553,2.215-2.977,1.558-6.231
				c-2.056-0.237-2.009,1.627-2.337,3.116c1.113-4.998-1.545-10.757-5.453-14.801c-3.353-0.237-6.286-0.055-6.232,3.116
				c-2.245-2.551,0.625-6.613,0.78-9.348c5.782,5.901,21.19,2.179,27.264,7.789c11.824-5.791,27.626,6.291,18.695,18.695
				c2.337,0,4.674,0,7.011,0c0,1.819,0,3.635,0,5.453c0.909-1.169,2.251-1.905,2.337-3.895c3.961,1.492,6.077,4.829,9.348,7.011
				c5.319-0.359,7.924-5.031,13.243-3.116c3.586,9.396-5.312,12.794-9.348,17.138c-0.329,2.666,2.332,2.34,3.115,3.896
				c4.457-4.62,10.047-2.122,16.358-0.78c0.101-1.397-0.772-1.821-2.337-1.557c3.796-6.333,12.211-8.045,21.812-8.569
				c5.742-3.086,7.841-9.816,10.905-15.58c3.378,1.036,6.38,2.45,10.905,2.337c-2.385,3.588-10.491,1.453-11.685,6.232
				c5.018,0.852,9.947-5.104,17.138-4.674c-0.073,10.719,9.28,12.01,19.474,12.463c1.607,4.105,4.585,6.841,4.674,12.465
				c2.067,3.646,7.352,4.074,10.906,6.23c4.128,8.077,6.366,18.042,6.232,30.381c-12.842,9.22,0.795,20.949,9.348,24.148
				c-3.713,11.355,0.929,18.577,6.23,24.927c-1.023,3.91-3.213,6.653-4.674,10.126c1.256,5.237,4.701,8.284,3.896,15.58
				c11.91,4.72,10.248,19.741,7.011,32.717c-10.068,3.217-7.458-10.061-14.8-7.011c-2.4,0.777,0.867,2.106,1.557,2.337
				c-2.818,4.971-9.248,6.331-15.578,7.791c-7.71,6.571-14.188,14.373-24.149,18.695c-0.97,1.886-1.928,3.783-2.337,6.231
				c-12.332-1.687-12.86,8.431-19.474,12.463c-3.951,0.316-5.424-1.847-7.79-3.115c2.502,9.442,8.012,15.876,14.021,21.811
				c-2.709,11.958,5.744,17.662,9.348,25.706c10.071,0.55,17.387,14.872,24.927,21.812c5.516,5.075,17.525,8.129,9.348,18.695
				c-2.049,0.806-4.78,0.933-7.789,0.778c-3.264,1.67-3.245,6.622-4.674,10.127c-5.966,4.133-16.961,5.55-17.917,12.464
				c-0.931,6.735,7.303,8.771,9.348,15.579c-4.514,6.896,4.173,7.694,2.337,16.358c-8.243,2.012-9.267-3.196-12.463-6.231
				c-6.168,1.084-10.017,0.331-14.801-1.558c-3.587-0.471-2.196,4.036-4.674,4.674c-13.386-4.236-20.372,8.223-28.821,10.126
				c-10.233,2.308-15.083-4.419-25.708-7.011c-3.375,3.376-2.009,11.493-7.011,13.243
				C218.17,406.627,217.392,406.627,216.611,406.627z"/>
		</defs>
		<clipPath id="SVGID_4_">
			<use xlink:href="#SVGID_15_"  overflow="visible"/>
		</clipPath>
		
			<rect x="70.699" y="12.146" clip-path="url(#SVGID_4_)" fill-rule="evenodd" clip-rule="evenodd" fill="#7B3655" stroke="#7B3655" stroke-miterlimit="10" width="295.485" height="131.641"/>
		<g clip-path="url(#SVGID_4_)">
			
				<rect x="70.699" y="143.343" fill-rule="evenodd" clip-rule="evenodd" fill="#E61C78" stroke="#E61C78" stroke-miterlimit="10" width="295.485" height="131.641"/>
			
				<rect x="70.699" y="274.096" fill-rule="evenodd" clip-rule="evenodd" fill="#F5C82D" stroke="#F5C62E" stroke-miterlimit="10" width="295.485" height="131.641"/>
		</g>
	</g>
</g>
</svg>
