<?xml version="1.0" encoding="utf-8"?>
<!-- Generator: Adobe Illustrator 16.0.0, SVG Export Plug-In . SVG Version: 6.00 Build 0)  -->
<!DOCTYPE svg PUBLIC "-//W3C//DTD SVG 1.1//EN" "http://www.w3.org/Graphics/SVG/1.1/DTD/svg11.dtd">
<svg version="1.1" id="Ebene_1" xmlns="http://www.w3.org/2000/svg" xmlns:xlink="http://www.w3.org/1999/xlink" x="0px" y="0px"
	 width="425.197px" height="425.197px" viewBox="0 0 425.197 425.197" enable-background="new 0 0 425.197 425.197"
	 xml:space="preserve">
<g>
	<g>
		<path opacity="0.25" d="M256.862,88.31c1.39-1.443,0.934-4.129-0.099-5.123c-0.688-0.662-3.735-1.343-5.123,0.1
			c-0.1,0.104,0.796,1.094,1.873,2.168l-2.511,2.138c-1.03-1.415-2.437-2.559-4.12-3.26l0.908-4.805
			c0.659-0.044,1.17-0.336,1.229-0.759c0.077-0.539-0.601-1.08-1.51-1.207c-0.911-0.129-1.71,0.201-1.786,0.739
			c-0.062,0.44,0.38,0.876,1.039,1.094l-0.833,4.599c-0.251-0.075-0.504-0.148-0.766-0.204c-1.529-0.327-3.047-0.268-4.465,0.098
			l-0.298-3.17c1.618-0.174,3.09-0.408,3.072-0.586c-0.201-1.99-2.543-3.384-3.969-3.24c-0.952,0.096-3.44,1.979-3.239,3.973
			c0.015,0.15,1.5,0.095,3.118-0.048l0.343,3.375c-3.021,1.125-5.424,3.714-6.148,7.1c-0.516,2.412-0.084,4.802,1.032,6.798
			l-1.332,1.339c0,0-1.111,0.805-0.483,1.461c0.628,0.654,1.491-0.4,1.491-0.4l1.156-1.136c1.36,1.737,3.312,3.026,5.638,3.524
			c1.031,0.221,2.059,0.265,3.054,0.161l-0.271,1.878c0,0-0.411,1.309,0.486,1.459c0.894,0.151,0.956-1.21,0.956-1.21l0.377-2.42
			c3.409-0.93,6.194-3.677,6.984-7.369c0.528-2.467,0.064-4.91-1.11-6.933l2.698-2.264C255.495,87.368,256.734,88.443,256.862,88.31
			z"/>
		<path opacity="0.25" d="M284.68,212.63h11.287l-2.823-77.795c0,0,1.208-9.675-5.24-9.594c-6.45,0.082-5.159,9.674-5.159,9.674
			l0.305,12.253H95.611c4.258-1.912,7.303-4.098,9.454-5.48c4.514-2.901-14.511-25.153-27.087-30.635s-43.856-5.159-46.436-1.289
			c-0.047,0.071-0.088,0.156-0.131,0.235l-0.435-18.698c0,0,1.21-9.674-5.238-9.593s-5.159,9.674-5.159,9.674l1.934,121.248h11.286
			l-0.893-38.373h250.819L284.68,212.63z M38.313,136.528c3.139,3.324,8.3,7.593,16.122,10.64H32.275l-0.599-25.733
			C32.956,127.204,35.408,133.451,38.313,136.528z"/>
		<g>
			<rect x="29.218" y="145.168" fill="#5CB990" width="255.879" height="18.864"/>
			<path fill="#7B3655" d="M20.512,210.63L18.578,89.382c0,0-1.29-9.593,5.159-9.674s5.238,9.593,5.238,9.593l2.823,121.329H20.512z
				"/>
			<rect x="25.349" y="161.13" fill="#7B3655" width="265.07" height="11.127"/>
		</g>
		<path fill="#83BACF" d="M29.542,107.764c-2.58,3.869,1.291,20.96,6.772,26.765c5.482,5.805,17.091,14.511,38.374,14.511
			c15.479,0,23.864-6.449,28.378-9.352c4.514-2.901-14.511-25.153-27.087-30.635S32.122,103.894,29.542,107.764z"/>
		<path fill="#83BACF" d="M29.542,107.764c-2.58,3.869,1.291,20.96,6.772,26.765c5.482,5.805,17.091,14.511,38.374,14.511
			c15.479,0,23.864-6.449,28.378-9.352c4.514-2.901-29.791-2.405-39.342-12.253C53.404,116.792,32.122,103.894,29.542,107.764z"/>
		<path opacity="0.25" d="M170.782,137.017c-4.938-6.971-22.655-20.622-23.528-33.982c-0.136-2.082,18.881,9.625,21.494,0.289
			c2.034-7.261,0.582-18.297-2.758-31.223c-0.111-0.429-0.431-0.771-0.863-1.041c-0.122-1.064-0.229-2.407-0.621-4.522
			c-0.513-2.771-3.092-12.636-4.359-10.438c-0.429,0.933,2.124,4.411,1.08,4.81c-0.418,0.426-2.824-7.086-3.953-6.381
			c-1.13,0.708,2.898,6.835,1.417,7.244c-0.66,0.146-3.212-6.266-4.696-5.333c-1.106,0.65,3.743,6.903,3.189,7.396
			c-0.559,0.494-3.388-4.522-4.208-3.861c-1.66,1.345,4.419,6.593,3.465,7.177c-0.605,0.37-2.328-1.507-3.231-1.021
			c-1.34,0.723,2.316,2.505,3.709,4.146c0.669,0.788,1.079,1.286,1.357,1.699c-0.429,0.563-0.624,1.275-0.418,2.158
			c0.398,1.701,1.889,12.054-0.435,12.925c-2.724,1.021-11.415-7.587-19.376-10.185c0.607-1.68,1.162-3.256,1.765-4.991
			c-0.019,0.003-0.04,0.005-0.059,0.008c2.34-0.367,4.06-1.148,5.307-2.983c2.079-3.061,3.48-19.747,2.044-30.838
			c0.011-0.012,0.027-0.023,0.038-0.035c0.421,3.241,0.598,6.963,0.587,10.683c1.516-3.554,4.085-11.213,2.074-18.759
			c-2.58-9.691-20.741-11.853-35.279-7.061c-12.875-2.454-20.898,12.783-18.281,36.827c0.558,5.128-0.236,10.16-1.735,14.858
			c-6.474-3.679-14.742-12.479-26.835-31.963c-0.071-0.114-0.447-0.179-1.008-0.193c-0.544-1.462-0.582-1.644-0.312-4.21
			c0.224-2.14,2.24-5.673,0.724-5.516c-1.019,0.107-1.383,2.631-2.093,2.665c-1.118,0.057,0.942-7.705-1.185-7.88
			c-1.051-0.083-0.558,5.655-1.299,5.562c-0.735-0.095-0.256-7.993-1.538-7.906c-1.751,0.067-0.243,6.801-0.87,7.053
			c-1.453,0.498-1.583-6.833-2.915-6.78c-1.33,0.054,0.919,7.613,0.335,7.499c-1.089,0.26-0.942-4.055-1.823-4.581
			c-2.284-1.102,1.148,8.499,2.288,11.077c0.894,2.023,1.581,3.21,2.084,4.173c-1.012,0.447-1.656,1.026-1.49,1.747
			c5.262,22.809,17.829,36.873,27.231,46.362c-3.689,5.445-6.858,9.039-6.583,9.678c2.358,5.474,10.89,7.992,18.706,9.555
			c2.672,15.348,12.671,37.821,22.899,38.29C137.03,149.958,175.702,143.963,170.782,137.017z M132.611,72.69
			c-0.087,0.057-0.177,0.111-0.25,0.178C132.434,72.803,132.523,72.747,132.611,72.69z M110.482,59.671
			c0.13-0.015,0.263-0.038,0.399-0.075v0.001C110.746,59.632,110.612,59.658,110.482,59.671z M111.514,53.477
			c-1.249-1.012-2.217-1.386-2.935-1.334c0.71-0.067,1.67,0.291,2.913,1.282C111.5,53.442,111.506,53.459,111.514,53.477z
			 M131.772,73.934c-0.125,0.565-0.095,1.234,0.008,1.95c0.845,0.091,1.569,0.16,2.364,0.245c-0.824-0.066-1.624-0.129-2.394-0.186
			C131.657,75.223,131.633,74.528,131.772,73.934z M132.202,73.047c-0.066,0.079-0.13,0.158-0.182,0.247
			C132.072,73.206,132.135,73.126,132.202,73.047z M131.933,73.468c-0.055,0.121-0.105,0.246-0.139,0.382
			C131.83,73.716,131.877,73.589,131.933,73.468z M132.837,72.55c0.107-0.052,0.237-0.087,0.363-0.126
			C133.075,72.463,132.944,72.498,132.837,72.55z M133.473,72.338c0.122-0.024,0.271-0.031,0.409-0.045
			C133.745,72.308,133.594,72.313,133.473,72.338z"/>
		<path fill="#7B3655" d="M108.919,56.59c-4.686,1.291-6.052-11.53,0.634-6.119c1.217-0.414,5.669-0.316,6.318-16.517
			c9.905,4.291,26.849,3.808,29.27,1.08c0.421,3.241,0.598,6.963,0.587,10.683c1.516-3.554,4.085-11.213,2.074-18.759
			c-2.58-9.691-20.741-11.853-35.279-7.061c-12.875-2.454-20.898,12.783-18.281,36.827c2.265,20.816-17.696,40.083-17.022,41.646
			c4.137,9.604,27.282,10.116,32.213,12.313c2.296-6.845-16.707-30.904-12.841-32.698c4.115-1.911,8.051-3.609,11.478-4.475
			C109.629,70.13,113.633,64.642,108.919,56.59z"/>
		<g>
			<path fill="#83BACF" d="M163.578,70.238c0.713,1.869-3.511,4.293-5.991,2.791c-1.063-3.705-0.439-3.126-2.67-5.753
				c-1.393-1.642-5.049-3.424-3.709-4.146c0.904-0.486,2.626,1.391,3.231,1.021c0.955-0.584-5.125-5.832-3.465-7.177
				c0.82-0.661,3.65,4.355,4.208,3.861c0.554-0.492-4.295-6.745-3.189-7.396c1.484-0.933,4.037,5.479,4.696,5.333
				c1.481-0.409-2.547-6.536-1.417-7.244c1.129-0.705,3.535,6.807,3.953,6.381c1.044-0.398-1.509-3.877-1.08-4.81
				c1.268-2.198,3.846,7.666,4.359,10.438C163.201,67.283,162.996,68.639,163.578,70.238z"/>
		</g>
		<g>
			<path fill="#83BACF" d="M58.869,42.549c0.465,1.946,5.32,1.566,6.522-1.074c-1.212-3.658-1.4-2.828-1.04-6.258
				c0.224-2.14,2.24-5.673,0.724-5.516c-1.019,0.107-1.383,2.631-2.093,2.665c-1.118,0.057,0.942-7.705-1.185-7.88
				c-1.051-0.083-0.558,5.655-1.299,5.562c-0.735-0.095-0.256-7.993-1.538-7.906c-1.751,0.067-0.243,6.801-0.87,7.053
				c-1.453,0.498-1.583-6.833-2.915-6.78c-1.33,0.054,0.919,7.613,0.335,7.499c-1.089,0.26-0.942-4.055-1.823-4.581
				c-2.284-1.102,1.148,8.499,2.288,11.077C57.515,39.896,58.446,40.901,58.869,42.549z"/>
		</g>
		<g>
			<g>
				<path fill="#E61C78" d="M132.79,73.18c8.689,0.714,19.529,12.042,22.631,10.879c2.323-0.871,0.833-11.224,0.435-12.925
					c-1.017-4.356,7.435-4.738,8.134-2.033c3.34,12.926,4.792,23.962,2.758,31.223c-2.613,9.336-21.629-2.371-21.494-0.289
					c0.873,13.36,18.59,27.012,23.528,33.982c4.92,6.946-33.752,12.941-49.958,12.198c-11.408-0.522-22.538-28.426-23.526-43.276
					c-0.582-8.715-29.91-22.393-38.727-60.608c-0.582-2.517,8.718-3.327,9.101-2.71c20.912,33.691,30.396,35.472,38.92,33.982
					C112.772,72.173,118.708,72.026,132.79,73.18z"/>
			</g>
		</g>
		<g>
			<g>
				<g>
					<defs>
						<path id="SVGID_1_" d="M143.812,29.016c3.286,9.56,1.76,33.191-0.754,36.892c-2.071,3.047-5.433,3.199-10.805,3.346
							c-4.576,0.124-1.56,5.478-2.146,7.541c-6.148,4.965-22.741,0.544-22.322-1.592c0.602-3.062,1.638-13.082,1.097-18.606
							c-4.686,1.289-6.052-11.531,0.632-6.119c-6.017-13.33-4.104-20.299,5.165-25.608
							C127.386,17.589,141.353,22.672,143.812,29.016z"/>
					</defs>
					<use xlink:href="#SVGID_1_"  overflow="visible" fill="#83BACF"/>
					<clipPath id="SVGID_2_">
						<use xlink:href="#SVGID_1_"  overflow="visible"/>
					</clipPath>
					<g clip-path="url(#SVGID_2_)">
						<g>
							<g>
								<path fill="none" d="M135.739,44.052c0.288,6.265,2.61,8.367,2.549,9.105c-0.164,1.964-2.712,1.987-3.403,1.438
									C134.193,54.046,135.009,42.966,135.739,44.052z"/>
							</g>
							<g>
								<defs>
									<path id="SVGID_3_" d="M123.17,48.978c0.49,0.35,1.75,0.554,3.215,0.484c1.402-0.069,2.592-0.371,3.09-0.742"/>
								</defs>
								<clipPath id="SVGID_4_">
									<use xlink:href="#SVGID_3_"  overflow="visible"/>
								</clipPath>
								
									<use xlink:href="#SVGID_3_"  overflow="visible" fill="none" stroke="#000100" stroke-width="0.75" stroke-linecap="round" stroke-miterlimit="10"/>
							</g>
							<g>
								<defs>
									<path id="SVGID_5_" d="M140.799,47.466c0.462,0.366,1.748,0.584,3.248,0.513c1.871-0.088,3.365-0.594,3.34-1.127"/>
								</defs>
								<clipPath id="SVGID_6_">
									<use xlink:href="#SVGID_5_"  overflow="visible"/>
								</clipPath>
								
									<use xlink:href="#SVGID_5_"  overflow="visible" fill="none" stroke="#000100" stroke-width="0.75" stroke-linecap="round" stroke-miterlimit="10"/>
							</g>
							<g>
								<path fill="none" stroke="#7B3655" stroke-linecap="round" stroke-miterlimit="10" d="M121.712,45.357
									c3.107-2.529,7.219-1.22,7.219-1.22"/>
								<path fill="none" stroke="#7B3655" stroke-linecap="round" stroke-miterlimit="10" d="M140.946,43.938
									c3.34-2.212,7.305-0.503,7.305-0.503"/>
							</g>
						</g>
					</g>
				</g>
				<g>
					<path fill="none" stroke="#7B3655" stroke-miterlimit="10" d="M141.596,60.186c-1.333-0.054-2.651-0.304-4.389-0.233
						c-1.714,0.069-2.626,0.773-4.291,1.279c0.656,2.356,2.14,4.552,4.761,4.275C140.719,65.184,141.25,62.378,141.596,60.186z"/>
				</g>
			</g>
			<g>
				<path fill="#E61C78" d="M136.441,44.167c0.129,6.428,2.118,9.845,2.2,10.6c0.114,1.042-2.742,1.416-3.436,0.834
					C134.511,55.021,135.723,43.034,136.441,44.167z"/>
			</g>
		</g>
		<g>
			<path fill="#7B3655" d="M108.919,56.59c-4.686,1.291-6.052-11.53,0.634-6.119c1.217-0.414,5.669-0.316,6.318-16.517
				c9.905,4.291,26.849,3.808,29.27,1.08c0.421,3.241,0.598,6.963,0.587,10.683c1.516-3.554,4.085-11.213,2.074-18.759
				c-2.58-9.691-20.741-11.853-35.279-7.061c-12.875-2.454-20.898,12.783-18.281,36.827c2.265,20.816,10.35,7.874,13.827,16.786
				C109.629,70.13,113.633,64.642,108.919,56.59z"/>
			<path fill="#7B3655" d="M132.291,69.247c-2.551,0.065-2.792,1.684-2.51,3.637c1.295,0.14,2.287,0.223,3.723,0.4
				c0.726,0.091,1.874,0.413,2.542,0.59c0.607-1.68,1.162-3.256,1.765-4.991C136.259,69.127,134.437,69.194,132.291,69.247z"/>
		</g>
		<path opacity="0.25" d="M135.731,208.116c-0.967,1.936,30.957-3.549,36.761-2.42c5.805,1.129,9.028,5.321,14.027,4.838
			c5-0.482,30.472-11.127,43.05-11.125c12.577,0.001,24.506,4.836,34.826,4.836c10.32,0.002,24.669-0.482,24.669-0.482
			s2.739-66.591-2.418-69.654c-5.159-3.062-25.799-27.571-43.051-27.087c-17.25,0.484-22.733,12.737-32.891,17.897
			s-34.345-6.129-41.115-2.418c-6.771,3.709-16.447,4.674-24.185,8.705c-7.739,4.031-24.833,24.668-34.828,22.251
			c-9.995-2.418,25.796,15.317,29.022,27.088C142.826,192.314,136.698,206.18,135.731,208.116z"/>
		<path fill="#83BACF" d="M132.731,206.116c-0.967,1.936,30.957-3.549,36.761-2.42c5.805,1.129,9.028,5.321,14.027,4.838
			c5-0.482,30.472-11.127,43.05-11.125c12.577,0.001,24.506,4.836,34.826,4.836c10.32,0.002,24.669-0.482,24.669-0.482
			s2.739-66.591-2.418-69.654c-5.159-3.062-25.799-27.571-43.051-27.087c-17.25,0.484-22.733,12.737-32.891,17.897
			s18.217-12.9,15.962-14.995c-2.256-2.096-10.32-7.578-20.8-9.19c-10.479-1.611-29.507,18.057-36.277,21.768
			c-6.771,3.709-16.447,4.674-24.185,8.705c-7.739,4.031-24.833,24.668-34.828,22.251c-9.995-2.418,25.796,15.317,29.022,27.088
			C139.826,190.314,133.698,204.18,132.731,206.116z"/>
		<path fill="#7B3655" d="M282.68,210.63l-1.934-77.715c0,0-1.291-9.592,5.159-9.674c6.448-0.081,5.24,9.594,5.24,9.594
			l2.823,77.795H282.68z"/>
		<g>
			<path fill="#7B3655" d="M243.989,91.351l-1.684,10.813c0,0-0.062,1.361-0.956,1.21c-0.897-0.15-0.486-1.459-0.486-1.459
				l1.562-10.848L243.989,91.351z"/>
			<path fill="#7B3655" d="M239.093,89.816l-7.806,7.671c0,0-0.863,1.055-1.491,0.4c-0.628-0.656,0.483-1.461,0.483-1.461
				l7.729-7.769L239.093,89.816z"/>
			<path fill="#7B3655" d="M237.169,75.25l1.026,10.894c0,0,0.223,1.337-0.37,1.395c-0.593,0.06-0.587-1.307-0.587-1.307
				l-1.107-10.9L237.169,75.25z"/>
			<path fill="#7B3655" d="M252.118,82.455l-8.383,7.032c0,0-0.973,0.944-1.358,0.488c-0.384-0.455,0.743-1.226,0.743-1.226
				l8.341-7.103L252.118,82.455z"/>
			<path fill="#7B3655" d="M244.977,75.545l-2.032,10.752c0,0-0.155,1.346-0.74,1.239c-0.586-0.11-0.202-1.42-0.202-1.42
				l1.952-10.781L244.977,75.545z"/>
			<circle fill="#FFFFFF" stroke="#E61C78" stroke-width="4" stroke-miterlimit="10" cx="240.123" cy="90.333" r="9.76"/>
			<path fill="#E61C78" d="M253.862,85.31c-0.27,0.282-5.455-4.78-5.222-5.023c1.388-1.442,4.435-0.762,5.123-0.1
				C254.796,81.181,255.252,83.866,253.862,85.31z"/>
			<path fill="#E61C78" d="M240.474,77.131c0.042,0.392-7.175,1.065-7.208,0.732c-0.201-1.993,2.287-3.877,3.239-3.973
				C237.931,73.747,240.272,75.141,240.474,77.131z"/>
			
				<ellipse transform="matrix(0.9901 0.1405 -0.1405 0.9901 13.0363 -33.5845)" fill="#7B3655" cx="244.373" cy="75.535" rx="1.665" ry="0.984"/>
			<path fill="#7B3655" d="M240.534,91.069l-4.723,0.224c0,0-0.582,0.095-0.595-0.308c-0.014-0.4,0.576-0.339,0.576-0.339
				l4.725-0.278L240.534,91.069z"/>
			<path fill="#7B3655" d="M240.157,90.862l2.001-5.554c0,0,0.199-0.702,0.485-0.602c0.288,0.104-0.024,0.769-0.024,0.769
				l-1.964,5.574L240.157,90.862z"/>
			<circle fill="#7B3655" cx="240.419" cy="90.666" r="0.492"/>
		</g>
		<g>
			<path fill-rule="evenodd" clip-rule="evenodd" fill="#79304A" d="M255.573,93.567c-0.053-0.274-0.16-0.832-0.391-0.863
				c-0.192-0.024-0.264,0.095-0.274,0.114c-0.165,0.282,0.376,1.122,0.034,2.128c-0.339,1.006-1.071,0.911-0.963,1.497
				c0.162,0.909,1.163-0.14,1.502-0.974C255.714,94.892,255.665,93.998,255.573,93.567z"/>
			<path fill-rule="evenodd" clip-rule="evenodd" fill="#79304A" d="M253.753,91.019c-0.132-0.562-0.122-1.088-0.553-0.841
				c-0.437,0.245,0.044,1.035,0.031,2.065c-0.005,0.393-0.088,0.923-0.168,1.349c-0.148,0.763-0.478,1.421-0.896,1.977
				c-0.334,0.442-0.88,0.851-0.507,1.274c0.318,0.361,1.06-0.616,1.425-1.277C253.713,94.429,254.163,92.826,253.753,91.019z"/>
		</g>
		<g>
			<path fill-rule="evenodd" clip-rule="evenodd" fill="#79304A" d="M224.757,83.79c-0.027,0.278-0.089,0.842,0.124,0.939
				c0.177,0.079,0.28-0.014,0.295-0.029c0.24-0.222-0.033-1.182,0.588-2.046c0.617-0.863,1.291-0.56,1.358-1.151
				c0.108-0.916-1.153-0.204-1.721,0.494C225.008,82.481,224.796,83.351,224.757,83.79z"/>
			<path fill-rule="evenodd" clip-rule="evenodd" fill="#79304A" d="M225.757,86.758c-0.038,0.575-0.202,1.077,0.283,0.967
				c0.49-0.108,0.261-1.004,0.572-1.985c0.12-0.373,0.354-0.857,0.554-1.24c0.364-0.688,0.871-1.221,1.434-1.631
				c0.448-0.325,1.09-0.557,0.856-1.07c-0.198-0.44-1.193,0.278-1.734,0.806C226.789,83.509,225.892,84.909,225.757,86.758z"/>
		</g>
	</g>
</g>
<g>
	<g>
		<path opacity="0.25" d="M398.964,276.546c-6.45-0.081-5.24,9.594-5.24,9.594l-0.435,18.697c-0.043-0.079-0.084-0.164-0.131-0.235
			c-2.58-3.869-33.859-4.191-46.436,1.289c-12.577,5.481-31.602,27.732-27.088,30.635c2.152,1.383,5.197,3.569,9.457,5.481H141.65
			l0.305-12.253c0,0,1.289-9.592-5.159-9.675c-6.449-0.081-5.239,9.594-5.239,9.594l-2.823,77.796h11.286l0.956-38.374h250.818
			l-0.893,38.374h11.286l1.936-121.249C404.122,286.22,405.411,276.627,398.964,276.546z M386.386,331.366
			c2.905-3.076,5.357-9.324,6.637-15.093l-0.599,25.733h-22.162C378.085,338.96,383.247,334.69,386.386,331.366z"/>
		<g>
			<rect x="135.603" y="340.007" fill="#5CB990" width="255.878" height="18.864"/>
			<path fill="#7B3655" d="M400.187,405.469l1.936-121.249c0,0,1.289-9.593-5.158-9.674c-6.45-0.081-5.24,9.594-5.24,9.594
				L388.9,405.469H400.187z"/>
			<rect x="130.282" y="355.969" fill="#7B3655" width="265.068" height="11.126"/>
		</g>
		<path fill="#83BACF" d="M391.157,302.602c2.58,3.869-1.291,20.96-6.771,26.765c-5.481,5.806-17.091,14.511-38.374,14.511
			c-15.478,0-23.863-6.449-28.378-9.352c-4.514-2.902,14.511-25.153,27.088-30.635C357.298,298.41,388.577,298.732,391.157,302.602z
			"/>
		<path fill="#83BACF" d="M391.157,302.602c2.58,3.869-1.291,20.96-6.771,26.765c-5.481,5.806-17.091,14.511-38.374,14.511
			c-15.478,0-23.863-6.449-28.378-9.352c-4.514-2.902,29.791-2.404,39.342-12.253C367.295,311.63,388.577,298.732,391.157,302.602z"
			/>
		<path opacity="0.25" d="M379.612,302.656c-0.285-15.303-8.327-31.729-18.327-30.96c-6.168,0.472-11.445,3.679-14.794,6.287
			c-0.474-0.795-0.904-1.266-0.904-1.266l0.447,1.627c-0.683,0.549-1.28,1.065-1.767,1.51c0.664-0.234,1.33-0.456,1.996-0.677
			l0.008,0.031c-1.072,0.354-2.145,0.729-3.208,1.119l-0.415-1.666c-0.35,0.105-0.447,0.883-0.306,1.934
			c-7.763,2.905-14.809,6.506-16.249,8.451c-1.316,1.779-1.488,3.657-1.063,5.98c-0.002-0.014-0.006-0.028-0.009-0.042
			c-1.35,1.072-2.585,2.061-3.878,3.112c-13.13-12.379-38.841,13.188-72.365,9.914c-8.995-0.879,8.61,36.207,16.067,38.476
			c10.823,3.293,26.814,6.331,40.584,5.779c1.018,0.472,2.06,0.775,3.127,0.851c0.295,0.021,1.164-0.468,2.486-1.3
			c10.014-1.247,18.095-4.904,20.875-12.491c5.908-2.993,12.436-5.719,18.982-7.241
			C374.455,326.605,386.183,313.996,379.612,302.656z M353.974,317.927c-0.191-0.693-0.864-1.48-2.228-2.323
			c0.017,0.001,0.032,0.002,0.049,0.003C353.141,316.449,353.798,317.235,353.974,317.927z M325.815,303.199
			c0.116-0.076,0.216-0.164,0.312-0.256C326.032,303.036,325.929,303.122,325.815,303.199z M326.265,302.802
			c0.065-0.076,0.118-0.162,0.17-0.248C326.383,302.64,326.33,302.725,326.265,302.802z M326.554,302.338
			c0.037-0.088,0.058-0.187,0.082-0.284C326.612,302.151,326.59,302.25,326.554,302.338z M346.181,318.224
			c0.01,0.146,0.032,0.283,0.063,0.416c-0.033-0.132-0.055-0.27-0.067-0.415C346.178,318.225,346.179,318.224,346.181,318.224z
			 M346.987,278.935c2.605-0.842,5.183-1.557,7.556-2.058c-0.008,0.015-0.013,0.033-0.021,0.048
			c-2.363,0.499-4.925,1.207-7.519,2.045C346.998,278.958,346.993,278.946,346.987,278.935z M326.697,301.782
			c0.012-0.111,0.002-0.24-0.002-0.364C326.699,301.542,326.709,301.671,326.697,301.782z M326.686,301.114
			c-0.015-0.113-0.057-0.246-0.085-0.367C326.629,300.869,326.67,301.001,326.686,301.114z M325.742,303.248
			c-0.225,0.144-0.473,0.269-0.75,0.37c-0.004-0.009-0.008-0.018-0.012-0.025C325.258,303.496,325.519,303.386,325.742,303.248z"/>
		<path fill="#7B3655" d="M344.171,316.187c0.334,4.849,12.885,1.901,5.566-2.618c-0.011-1.287-1.574-5.457,13.501-11.425
			c-7.325-7.928-12.47-24.079-10.695-27.267c-3.198,0.675-6.769,1.737-10.276,2.978c2.854-2.604,9.232-7.562,17.019-8.158
			c10-0.769,18.042,15.657,18.327,30.96c6.57,11.34-5.157,23.949-28.713,29.429c-20.396,4.743-40.646,21.15-42.343,21.032
			c-10.432-0.73-18.568-22.405-22.271-26.333C289.985,320.356,335.016,314.399,344.171,316.187z"/>
		<g>
			<path fill="#E61C78" d="M323.356,302.392c-11.223-25.301-38.989,7.292-76.579,3.62c-8.995-0.879,8.61,36.207,16.067,38.476
				c25.347,7.713,79.05,14.042,66.143-23.928C323.352,303.979,326.092,309.728,323.356,302.392z"/>
		</g>
		<g>
			<g>
				<g>
					<defs>
						<path id="SVGID_7_" d="M358.661,274.142c-10.105,0.058-31.907,9.31-34.568,12.905c-2.191,2.962-1.223,6.187,0.415,11.304
							c1.396,4.359-4.653,3.283-6.407,4.52c-2.651,7.441,7.005,21.643,8.881,20.541c2.691-1.58,11.805-5.869,17.199-7.188
							c0.332,4.85,12.883,1.899,5.565-2.62c14.569,1.274,20.514-2.837,22.46-13.339
							C374.877,285.866,365.462,274.365,358.661,274.142z"/>
					</defs>
					<use xlink:href="#SVGID_7_"  overflow="visible" fill="#83BACF"/>
					<clipPath id="SVGID_8_">
						<use xlink:href="#SVGID_7_"  overflow="visible"/>
					</clipPath>
					<g clip-path="url(#SVGID_8_)">
						<g>
							<g>
								<path fill="none" d="M347.14,286.73c-6.008,1.798-8.758,0.303-9.436,0.604c-1.8,0.804-0.979,3.217-0.231,3.688
									C338.22,291.491,348.407,287.061,347.14,286.73z"/>
							</g>
							<g>
								<defs>
									<path id="SVGID_9_" d="M346.646,300.222c-0.49-0.349-1.102-1.471-1.519-2.875c-0.398-1.346-0.509-2.568-0.322-3.161"/>
								</defs>
								<clipPath id="SVGID_10_">
									<use xlink:href="#SVGID_9_"  overflow="visible"/>
								</clipPath>
								
									<use xlink:href="#SVGID_9_"  overflow="visible" fill="none" stroke="#000100" stroke-width="0.75" stroke-linecap="round" stroke-miterlimit="10"/>
							</g>
							<g>
								<defs>
									<path id="SVGID_11_" d="M342.245,283.083c-0.497-0.314-1.13-1.455-1.558-2.895c-0.535-1.795-0.552-3.372-0.04-3.526"/>
								</defs>
								<clipPath id="SVGID_12_">
									<use xlink:href="#SVGID_11_"  overflow="visible"/>
								</clipPath>
								
									<use xlink:href="#SVGID_11_"  overflow="visible" fill="none" stroke="#000100" stroke-width="0.75" stroke-linecap="round" stroke-miterlimit="10"/>
							</g>
							<g>
								<path fill="none" stroke="#7B3655" stroke-linecap="round" stroke-miterlimit="10" d="M350.544,300.4
									c1.36-3.769-1.235-7.217-1.235-7.217"/>
								<path fill="none" stroke="#7B3655" stroke-linecap="round" stroke-miterlimit="10" d="M345.525,281.78
									c0.983-3.885-1.938-7.062-1.938-7.062"/>
							</g>
						</g>
					</g>
				</g>
				<g>
					<path fill="none" stroke="#7B3655" stroke-miterlimit="10" d="M329.978,286.535c0.491,1.242,1.162,2.403,1.671,4.066
						c0.502,1.642,0.14,2.734,0.211,4.471c-2.441,0.161-5.004-0.514-5.607-3.079C325.55,289.016,328.022,287.588,329.978,286.535z"
						/>
				</g>
			</g>
			<g>
				<path fill="#E61C78" d="M346.798,286.104c-6.107,2.004-9.989,1.257-10.73,1.429c-1.021,0.237-0.431,3.056,0.349,3.52
					C337.193,291.515,348.106,286.411,346.798,286.104z"/>
			</g>
		</g>
		<g>
			<path fill="#7B3655" d="M344.171,316.187c0.334,4.849,12.885,1.901,5.566-2.618c-0.011-1.287-1.574-5.457,13.501-11.425
				c-7.325-7.928-12.47-24.079-10.695-27.267c-3.198,0.675-6.769,1.737-10.276,2.978c2.854-2.604,9.232-7.562,17.019-8.158
				c10-0.769,18.042,15.657,18.327,30.96c6.57,11.34-5.157,23.949-28.713,29.429c-20.396,4.743-10.855-7.165-20.414-7.501
				C331.158,319.993,335.016,314.399,344.171,316.187z"/>
			<path fill="#7B3655" d="M324.501,298.313c0.783,2.43-0.666,3.191-2.603,3.571c-0.56-1.176-0.966-2.084-1.608-3.38
				c-0.325-0.656-1.009-1.633-1.398-2.204c1.387-1.131,2.69-2.173,4.129-3.315C323.303,294.528,323.841,296.271,324.501,298.313z"/>
		</g>
		<path opacity="0.25" d="M329.432,402.21c4.648,7.745-51.044-2.804-57.716-1.675s-10.375,5.32-16.121,4.837
			c-5.746-0.482-35.021-11.126-49.476-11.125c-14.454,0.002-28.164,4.837-40.024,4.837c-11.86,0.001-28.353-0.483-28.353-0.483
			s-3.147-66.591,2.78-69.653c5.929-3.063,29.65-27.571,49.476-27.088c7.506,0.185,28.014,3.396,44.757,2.173
			c27.486-2.005,53.695-9.063,61.179-10.064c12.043-1.612,7.751,22.199,25.27,31.658C335.725,333.47,320.145,386.729,329.432,402.21
			z"/>
		<path fill="#83BACF" d="M326.432,400.21c4.648,7.745-51.044-2.804-57.716-1.675s-10.375,5.32-16.121,4.837
			c-5.746-0.482-35.021-11.126-49.476-11.125c-14.454,0.002-28.164,4.837-40.024,4.837c-11.86,0.001-28.353-0.483-28.353-0.483
			s-3.147-66.591,2.78-69.653c5.929-3.063,29.65-27.571,49.476-27.088c7.506,0.185,28.014,3.396,44.757,2.173
			c27.486-2.005,53.695-9.063,61.179-10.064c12.043-1.612,7.751,22.199,25.27,31.658C332.725,331.47,317.145,384.729,326.432,400.21
			z"/>
		<path fill="#7B3655" d="M138.02,405.469l1.936-77.715c0,0,1.289-9.592-5.159-9.675c-6.449-0.081-5.239,9.594-5.239,9.594
			l-2.823,77.796H138.02z"/>
	</g>
</g>
<g>
	<path fill="#E61C78" d="M377.953,219.106l8.585,17.678l17.722-14.35l-8.344-1.127l0,0c10.062-33.337,4.649-65.358-19.353-94.8
		c-24.794-30.412-65.928-41.093-106.546-31.749c0,0,66.894-6.223,98.712,37.77c26.771,37.012,21.294,64.888,17.498,87.593l0,0
		L377.953,219.106z"/>
</g>
</svg>
