
<svg width="20px" height="20px" viewBox="3 0 20 20" version="1.1" xmlns="http://www.w3.org/2000/svg" xmlns:xlink="http://www.w3.org/1999/xlink">
    <!-- Generator: Sketch 42 (36781) - http://www.bohemiancoding.com/sketch -->
    <desc>Created with Sketch.</desc>
    <defs></defs>
    <g id="close" stroke="none" stroke-width="1" fill="none" fill-rule="evenodd" transform="translate(3.000000, 0.000000)">
        <path d="M11.3,10.2 L18.9,2.6 C19.3,2.2 19.3,1.6 18.9,1.2 C18.5,0.8 17.9,0.8 17.5,1.2 L9.9,8.8 L2.3,1.2 C1.9,0.8 1.3,0.8 0.9,1.2 C0.5,1.6 0.5,2.2 0.9,2.6 L8.5,10.3 L0.9,17.9 C0.5,18.3 0.5,18.9 0.9,19.3 C1.1,19.5 1.4,19.6 1.6,19.6 C1.9,19.6 2.1,19.5 2.3,19.3 L9.9,11.7 L17.5,19.3 C17.7,19.5 18,19.6 18.2,19.6 C18.5,19.6 18.7,19.5 18.9,19.3 C19.3,18.9 19.3,18.3 18.9,17.9 L11.3,10.2 Z" id="Shape" fill="#FFFFFF" fill-rule="nonzero"></path>
    </g>
</svg>