<?xml version="1.0" encoding="utf-8"?>
<!-- Generator: Adobe Illustrator 21.0.0, SVG Export Plug-In . SVG Version: 6.00 Build 0)  -->
<svg version="1.1" id="Ebene_1" xmlns="http://www.w3.org/2000/svg" xmlns:xlink="http://www.w3.org/1999/xlink" x="0px" y="0px"
	 viewBox="0 0 25.8 20.7" style="enable-background:new 0 0 25.8 20.7;" xml:space="preserve">
<style type="text/css">
	.st0{fill:#5CB990;}
	.st1{fill:none;stroke:#5CB990;stroke-width:3;stroke-linecap:round;stroke-linejoin:round;stroke-miterlimit:10;}
	.st2{fill:#E42277;}
	.st3{fill:none;stroke:#5CB990;stroke-miterlimit:10;}
	.st4{fill:#333333;}
	.st5{opacity:0.75;fill:#333333;}
	.st6{opacity:0.5;fill:#333333;}
	.st7{opacity:0.35;fill:#333333;}
	.st8{opacity:0.875;fill:#333333;}
	.st9{opacity:0.64;fill:#333333;}
	.st10{opacity:0.48;fill:#333333;}
	.st11{opacity:0.23;fill:#333333;}
</style>
<g>
	<g>
		<path class="st0" d="M20.7,17.2l0-6.9c0-1.8-1.8-1.8-1.8-1.8h-0.5L18.3,10l0,0.5c0.4,0.6,0.6,1.3,0.6,2c0,0.9-0.3,1.8-1,2.5
			c-0.7,0.7-1.5,1.1-2.5,1.1c-1,0-1.8-0.4-2.5-1.1c-0.7-0.7-1-1.5-1-2.5c0-0.7,0.2-1.3,0.5-1.9l0-0.7l-0.1-1.5l-6.4,0
			c-1.4,0-1.7,1.1-1.8,1.6c0,0,0,0,0,0c0,0,0,0.1,0,0.1c0,0,0,0,0,0.1c0,0,0,0,0,0c0,0,0,0,0,0l0,3.7v3.7c0,0.2,0,0.4,0.1,0.6
			c0.3,1.2,1.7,1.2,1.7,1.2l13,0l0,0l3.6,0L20.7,17.2z"/>
	</g>
	<g>
		<path class="st0" d="M15.4,11c-0.4,0-0.8,0.1-1.1,0.4c-0.3,0.3-0.4,0.7-0.4,1.1c0,0.4,0.1,0.8,0.4,1.1c0.3,0.3,0.7,0.5,1.1,0.5
			c0.4,0,0.8-0.2,1.1-0.5c0.3-0.3,0.4-0.7,0.4-1.1c0-0.4-0.1-0.8-0.4-1.1C16.2,11.1,15.8,11,15.4,11z"/>
		<polygon class="st0" points="16.3,9.9 16.7,0.9 14,0.9 14.4,9.9 		"/>
	</g>
</g>
</svg>
