<?xml version="1.0" encoding="utf-8"?>
<!-- Generator: Adobe Illustrator 21.0.0, SVG Export Plug-In . SVG Version: 6.00 Build 0)  -->
<svg version="1.1" id="Ebene_1" xmlns="http://www.w3.org/2000/svg" xmlns:xlink="http://www.w3.org/1999/xlink" x="0px" y="0px"
	 viewBox="0 0 25.8 20.7" style="enable-background:new 0 0 25.8 20.7;" xml:space="preserve">
<style type="text/css">
	.st0{fill:#5CB990;}
	.st1{fill:none;stroke:#5CB990;stroke-width:3;stroke-linecap:round;stroke-linejoin:round;stroke-miterlimit:10;}
	.st2{fill:#E42277;}
	.st3{fill:none;stroke:#5CB990;stroke-miterlimit:10;}
	.st4{fill:#333333;}
	.st5{opacity:0.75;fill:#333333;}
	.st6{opacity:0.5;fill:#333333;}
	.st7{opacity:0.35;fill:#333333;}
	.st8{opacity:0.875;fill:#333333;}
	.st9{opacity:0.64;fill:#333333;}
	.st10{opacity:0.48;fill:#333333;}
	.st11{opacity:0.23;fill:#333333;}
</style>
<g>
	<g>
		<path class="st2" d="M7.1,12.4l-3.8,5.1c-0.2,0.3-0.3,0.7-0.1,1c0.2,0.3,0.5,0.6,0.9,0.6H11C8.6,16.9,7.6,14.3,7.1,12.4z"/>
		<path class="st2" d="M17.8,17.5c0,0-2.4-2.9-3.3-4.6c-1-1.9-1.8-5.2-1.8-5.2c-0.1-0.4-0.4-0.7-0.8-0.8c-0.4-0.1-0.8,0.1-1,0.4
			l-2.2,2.9c0.1,1.2,0.8,6,5.6,8.9H17c0.4,0,0.7-0.2,0.9-0.6C18.1,18.2,18,17.8,17.8,17.5z"/>
	</g>
	<g>
		<path class="st2" d="M14.7,8.2c-0.2,0-0.3,0-0.5-0.1c-0.5-0.3-0.6-0.9-0.4-1.4c0.1-0.1,0.1-0.2,0.2-0.3c1.4-1.6,1.7-3.2,1.7-4.3
			c0-0.6,0.4-1,1-1c0.6,0,1,0.4,1,1c0,1.5-0.3,3.6-2.2,5.7c0,0,0-0.1,0-0.1C15.3,8,15,8.2,14.7,8.2z"/>
	</g>
	<g>
		<path class="st2" d="M15.9,12.7c-0.1,0-0.2,0-0.3-0.1c-0.5-0.2-0.8-0.7-0.6-1.3c1.5-4.1,5.8-4,7.1-4c0.6,0,1,0.5,1,1
			c0,0.5-0.4,1-1,1c-0.2,0-3.8-0.5-5.2,2.6C16.7,12.4,16.3,12.7,15.9,12.7z"/>
	</g>
	<g>
		<path class="st2" d="M18.8,16.8c-0.3,0-0.6-0.1-0.8-0.4c-0.4-0.4-0.3-1.1,0.1-1.4c1.7-1.4,3.1-0.8,3.5-0.3c0.4,0.4,0.3,1-0.1,1.4
			c-0.4,0.3-1,0.3-1.4,0c-0.1,0-0.3,0-0.8,0.4C19.2,16.7,19,16.8,18.8,16.8z M20.2,16.2L20.2,16.2L20.2,16.2z M20.2,16.1
			C20.2,16.1,20.2,16.1,20.2,16.1C20.2,16.1,20.2,16.1,20.2,16.1z M20.1,16.1L20.1,16.1L20.1,16.1z"/>
	</g>
	<g>
		<ellipse transform="matrix(0.5567 -0.8307 0.8307 0.5567 5.8253 18.0562)" class="st2" cx="19.8" cy="3.6" rx="0.9" ry="0.9"/>
	</g>
	<g>
		<ellipse transform="matrix(0.5567 -0.8307 0.8307 0.5567 -2.2865 21.2156)" class="st2" cx="18.7" cy="12.8" rx="0.9" ry="0.9"/>
	</g>
	<g>
		<ellipse transform="matrix(0.4073 -0.9133 0.9133 0.4073 4.4629 14.0177)" class="st2" cx="13" cy="3.6" rx="0.9" ry="0.9"/>
	</g>
</g>
</svg>
