<?xml version="1.0" encoding="utf-8"?>
<!-- Generator: Adobe Illustrator 21.0.0, SVG Export Plug-In . SVG Version: 6.00 Build 0)  -->
<svg version="1.1" id="Ebene_1" xmlns="http://www.w3.org/2000/svg" xmlns:xlink="http://www.w3.org/1999/xlink" x="0px" y="0px"
	 viewBox="0 0 25.8 20.7" style="enable-background:new 0 0 25.8 20.7;" xml:space="preserve">
<style type="text/css">
	.st0{fill:#5CB990;}
	.st1{fill:none;stroke:#5CB990;stroke-width:3;stroke-linecap:round;stroke-linejoin:round;stroke-miterlimit:10;}
	.st2{fill:#E42277;}
	.st3{fill:none;stroke:#5CB990;stroke-miterlimit:10;}
	.st4{fill:#333333;}
	.st5{opacity:0.75;fill:#333333;}
	.st6{opacity:0.5;fill:#333333;}
	.st7{opacity:0.35;fill:#333333;}
	.st8{opacity:0.875;fill:#333333;}
	.st9{opacity:0.64;fill:#333333;}
	.st10{opacity:0.48;fill:#333333;}
	.st11{opacity:0.23;fill:#333333;}
</style>
<g>
	<path class="st4" d="M16.1,1.2c-2.2,0-4,1.8-4,4s1.8,4,4,4s4-1.8,4-4S18.3,1.2,16.1,1.2 M16.1,3.2c1.1,0,2,0.9,2,2s-0.9,2-2,2
		s-2-0.9-2-2S15.1,3.2,16.1,3.2"/>
	<path class="st4" d="M8.9,3.7c-2.2,0-4,1.8-4,4c0,2.2,1.7,3.9,3.9,4c0.5-1.2,1.6-2.1,2.9-2.4c-1-1.1-1.6-2.5-1.6-4.1
		c0-0.4,0-0.8,0.1-1.2C9.9,3.8,9.4,3.7,8.9,3.7 M8.2,5.9c0.1,0.9,0.3,1.8,0.7,2.6C8.5,8.7,8.2,9,7.9,9.4c-0.6-0.3-1-1-1-1.7
		C7,6.9,7.5,6.2,8.2,5.9"/>
	<path class="st4" d="M12.5,17.8L12.5,17.8l0-4.4c0-0.1,0-0.2,0-0.2c0,0,0.1,0,0.2,0h7.2c0.1,0,0.2,0,0.2,0c0,0,0,0,0,0
		c0,0,0,0,0,0.1l0,3.2h0v3.2h2l0-6.5c0-1.5-1.1-2.2-2.2-2.2h-7.2c-1.5,0-2.2,1.1-2.2,2.2l0,6.4h2V17.8z"/>
	<path class="st4" d="M5.5,17.8L5.5,17.8l0-2.3c0,0,0,0,0,0c0,0,0,0,0,0h1h0v4.3h2l0-6.3h-3c-1.4,0-2,1-2,2v4.3h2V17.8z"/>
</g>
</svg>
