<?xml version="1.0" encoding="utf-8"?>
<!-- Generator: Adobe Illustrator 21.0.0, SVG Export Plug-In . SVG Version: 6.00 Build 0)  -->
<svg version="1.1" id="Ebene_1" xmlns="http://www.w3.org/2000/svg" xmlns:xlink="http://www.w3.org/1999/xlink" x="0px" y="0px"
	 viewBox="0 0 25.8 20.7" style="enable-background:new 0 0 25.8 20.7;" xml:space="preserve">
<style type="text/css">
	.st0{fill:#5CB990;}
	.st1{fill:none;stroke:#5CB990;stroke-width:3;stroke-linecap:round;stroke-linejoin:round;stroke-miterlimit:10;}
	.st2{fill:#E42277;}
	.st3{fill:none;stroke:#5CB990;stroke-miterlimit:10;}
	.st4{fill:#333333;}
	.st5{opacity:0.75;fill:#333333;}
	.st6{opacity:0.5;fill:#333333;}
	.st7{opacity:0.35;fill:#333333;}
	.st8{opacity:0.875;fill:#333333;}
	.st9{opacity:0.64;fill:#333333;}
	.st10{opacity:0.48;fill:#333333;}
	.st11{opacity:0.23;fill:#333333;}
</style>
<g>
	<path class="st0" d="M22.2,10.3l-1.5-1.9l0-6C20.7,1,19.3,1,19.3,1L8.9,1C7.8,1,7.5,1.9,7.5,2.3l0,0c0,0,0,0.1,0,0.1c0,0,0,0,0,0
		c0,0,0,0,0,0c0,0,0,0,0,0l0,3v3.4c0,0.2,0,0.3,0.1,0.5c0.3,1,1.4,1,1.4,1l10.4,0l0,0L22.2,10.3z"/>
	<g>
		<g>
			<path class="st0" d="M8.9,12.3c-1.2,0-2.6-0.7-3.2-2.1c-0.2,0.2-0.4,0.5-0.4,1.1l0,6.6l-1.5,1.9l2.9,0l0,0l10.4,0
				c0,0,1.1,0,1.4-1c0-0.1,0.1-0.3,0.1-0.5l0-3l0-3L8.9,12.3z"/>
		</g>
	</g>
</g>
</svg>
