<?xml version="1.0" encoding="utf-8"?>
<!-- Generator: Adobe Illustrator 21.0.0, SVG Export Plug-In . SVG Version: 6.00 Build 0)  -->
<svg version="1.1" id="Ebene_1" xmlns="http://www.w3.org/2000/svg" xmlns:xlink="http://www.w3.org/1999/xlink" x="0px" y="0px"
	 viewBox="0 0 25.8 20.7" style="enable-background:new 0 0 25.8 20.7;" xml:space="preserve">
<style type="text/css">
	.st0{fill:#5CB990;}
	.st1{fill:none;stroke:#5CB990;stroke-width:3;stroke-linecap:round;stroke-linejoin:round;stroke-miterlimit:10;}
	.st2{fill:#E42277;}
	.st3{fill:none;stroke:#5CB990;stroke-miterlimit:10;}
	.st4{fill:#333333;}
	.st5{opacity:0.75;fill:#333333;}
	.st6{opacity:0.5;fill:#333333;}
	.st7{opacity:0.35;fill:#333333;}
	.st8{opacity:0.875;fill:#333333;}
	.st9{opacity:0.64;fill:#333333;}
	.st10{opacity:0.48;fill:#333333;}
	.st11{opacity:0.23;fill:#333333;}
</style>
<path class="st0" d="M21.7,13.4V2.7c0,0,0-0.1,0-0.1c0-0.1,0-0.2-0.1-0.3c-0.2-0.8-1.1-1.2-1.9-1L8.4,4.4c-0.6,0.2-1,0.7-1.1,1.3
	c0,0,0,0,0,0v7.9c-0.4-0.1-0.8-0.2-1.2-0.2c-1.8,0-3.2,1.4-3.2,3.2s1.4,3.2,3.2,3.2c1.7,0,3-1.3,3.2-2.9c0-0.2,0-0.4,0-0.4V7.3
	l10.3-2.8v6.2c-0.4-0.1-0.8-0.2-1.2-0.2c-1.8,0-3.2,1.4-3.2,3.2s1.4,3.2,3.2,3.2s3.2-1.4,3.2-3.2C21.7,13.5,21.7,13.5,21.7,13.4z"/>
</svg>
