<?xml version="1.0" encoding="utf-8"?>
<!-- Generator: Adobe Illustrator 21.0.0, SVG Export Plug-In . SVG Version: 6.00 Build 0)  -->
<svg version="1.1" id="Ebene_1" xmlns="http://www.w3.org/2000/svg" xmlns:xlink="http://www.w3.org/1999/xlink" x="0px" y="0px"
	 viewBox="0 0 25.8 20.7" style="enable-background:new 0 0 25.8 20.7;" xml:space="preserve">
<style type="text/css">
	.st0{fill:#5CB990;}
	.st1{fill:none;stroke:#5CB990;stroke-width:3;stroke-linecap:round;stroke-linejoin:round;stroke-miterlimit:10;}
	.st2{fill:#E42277;}
	.st3{fill:none;stroke:#5CB990;stroke-miterlimit:10;}
	.st4{fill:#333333;}
	.st5{opacity:0.75;fill:#333333;}
	.st6{opacity:0.5;fill:#333333;}
	.st7{opacity:0.35;fill:#333333;}
	.st8{opacity:0.875;fill:#333333;}
	.st9{opacity:0.64;fill:#333333;}
	.st10{opacity:0.48;fill:#333333;}
	.st11{opacity:0.23;fill:#333333;}
</style>
<g>
	<path class="st0" d="M23,10.5c0-5.2-4.2-9.4-9.4-9.4s-9.4,4.2-9.4,9.4s4.2,9.4,9.4,9.4S23,15.7,23,10.5z M7.5,14.8L7.5,14.8
		c0.6-0.5,0.8-1.1,0.6-1.8l-0.4-1.2c-0.2-0.6-0.8-1.1-1.5-1l-0.1,0c0-0.1,0-0.1,0-0.2c0-1.6,0.5-3.1,1.4-4.3l0.4,0.3
		c0.6,0.4,1.3,0.4,1.9,0l1-0.7c0.6-0.4,0.8-1.1,0.6-1.8l-0.1-0.4c0.7-0.3,1.5-0.4,2.4-0.4c1,0,1.9,0.2,2.8,0.5
		c-0.1,0.6,0,1.2,0.5,1.6L17.8,6c0.5,0.4,1.2,0.5,1.8,0.2c0.8,1.2,1.4,2.6,1.4,4.1l-0.2,0c-0.7,0-1.3,0.5-1.5,1.1l-0.4,1.1
		c-0.2,0.7,0,1.4,0.6,1.8l0.3,0.2c-0.9,1.4-2.2,2.4-3.8,3l-0.1-0.3c-0.2-0.6-0.8-1.1-1.5-1.1l-1.3,0c-0.7,0-1.3,0.4-1.5,1.1
		l-0.1,0.5C9.9,17.2,8.5,16.2,7.5,14.8z"/>
	<path class="st0" d="M11.7,12.7c0.2,0.5,0.6,0.8,1.1,0.7l2.4-0.1c0.5,0,0.9-0.4,1.1-0.8l0.6-2.3c0.1-0.5-0.1-1-0.5-1.3l-2-1.3
		c-0.4-0.3-1-0.2-1.3,0.1l-1.8,1.5c-0.4,0.3-0.5,0.8-0.4,1.3L11.7,12.7z"/>
</g>
</svg>
