<?xml version="1.0" encoding="utf-8"?>
<!-- Generator: Adobe Illustrator 21.0.0, SVG Export Plug-In . SVG Version: 6.00 Build 0)  -->
<svg version="1.1" id="Ebene_1" xmlns="http://www.w3.org/2000/svg" xmlns:xlink="http://www.w3.org/1999/xlink" x="0px" y="0px"
	 viewBox="0 0 25.8 20.7" style="enable-background:new 0 0 25.8 20.7;" xml:space="preserve">
<style type="text/css">
	.st0{fill:#5CB990;}
	.st1{fill:none;stroke:#5CB990;stroke-width:3;stroke-linecap:round;stroke-linejoin:round;stroke-miterlimit:10;}
	.st2{fill:#E42277;}
	.st3{fill:none;stroke:#5CB990;stroke-miterlimit:10;}
	.st4{fill:#333333;}
	.st5{opacity:0.75;fill:#333333;}
	.st6{opacity:0.5;fill:#333333;}
	.st7{opacity:0.35;fill:#333333;}
	.st8{opacity:0.875;fill:#333333;}
	.st9{opacity:0.64;fill:#333333;}
	.st10{opacity:0.48;fill:#333333;}
	.st11{opacity:0.23;fill:#333333;}
</style>
<path class="st2" d="M25.4,0.8c-0.4-0.4-1-0.4-1.4,0l-4.6,4.6l-0.5,0.5V5.7c0-0.7-0.4-1.5-1-2l2-2c0.4-0.4,0.4-1,0-1.4s-1-0.4-1.4,0
	l-3,3L7,3.4c-1.8,0-2.4,1.4-2.4,2.4v8.6l-4.2,4.1c-0.4,0.4-0.4,1,0,1.4c0.2,0.2,0.5,0.3,0.7,0.3s0.5-0.1,0.7-0.3l3-2.8
	c0.4,0.8,0.9,1.1,1.7,1.2l-0.6,0.6c-0.4,0.4-0.4,1,0,1.4c0.2,0.2,0.5,0.3,0.7,0.3s0.5-0.1,0.7-0.3l2-2l7.2,0c1.6,0,2.3-1.2,2.3-2.3
	l1.3,1.3c0.6,0.6,1.4,0.8,2,0.5c0.6-0.2,1-0.8,1-1.5c0,0,0-9.7,0-10.9c0-0.3,0-0.6-0.2-0.9l2.4-2.4C25.8,1.8,25.8,1.2,25.4,0.8z
	 M6.5,5.8c0-0.4,0.3-0.4,0.4-0.4l6.5,0l-7.1,7.1L6.5,5.8z M6.9,16.3c-0.4,0-0.5-0.3-0.5-0.5l0-0.5l9.9-9.9l0.3,0
	c0.3,0,0.3,0.3,0.3,0.4l0,2.2l-8.4,8.4L6.9,16.3z M21.3,6.4c0,2.2,0,7.2,0,9.2l-2.6-2.7c-0.3-0.3-0.7-0.4-1.1-0.2
	c-0.4,0.2-0.6,0.5-0.6,0.9l0,2.4c0,0.4-0.2,0.4-0.4,0.4l-5.2,0l9.5-9.5L21.3,6.4z"/>
</svg>
