<?xml version="1.0" encoding="utf-8"?>
<!-- Generator: Adobe Illustrator 21.0.0, SVG Export Plug-In . SVG Version: 6.00 Build 0)  -->
<svg version="1.1" id="Ebene_1" xmlns="http://www.w3.org/2000/svg" xmlns:xlink="http://www.w3.org/1999/xlink" x="0px" y="0px"
	 viewBox="0 0 25.8 20.7" style="enable-background:new 0 0 25.8 20.7;" xml:space="preserve">
<style type="text/css">
	.st0{fill:#5CB990;}
	.st1{fill:none;stroke:#5CB990;stroke-width:3;stroke-linecap:round;stroke-linejoin:round;stroke-miterlimit:10;}
	.st2{fill:#E42277;}
	.st3{fill:none;stroke:#5CB990;stroke-miterlimit:10;}
	.st4{fill:#333333;}
	.st5{opacity:0.75;fill:#333333;}
	.st6{opacity:0.5;fill:#333333;}
	.st7{opacity:0.35;fill:#333333;}
	.st8{opacity:0.875;fill:#333333;}
	.st9{opacity:0.64;fill:#333333;}
	.st10{opacity:0.48;fill:#333333;}
	.st11{opacity:0.23;fill:#333333;}
</style>
<path class="st0" d="M19.4,3c-0.5-0.3-1.3-0.4-1.7-0.2l-1.4,0.6l0-0.7c0-0.6-0.3-1.2-0.8-1.5c-0.5-0.3-1.2-0.4-1.7-0.2L5.6,5
	C5.1,5.3,4.8,5.6,4.8,6.3l0,9.8c0,0.6,0.3,1.2,0.9,1.6l3.9,1.8c0.1,0,0.4,0.2,0.7,0.2c0.2,0,0.4,0,0.6-0.1l8.1-3.8l0,0
	c0.7-0.3,1.1-0.9,1.1-1.7V4.5C20.2,3.9,19.9,3.3,19.4,3z M14.4,3l0,1.3c0,0-4.6,2.3-4.7,2.3L7.9,6L14.4,3z M18.2,13.9l-7.4,3.4v-9
	c0,0,0-0.1,0-0.1l7.4-3.5V13.9z"/>
</svg>
