<?xml version="1.0" encoding="utf-8"?>
<!-- Generator: Adobe Illustrator 21.0.0, SVG Export Plug-In . SVG Version: 6.00 Build 0)  -->
<svg version="1.1" id="Ebene_1" xmlns="http://www.w3.org/2000/svg" xmlns:xlink="http://www.w3.org/1999/xlink" x="0px" y="0px"
	 viewBox="0 0 25.8 20.7" style="enable-background:new 0 0 25.8 20.7;" xml:space="preserve">
<style type="text/css">
	.st0{fill:#5CB990;}
	.st1{fill:none;stroke:#5CB990;stroke-width:3;stroke-linecap:round;stroke-linejoin:round;stroke-miterlimit:10;}
	.st2{fill:#E42277;}
	.st3{fill:none;stroke:#5CB990;stroke-miterlimit:10;}
	.st4{fill:#333333;}
	.st5{opacity:0.75;fill:#333333;}
	.st6{opacity:0.5;fill:#333333;}
	.st7{opacity:0.35;fill:#333333;}
	.st8{opacity:0.875;fill:#333333;}
	.st9{opacity:0.64;fill:#333333;}
	.st10{opacity:0.48;fill:#333333;}
	.st11{opacity:0.23;fill:#333333;}
</style>
<g>
	<path class="st0" d="M12.5,7.3C12.5,7.3,12.5,7.3,12.5,7.3l0-6l-2.2,0.1l0,5.9l1,1.2L12.5,7.3z"/>
	<path class="st0" d="M21.5,2.5c-0.1-0.9-0.9-1.7-1.8-1.6l-5.2,0.3v6.1c0,0.5-0.2,1-0.5,1.3v0l-1,1.2c-0.4,0.5-1,0.7-1.6,0.7
		c-0.6,0-1.2-0.3-1.6-0.7l-1-1.2C8.5,8.3,8.3,7.8,8.3,7.3V1.5H6.5C5,1.5,3.8,2.7,3.8,4.2V17c0,1.5,1.2,2.6,2.6,2.6h11.9
		c0.7,0,1.4-0.2,1.9-0.6l0.5,0c0.9-0.1,1.7-0.9,1.6-1.8L21.5,2.5z M6.5,17.7c-0.4,0-0.7-0.3-0.7-0.7V4.2c0-0.3,0.2-0.6,0.6-0.7
		l0.8,14.2H6.5z M19.8,7.7l0.1,2L15.8,10l-0.1-2L19.8,7.7z M8.7,12.3l11.5-0.8l0.1,2L8.8,14.3L8.7,12.3z M9,18l-0.1-2l11.5-0.8
		l0.1,2L9,18z"/>
</g>
</svg>
