<?xml version="1.0" encoding="utf-8"?>
<!-- Generator: Adobe Illustrator 21.0.0, SVG Export Plug-In . SVG Version: 6.00 Build 0)  -->
<svg version="1.1" id="Ebene_1" xmlns="http://www.w3.org/2000/svg" xmlns:xlink="http://www.w3.org/1999/xlink" x="0px" y="0px"
	 viewBox="0 0 25.8 20.7" style="enable-background:new 0 0 25.8 20.7;" xml:space="preserve">
<style type="text/css">
	.st0{fill:#5CB990;}
	.st1{fill:none;stroke:#5CB990;stroke-width:3;stroke-linecap:round;stroke-linejoin:round;stroke-miterlimit:10;}
	.st2{fill:#E42277;}
	.st3{fill:none;stroke:#5CB990;stroke-miterlimit:10;}
	.st4{fill:#333333;}
	.st5{opacity:0.75;fill:#333333;}
	.st6{opacity:0.5;fill:#333333;}
	.st7{opacity:0.35;fill:#333333;}
	.st8{opacity:0.875;fill:#333333;}
	.st9{opacity:0.64;fill:#333333;}
	.st10{opacity:0.48;fill:#333333;}
	.st11{opacity:0.23;fill:#333333;}
</style>
<g>
	<path class="st0" d="M3.9,7.5V17c0,1.1,0.9,1.9,1.9,1.9H7V5.6H5.8C4.8,5.6,3.9,6.5,3.9,7.5z"/>
	<path class="st0" d="M20.6,5.6h-1.3v13.2h1.3c1.1,0,1.9-0.9,1.9-1.9V7.5C22.6,6.5,21.7,5.6,20.6,5.6z"/>
	<path class="st0" d="M16.5,4.6c0-1.2-1-2.2-2.2-2.2h-2.2c-1.2,0-2.2,1-2.2,2.2v1H8.8v13.2h8.9V5.6h-1.1V4.6z M11,4.6
		c0-0.6,0.5-1.2,1.2-1.2h2.2c0.6,0,1.2,0.5,1.2,1.2v1H11V4.6z"/>
</g>
</svg>
