<?xml version="1.0" encoding="utf-8"?>
<!-- Generator: Adobe Illustrator 21.0.0, SVG Export Plug-In . SVG Version: 6.00 Build 0)  -->
<svg version="1.1" id="Ebene_1" xmlns="http://www.w3.org/2000/svg" xmlns:xlink="http://www.w3.org/1999/xlink" x="0px" y="0px"
	 viewBox="0 0 25.8 20.7" style="enable-background:new 0 0 25.8 20.7;" xml:space="preserve">
<style type="text/css">
	.st0{fill:#5CB990;}
	.st1{fill:none;stroke:#5CB990;stroke-width:3;stroke-linecap:round;stroke-linejoin:round;stroke-miterlimit:10;}
	.st2{fill:#E42277;}
	.st3{fill:none;stroke:#5CB990;stroke-miterlimit:10;}
	.st4{fill:#333333;}
	.st5{opacity:0.75;fill:#333333;}
	.st6{opacity:0.5;fill:#333333;}
	.st7{opacity:0.35;fill:#333333;}
	.st8{opacity:0.875;fill:#333333;}
	.st9{opacity:0.64;fill:#333333;}
	.st10{opacity:0.48;fill:#333333;}
	.st11{opacity:0.23;fill:#333333;}
</style>
<g>
	<path class="st0" d="M11.6,8.3c-2.3,0-4.2,1.9-4.2,4.2s1.9,4.2,4.2,4.2s4.2-1.9,4.2-4.2S13.9,8.3,11.6,8.3z M11.6,14.8
		c-1.2,0-2.2-1-2.2-2.2s1-2.2,2.2-2.2s2.2,1,2.2,2.2S12.8,14.8,11.6,14.8z"/>
	<path class="st0" d="M18.9,4.5h-3.7V1.8c0-0.3-0.3-0.6-0.6-0.6H9.2c-0.3,0-0.6,0.3-0.6,0.6v2.7H6.8C5,4.5,3.6,5.9,3.6,7.7v9
		c0,1.8,1.4,3.2,3.2,3.2h12.1c1.8,0,3.2-1.4,3.2-3.2v-9C22.1,5.9,20.7,4.5,18.9,4.5z M20.1,16.7c0,0.7-0.5,1.2-1.2,1.2H6.8
		c-0.7,0-1.2-0.5-1.2-1.2v-9c0-0.7,0.5-1.2,1.2-1.2h12.1c0.7,0,1.2,0.5,1.2,1.2V16.7z"/>
	<circle class="st0" cx="17.7" cy="8.7" r="1.5"/>
</g>
</svg>
