<?xml version="1.0" encoding="utf-8"?>
<!-- Generator: Adobe Illustrator 21.0.0, SVG Export Plug-In . SVG Version: 6.00 Build 0)  -->
<svg version="1.1" id="Ebene_1" xmlns="http://www.w3.org/2000/svg" xmlns:xlink="http://www.w3.org/1999/xlink" x="0px" y="0px"
	 viewBox="0 0 25.8 20.7" style="enable-background:new 0 0 25.8 20.7;" xml:space="preserve">
<style type="text/css">
	.st0{fill:#5CB990;}
	.st1{fill:none;stroke:#5CB990;stroke-width:3;stroke-linecap:round;stroke-linejoin:round;stroke-miterlimit:10;}
	.st2{fill:#E42277;}
	.st3{fill:none;stroke:#5CB990;stroke-miterlimit:10;}
	.st4{fill:#333333;}
	.st5{opacity:0.75;fill:#333333;}
	.st6{opacity:0.5;fill:#333333;}
	.st7{opacity:0.35;fill:#333333;}
	.st8{opacity:0.875;fill:#333333;}
	.st9{opacity:0.64;fill:#333333;}
	.st10{opacity:0.48;fill:#333333;}
	.st11{opacity:0.23;fill:#333333;}
</style>
<g>
	<path class="st0" d="M11.8,9.4C12,9.2,12.3,9,12.6,9c0,0,0,0,0,0c0.3,0,0.6,0.2,0.8,0.4c0.9,1.2,2.2,1.2,4.4,1.1l0-1.9
		c0-0.4-0.2-0.7-0.5-0.9c0.1-1.5,0.3-4.8-0.9-6.1C16,1.2,15.5,0.9,15,0.9c-0.6,0-1.2,0.2-1.6,0.7c-0.2,0.2-0.4,0.4-0.5,0.7
		c-0.2-0.3-0.3-0.5-0.5-0.7c-0.5-0.5-1-0.7-1.6-0.7c-0.6,0-1.1,0.3-1.5,0.7c-1.1,1.3-1,4.4-0.9,6l-0.1,0c-0.5,0-1,0.4-1,1l0,1.5
		C8.4,10.4,11,10.5,11.8,9.4z M14.9,2.9c0.4,0,0.6,2.5,0.4,4.7l-1.5,0C13.8,6,14.5,2.9,14.9,2.9z M10.7,2.9c0.5,0,1,3.2,1,4.8
		l-1.5,0C10.1,5.4,10.3,2.9,10.7,2.9z"/>
	<path class="st0" d="M18.1,12.5c-0.5,0-1.1,0.1-1.6,0.1c-1.5,0-2.9-0.2-4-1.2c-1.7,1.1-4.3,0.9-5.5,0.7l-1.7,4.9
		c-0.2,0.5,0.1,1.1,0.6,1.3l3.7,1.3c0.5,0.2,1.1-0.1,1.3-0.6l1.5-4.5L14,19c0.2,0.5,0.7,0.8,1.3,0.6l3.7-1.3
		c0.5-0.2,0.8-0.7,0.6-1.3L18.1,12.5z"/>
</g>
</svg>
