<?xml version="1.0" encoding="utf-8"?>
<!-- Generator: Adobe Illustrator 21.0.0, SVG Export Plug-In . SVG Version: 6.00 Build 0)  -->
<svg version="1.1" id="Ebene_1" xmlns="http://www.w3.org/2000/svg" xmlns:xlink="http://www.w3.org/1999/xlink" x="0px" y="0px"
	 viewBox="0 0 25.8 20.7" style="enable-background:new 0 0 25.8 20.7;" xml:space="preserve">
<style type="text/css">
	.st0{fill:#5CB990;}
	.st1{fill:none;stroke:#5CB990;stroke-width:3;stroke-linecap:round;stroke-linejoin:round;stroke-miterlimit:10;}
	.st2{fill:#E42277;}
	.st3{fill:none;stroke:#5CB990;stroke-miterlimit:10;}
	.st4{fill:#333333;}
	.st5{opacity:0.75;fill:#333333;}
	.st6{opacity:0.5;fill:#333333;}
	.st7{opacity:0.35;fill:#333333;}
	.st8{opacity:0.875;fill:#333333;}
	.st9{opacity:0.64;fill:#333333;}
	.st10{opacity:0.48;fill:#333333;}
	.st11{opacity:0.23;fill:#333333;}
</style>
<g>
	<path class="st2" d="M20,18.7H6.7c-0.9,0-1.7-0.5-2.1-1.2c-0.4-0.8-0.4-1.7,0-2.4l6.7-11.6c0.4-0.8,1.2-1.2,2.1-1.2
		c0.9,0,1.7,0.5,2.1,1.2l6.7,11.6c0.4,0.8,0.4,1.7,0,2.4C21.7,18.3,20.9,18.7,20,18.7z M13,4.5L6.3,16.1c-0.1,0.2,0,0.4,0,0.4
		c0,0.1,0.2,0.2,0.4,0.2H20c0.2,0,0.3-0.1,0.4-0.2c0-0.1,0.1-0.2,0-0.4L13.7,4.5c-0.1-0.2-0.3-0.2-0.4-0.2C13.3,4.2,13.1,4.3,13,4.5
		L13,4.5z"/>
	<g>
		<g>
			<path class="st2" d="M12.4,14.8c0-0.3,0.1-0.5,0.3-0.7c0.2-0.2,0.4-0.3,0.7-0.3c0.3,0,0.5,0.1,0.7,0.3c0.2,0.2,0.3,0.4,0.3,0.7
				c0,0.3-0.1,0.5-0.3,0.7c-0.2,0.2-0.4,0.3-0.7,0.3c-0.3,0-0.5-0.1-0.7-0.3S12.4,15.1,12.4,14.8z M14.3,7.2L14,13.1h-1.3l-0.2-5.9
				H14.3z"/>
		</g>
	</g>
</g>
</svg>
