<?xml version="1.0" encoding="utf-8"?>
<!-- Generator: Adobe Illustrator 21.0.0, SVG Export Plug-In . SVG Version: 6.00 Build 0)  -->
<svg version="1.1" id="Ebene_1" xmlns="http://www.w3.org/2000/svg" xmlns:xlink="http://www.w3.org/1999/xlink" x="0px" y="0px"
	 viewBox="0 0 25.8 20.7" style="enable-background:new 0 0 25.8 20.7;" xml:space="preserve">
<style type="text/css">
	.st0{fill:#5CB990;}
	.st1{fill:none;stroke:#5CB990;stroke-width:3;stroke-linecap:round;stroke-linejoin:round;stroke-miterlimit:10;}
	.st2{fill:#E42277;}
	.st3{fill:none;stroke:#5CB990;stroke-miterlimit:10;}
	.st4{fill:#333333;}
	.st5{opacity:0.75;fill:#333333;}
	.st6{opacity:0.5;fill:#333333;}
	.st7{opacity:0.35;fill:#333333;}
	.st8{opacity:0.875;fill:#333333;}
	.st9{opacity:0.64;fill:#333333;}
	.st10{opacity:0.48;fill:#333333;}
	.st11{opacity:0.23;fill:#333333;}
</style>
<path class="st0" d="M22,2.3c0-0.5-0.4-1-0.9-1c-0.1,0-0.7,0-0.7,0c-0.7,0-1.2,0.5-1.2,1.1l0,3.5c-1.5-1.8-3.8-3-6.4-3
	c-1.6,0-3.2,0.5-4.5,1.3l0-2.2c0-0.4-0.3-0.7-0.7-0.7c0,0,0,0,0,0C7.4,1.3,7.1,1.6,7.1,2l0,3.3l-0.4,0l0-3.3c0-0.4-0.3-0.7-0.7-0.7
	c0,0,0,0,0,0C5.5,1.3,5.2,1.6,5.2,2l0,3.3l-0.5,0l0-3.3c0-0.4-0.3-0.7-0.7-0.7c0,0,0,0,0,0C3.7,1.3,3.3,1.6,3.3,2l0,3.3h0
	c0,0,0,0.1,0,0.1l0,0.1c0,0.1,0,0.1,0,0.2c0,0,0,0.1,0,0.1c0,0,0,0,0,0C3.6,6.5,4,7,4.6,7.3L4.5,18.9c0,0.6,0.4,1,1,1c0,0,0,0,0,0
	c0.5,0,1-0.4,1-1l0-2.5c1.5,1.8,3.8,3,6.4,3c3,0,5.6-1.6,7.1-4l0,3.5c0,0.6,0.4,1,1,1c0,0,0,0,0,0c0.6,0,1-0.4,1-1L22,2.3z
	 M12.9,17.5c-3.5,0-6.3-2.8-6.3-6.3s2.8-6.3,6.3-6.3s6.3,2.8,6.3,6.3S16.4,17.5,12.9,17.5z"/>
</svg>
