<?xml version="1.0" encoding="utf-8"?>
<!-- Generator: Adobe Illustrator 21.0.0, SVG Export Plug-In . SVG Version: 6.00 Build 0)  -->
<svg version="1.1" id="Ebene_1" xmlns="http://www.w3.org/2000/svg" xmlns:xlink="http://www.w3.org/1999/xlink" x="0px" y="0px"
	 viewBox="0 0 25.8 20.7" style="enable-background:new 0 0 25.8 20.7;" xml:space="preserve">
<style type="text/css">
	.st0{fill:#5CB990;}
	.st1{fill:none;stroke:#5CB990;stroke-width:3;stroke-linecap:round;stroke-linejoin:round;stroke-miterlimit:10;}
	.st2{fill:#E42277;}
	.st3{fill:none;stroke:#5CB990;stroke-miterlimit:10;}
	.st4{fill:#333333;}
	.st5{opacity:0.75;fill:#333333;}
	.st6{opacity:0.5;fill:#333333;}
	.st7{opacity:0.35;fill:#333333;}
	.st8{opacity:0.875;fill:#333333;}
	.st9{opacity:0.64;fill:#333333;}
	.st10{opacity:0.48;fill:#333333;}
	.st11{opacity:0.23;fill:#333333;}
</style>
<path class="st0" d="M13.3,5.1L14.6,8c0.3,0.6,0.9,1,1.5,1.1L19,9.4l-2.2,2c-0.5,0.5-0.7,1.1-0.6,1.8l0.9,3.1l-2.8-1.7
	c-0.3-0.1-0.6-0.2-0.9-0.2c-0.3,0-0.6,0.1-0.9,0.2l-2.8,1.7l0.8-3.1c0.1-0.6-0.1-1.3-0.6-1.8l-2.2-2l3-0.3C11.3,9,11.9,8.6,12.1,8
	L13.3,5.1z M13.3,1l-3,6.1L3.8,8.2l4.7,4.6l-1.2,6.8l6.1-3.3l6.2,3.3l-1.4-6.9l4.3-4.6l-6.2-1.1L13.3,1L13.3,1z"/>
</svg>
