<?xml version="1.0" encoding="utf-8"?>
<!-- Generator: Adobe Illustrator 21.0.0, SVG Export Plug-In . SVG Version: 6.00 Build 0)  -->
<svg version="1.1" id="Ebene_1" xmlns="http://www.w3.org/2000/svg" xmlns:xlink="http://www.w3.org/1999/xlink" x="0px" y="0px"
	 viewBox="0 0 25.8 20.7" style="enable-background:new 0 0 25.8 20.7;" xml:space="preserve">
<style type="text/css">
	.st0{fill:#5CB990;}
	.st1{fill:none;stroke:#5CB990;stroke-width:3;stroke-linecap:round;stroke-linejoin:round;stroke-miterlimit:10;}
	.st2{fill:#E42277;}
	.st3{fill:none;stroke:#5CB990;stroke-miterlimit:10;}
	.st4{fill:#333333;}
	.st5{opacity:0.75;fill:#333333;}
	.st6{opacity:0.5;fill:#333333;}
	.st7{opacity:0.35;fill:#333333;}
	.st8{opacity:0.875;fill:#333333;}
	.st9{opacity:0.64;fill:#333333;}
	.st10{opacity:0.48;fill:#333333;}
	.st11{opacity:0.23;fill:#333333;}
</style>
<path class="st0" d="M17.7,11.1h-4.4c0.2-0.8,0.7-1.7,2.4-1.7c1.3,0,5.4-0.2,5.4-4.3c0-2.4-2-4.2-4.7-4.2c-2.3,0-4,1.2-4.7,3.3
	c-0.5,1.4-1.3,2.1-2.3,2.1c-0.9,0-1.5-0.7-1.5-1.6c0-2,0-3.8,0-3.8l-2,0c0,0,0,1.8,0,3.8c0,2,1.6,3.6,3.5,3.6c1.9,0,3.5-1.3,4.2-3.5
	c0.4-1.3,1.4-2,2.8-2c1.7,0,2.7,0.8,2.7,2.2c0,1.3-0.4,2.3-3.4,2.3c-2.9,0-4.2,2-4.4,3.7h-4l0,0c-2.3,0-4.1,1.8-4.1,4.1
	c0,2.3,1.8,4.1,4.1,4.1c1.5,0,2.7-0.8,3.5-1.9c0,0,0,0,0,0c0.3-0.6,0.9-1.2,1.8-1.2c0.9,0,1.4,0.5,1.7,1.1c0,0,0,0,0,0.1
	c0.7,1.2,2,2,3.5,2c2.3,0,4.1-1.8,4.1-4.1S20,11.1,17.7,11.1z M10,15.7c0,0.1-0.1,0.2-0.2,0.2H8v1.8c0,0.1-0.1,0.2-0.2,0.2H6.6
	c-0.1,0-0.2-0.1-0.2-0.2v-1.8H4.6c-0.1,0-0.2-0.1-0.2-0.2v-1.2c0-0.1,0.1-0.2,0.2-0.2h1.8v-1.8c0-0.1,0.1-0.2,0.2-0.2h1.2
	c0.1,0,0.2,0.1,0.2,0.2v1.8h1.8c0.1,0,0.2,0.1,0.2,0.2V15.7z M15.6,16.3c-0.5,0-1-0.4-1-1c0-0.5,0.4-1,1-1c0.5,0,1,0.4,1,1
	C16.5,15.8,16.1,16.3,15.6,16.3z M17.6,18.3c-0.5,0-1-0.4-1-1c0-0.5,0.4-1,1-1c0.5,0,1,0.4,1,1C18.5,17.9,18.1,18.3,17.6,18.3z
	 M17.7,14c-0.5,0-1-0.4-1-1c0-0.5,0.4-1,1-1c0.5,0,1,0.4,1,1C18.6,13.6,18.2,14,17.7,14z M19.7,16.1c-0.5,0-1-0.4-1-1
	c0-0.5,0.4-1,1-1c0.5,0,1,0.4,1,1C20.7,15.6,20.2,16.1,19.7,16.1z"/>
</svg>
