<?xml version="1.0" encoding="utf-8"?>
<!-- Generator: Adobe Illustrator 21.0.0, SVG Export Plug-In . SVG Version: 6.00 Build 0)  -->
<svg version="1.1" id="Ebene_1" xmlns="http://www.w3.org/2000/svg" xmlns:xlink="http://www.w3.org/1999/xlink" x="0px" y="0px"
	 viewBox="0 0 25.8 20.7" style="enable-background:new 0 0 25.8 20.7;" xml:space="preserve">
<style type="text/css">
	.st0{fill:#5CB990;}
	.st1{fill:none;stroke:#5CB990;stroke-width:3;stroke-linecap:round;stroke-linejoin:round;stroke-miterlimit:10;}
	.st2{fill:#E42277;}
	.st3{fill:none;stroke:#5CB990;stroke-miterlimit:10;}
	.st4{fill:#333333;}
	.st5{opacity:0.75;fill:#333333;}
	.st6{opacity:0.5;fill:#333333;}
	.st7{opacity:0.35;fill:#333333;}
	.st8{opacity:0.875;fill:#333333;}
	.st9{opacity:0.64;fill:#333333;}
	.st10{opacity:0.48;fill:#333333;}
	.st11{opacity:0.23;fill:#333333;}
</style>
<path class="st0" d="M21.9,17.2c-0.4,0-0.7-0.3-0.7-0.7v-1.4c0-0.4,0.3-0.7,0.7-0.7h0.6v-0.5h-0.3c-0.4,0-0.7-0.3-0.7-0.7V7.7
	c0-0.4,0.3-0.7,0.7-0.7h0.3V6.3h-0.7c-0.4,0-0.7-0.3-0.7-0.7V4.2c0-0.4,0.3-0.7,0.7-0.7h0.7V2.8H3.9v0.9h0.7C5,3.7,5.3,4,5.3,4.3
	v1.4c0,0.4-0.3,0.7-0.7,0.7H3.9v0.7h0.4c0.4,0,0.7,0.3,0.7,0.7v5.6c0,0.4-0.3,0.7-0.7,0.7H3.9v0.6h0.8c0.4,0,0.7,0.3,0.7,0.7v1.4
	c0,0.4-0.3,0.7-0.7,0.7H3.9v0.8h18.7v-0.9H21.9z M7.2,4.3c0-0.4,0.3-0.7,0.7-0.7h1.4c0.4,0,0.7,0.3,0.7,0.7v1.4
	c0,0.4-0.3,0.7-0.7,0.7H7.9c-0.4,0-0.7-0.3-0.7-0.7V4.3z M10,16.6c0,0.4-0.3,0.7-0.7,0.7H7.9c-0.4,0-0.7-0.3-0.7-0.7v-1.4
	c0-0.4,0.3-0.7,0.7-0.7h1.4c0.4,0,0.7,0.3,0.7,0.7V16.6z M11.9,4.3c0-0.4,0.3-0.7,0.7-0.7h1.4c0.4,0,0.7,0.3,0.7,0.7v1.4
	c0,0.4-0.3,0.7-0.7,0.7h-1.4c-0.4,0-0.7-0.3-0.7-0.7V4.3z M14.7,16.6c0,0.4-0.3,0.7-0.7,0.7h-1.4c-0.4,0-0.7-0.3-0.7-0.7v-1.4
	c0-0.4,0.3-0.7,0.7-0.7H14c0.4,0,0.7,0.3,0.7,0.7V16.6z M16.5,4.3c0-0.4,0.3-0.7,0.7-0.7h1.4c0.4,0,0.7,0.3,0.7,0.7v1.4
	c0,0.4-0.3,0.7-0.7,0.7h-1.4c-0.4,0-0.7-0.3-0.7-0.7V4.3z M19.4,16.6c0,0.4-0.3,0.7-0.7,0.7h-1.4c-0.4,0-0.7-0.3-0.7-0.7v-1.4
	c0-0.4,0.3-0.7,0.7-0.7h1.4c0.4,0,0.7,0.3,0.7,0.7V16.6z"/>
</svg>
