<?xml version="1.0" encoding="utf-8"?>
<!-- Generator: Adobe Illustrator 21.0.0, SVG Export Plug-In . SVG Version: 6.00 Build 0)  -->
<svg version="1.1" id="Ebene_1" xmlns="http://www.w3.org/2000/svg" xmlns:xlink="http://www.w3.org/1999/xlink" x="0px" y="0px"
	 viewBox="0 0 25.8 20.7" style="enable-background:new 0 0 25.8 20.7;" xml:space="preserve">
<style type="text/css">
	.st0{fill:#5CB990;}
	.st1{fill:none;stroke:#5CB990;stroke-width:3;stroke-linecap:round;stroke-linejoin:round;stroke-miterlimit:10;}
	.st2{fill:#E42277;}
	.st3{fill:none;stroke:#5CB990;stroke-miterlimit:10;}
	.st4{fill:#333333;}
	.st5{opacity:0.75;fill:#333333;}
	.st6{opacity:0.5;fill:#333333;}
	.st7{opacity:0.35;fill:#333333;}
	.st8{opacity:0.875;fill:#333333;}
	.st9{opacity:0.64;fill:#333333;}
	.st10{opacity:0.48;fill:#333333;}
	.st11{opacity:0.23;fill:#333333;}
</style>
<g>
	<path class="st0" d="M6.4,18C5.2,18,4,17.2,4,15.6V5.4c0-1.2,0.8-2.4,2.3-2.4H16c0,0,0.6,0,1.2,0.3c0.5,0.3,1.2,0.9,1.2,2.1v0.1
		l1.1-1.1l0,0c0.7-0.7,1.6-1,2.4-0.6c0.6,0.2,0.9,0.7,0.9,1.3c0,1.2,0,11.2,0,11.2c0,0.5-0.4,1-0.9,1.3c-0.6,0.2-1.4,0.2-2.2-0.6
		l-1.3-1.3c0,1.1-0.8,2.3-2.3,2.3L6.4,18z M20.7,16.3C20.7,16.3,20.7,16.3,20.7,16.3C20.7,16.3,20.7,16.3,20.7,16.3z M16,5.1l-9.6,0
		C6.2,5.1,6,5.1,6,5.5v10.2C6,15.8,6,16,6.4,16l9.6,0c0.2,0,0.3,0,0.3-0.4l0-2.4c0-0.4,0.2-0.8,0.6-0.9c0.4-0.2,0.8-0.1,1.1,0.2
		l2.6,2.7c0-2.2,0-7.2,0-9.3l-2.7,2.7C17.8,8.9,17.4,9,17,8.9c-0.4-0.2-0.6-0.5-0.6-0.9l0-2.5c0-0.3,0-0.3-0.1-0.3
		C16.2,5.1,16,5.1,16,5.1z"/>
</g>
</svg>
