<?xml version="1.0" encoding="utf-8"?>
<!-- Generator: Adobe Illustrator 21.0.0, SVG Export Plug-In . SVG Version: 6.00 Build 0)  -->
<svg version="1.1" id="Ebene_1" xmlns="http://www.w3.org/2000/svg" xmlns:xlink="http://www.w3.org/1999/xlink" x="0px" y="0px"
	 viewBox="0 0 25.8 20.7" style="enable-background:new 0 0 25.8 20.7;" xml:space="preserve">
<style type="text/css">
	.st0{fill:#5CB990;}
	.st1{fill:none;stroke:#5CB990;stroke-width:3;stroke-linecap:round;stroke-linejoin:round;stroke-miterlimit:10;}
	.st2{fill:#E42277;}
	.st3{fill:none;stroke:#5CB990;stroke-miterlimit:10;}
	.st4{fill:#333333;}
	.st5{opacity:0.75;fill:#333333;}
	.st6{opacity:0.5;fill:#333333;}
	.st7{opacity:0.35;fill:#333333;}
	.st8{opacity:0.875;fill:#333333;}
	.st9{opacity:0.64;fill:#333333;}
	.st10{opacity:0.48;fill:#333333;}
	.st11{opacity:0.23;fill:#333333;}
</style>
<g>
	<path class="st0" d="M9.2,9.4c0.8-0.8,10.2-9.5,11.4-8.4c1.4,1.4-7.5,10.6-8.4,11.4c-0.8,0.8-2.2,0.8-3,0
		C8.4,11.6,8.4,10.3,9.2,9.4z"/>
	<path class="st0" d="M3.6,15.2c0.5-1.2,1.7-2.2,2.8-2.2s2.1,1,2.1,2.1s-1,2.1-2.1,2.1c-1.6,0-2.2,0.6-2.6,2.3
		C3.3,18.4,3.1,16.7,3.6,15.2z"/>
	<path class="st0" d="M15.9,19.6c9.3,0,3.3-8.7,0.2-4.4c-1.5,2.1-2.5-0.2-3.6-0.1c-0.6,0-1.1,0.2-2.5,2.1c-2.2,2.7-3.4,0.5-4.2,2.4
		C7,19.6,9,19.7,9.9,19C11.2,18,13.5,19.6,15.9,19.6z"/>
</g>
</svg>
