<?xml version="1.0" encoding="utf-8"?>
<!-- Generator: Adobe Illustrator 21.0.0, SVG Export Plug-In . SVG Version: 6.00 Build 0)  -->
<svg version="1.1" id="Ebene_1" xmlns="http://www.w3.org/2000/svg" xmlns:xlink="http://www.w3.org/1999/xlink" x="0px" y="0px"
	 viewBox="0 0 25.8 20.7" style="enable-background:new 0 0 25.8 20.7;" xml:space="preserve">
<style type="text/css">
	.st0{fill:#5CB990;}
	.st1{fill:none;stroke:#5CB990;stroke-width:3;stroke-linecap:round;stroke-linejoin:round;stroke-miterlimit:10;}
	.st2{fill:#E42277;}
	.st3{fill:none;stroke:#5CB990;stroke-miterlimit:10;}
	.st4{fill:#333333;}
	.st5{opacity:0.75;fill:#333333;}
	.st6{opacity:0.5;fill:#333333;}
	.st7{opacity:0.35;fill:#333333;}
	.st8{opacity:0.875;fill:#333333;}
	.st9{opacity:0.64;fill:#333333;}
	.st10{opacity:0.48;fill:#333333;}
	.st11{opacity:0.23;fill:#333333;}
</style>
<path class="st0" d="M22,11.8l-1.3-0.5c0.1-0.7,0.1-1.4,0-2.1L22,8.7c0.3-0.1,0.5-0.6,0.4-0.9l-0.9-2.2c-0.1-0.3-0.6-0.5-0.9-0.4
	l-1.3,0.5c-0.4-0.6-0.9-1-1.5-1.4L18.3,3c0.1-0.4,0-0.8-0.4-0.9l-2.3-0.9c-0.4-0.1-0.8,0-0.9,0.4l-0.5,1.3c-0.7-0.1-1.4-0.1-2.1,0
	l-0.5-1.3c-0.1-0.3-0.6-0.5-0.9-0.4L8.5,2.1C8.2,2.3,8,2.7,8.2,3l0.5,1.3c-0.6,0.4-1,0.9-1.4,1.5L6,5.3c-0.4-0.1-0.8,0-0.9,0.4
	L4.2,7.9C4,8.2,4.2,8.6,4.6,8.8l1.3,0.5c-0.1,0.7-0.1,1.4,0,2.1l-1.3,0.5c-0.3,0.1-0.5,0.6-0.4,0.9L5.2,15c0.1,0.3,0.6,0.5,0.9,0.4
	l1.3-0.5c0.4,0.6,0.9,1,1.5,1.4l-0.5,1.3c-0.1,0.4,0,0.8,0.4,0.9l2.3,0.9c0.4,0.1,0.8,0,0.9-0.4l0.5-1.3c0.7,0.1,1.4,0.1,2.1,0
	l0.5,1.3c0.1,0.3,0.6,0.5,0.9,0.4l2.2-0.9c0.3-0.1,0.5-0.6,0.4-0.9l-0.5-1.3c0.6-0.4,1-0.9,1.4-1.5l1.3,0.5c0.4,0.1,0.8,0,0.9-0.4
	l0.9-2.3C22.5,12.3,22.4,11.9,22,11.8z M9.5,11.9c-0.9-2.1,0.1-4.5,2.2-5.4c2.1-0.9,4.5,0.1,5.4,2.2s-0.1,4.5-2.2,5.4
	S10.4,14,9.5,11.9z"/>
</svg>
