<?xml version="1.0" encoding="utf-8"?>
<!-- Generator: Adobe Illustrator 21.0.0, SVG Export Plug-In . SVG Version: 6.00 Build 0)  -->
<svg version="1.1" id="Ebene_1" xmlns="http://www.w3.org/2000/svg" xmlns:xlink="http://www.w3.org/1999/xlink" x="0px" y="0px"
	 viewBox="0 0 25.8 20.7" style="enable-background:new 0 0 25.8 20.7;" xml:space="preserve">
<style type="text/css">
	.st0{fill:#5CB990;}
	.st1{fill:none;stroke:#5CB990;stroke-width:3;stroke-linecap:round;stroke-linejoin:round;stroke-miterlimit:10;}
	.st2{fill:#E42277;}
	.st3{fill:none;stroke:#5CB990;stroke-miterlimit:10;}
	.st4{fill:#333333;}
	.st5{opacity:0.75;fill:#333333;}
	.st6{opacity:0.5;fill:#333333;}
	.st7{opacity:0.35;fill:#333333;}
	.st8{opacity:0.875;fill:#333333;}
	.st9{opacity:0.64;fill:#333333;}
	.st10{opacity:0.48;fill:#333333;}
	.st11{opacity:0.23;fill:#333333;}
</style>
<path class="st0" d="M19.4,1.2H6.5c-2,0-2.9,1.4-2.9,2.9V17c0,2,1.5,2.8,2.9,2.9l12.8,0c2,0,2.9-1.4,2.9-2.9l0-12.9
	C22.3,2.1,20.8,1.2,19.4,1.2z M20.2,17c0,0.9-0.7,0.9-0.9,0.9l-3.4,0v-6.8h2.3V9h-2.4V8.6c0-0.3,0-0.6,0.1-0.8
	c0.1-0.2,0.2-0.4,0.3-0.5c0.1-0.1,0.3-0.2,0.5-0.3c0.2-0.1,0.4-0.1,0.7-0.1c0.1,0,0.2,0,0.3,0c0.1,0,0.2-0.1,0.2-0.1
	c0.1,0,0.1-0.1,0.2-0.2c0-0.1,0.1-0.2,0.1-0.3l0.1-1.5c-0.2-0.1-0.4-0.1-0.7-0.1c-0.2,0-0.4,0-0.7,0c-0.6,0-1.2,0.1-1.7,0.3
	c-0.5,0.2-0.9,0.4-1.3,0.8c-0.3,0.3-0.6,0.7-0.8,1.2c-0.2,0.5-0.3,1-0.3,1.6V9h-1.4v1.2c0,0.2,0.1,0.4,0.2,0.5
	c0.1,0.1,0.3,0.2,0.5,0.2l0.7,0.1v6.8l-6.4,0c-0.9,0-0.9-0.6-0.9-0.9V4.1c0-0.8,0.6-0.9,0.9-0.9h12.8c0.9,0,0.9,0.6,0.9,0.9L20.2,17
	z"/>
</svg>
