<?xml version="1.0" encoding="utf-8"?>
<!-- Generator: Adobe Illustrator 21.0.0, SVG Export Plug-In . SVG Version: 6.00 Build 0)  -->
<svg version="1.1" id="Ebene_1" xmlns="http://www.w3.org/2000/svg" xmlns:xlink="http://www.w3.org/1999/xlink" x="0px" y="0px"
	 viewBox="0 0 25.8 20.7" style="enable-background:new 0 0 25.8 20.7;" xml:space="preserve">
<style type="text/css">
	.st0{fill:#5CB990;}
	.st1{fill:none;stroke:#5CB990;stroke-width:3;stroke-linecap:round;stroke-linejoin:round;stroke-miterlimit:10;}
	.st2{fill:#E42277;}
	.st3{fill:none;stroke:#5CB990;stroke-miterlimit:10;}
	.st4{fill:#333333;}
	.st5{opacity:0.75;fill:#333333;}
	.st6{opacity:0.5;fill:#333333;}
	.st7{opacity:0.35;fill:#333333;}
	.st8{opacity:0.875;fill:#333333;}
	.st9{opacity:0.64;fill:#333333;}
	.st10{opacity:0.48;fill:#333333;}
	.st11{opacity:0.23;fill:#333333;}
</style>
<g>
	<path class="st0" d="M6.4,6.8C6.1,6.8,5.9,7,5.9,7.3v8.9c0,0.3,0.2,0.5,0.5,0.5h1.3c0.3,0,0.5-0.2,0.5-0.5V7.3
		c0-0.3-0.2-0.5-0.5-0.5H6.4z"/>
	<path class="st0" d="M10.3,6.8c-0.3,0-0.5,0.2-0.5,0.5v8.9c0,0.3,0.2,0.5,0.5,0.5h1.3c0.3,0,0.5-0.2,0.5-0.5V7.3
		c0-0.3-0.2-0.5-0.5-0.5H10.3z"/>
	<path class="st0" d="M14.3,6.8c-0.3,0-0.5,0.2-0.5,0.5v8.9c0,0.3,0.2,0.5,0.5,0.5h1.3c0.3,0,0.5-0.2,0.5-0.5V7.3
		c0-0.3-0.2-0.5-0.5-0.5H14.3z"/>
	<path class="st0" d="M18.2,6.8c-0.3,0-0.5,0.2-0.5,0.5v8.9c0,0.3,0.2,0.5,0.5,0.5h1.3c0.3,0,0.5-0.2,0.5-0.5V7.3
		c0-0.3-0.2-0.5-0.5-0.5H18.2z"/>
	<rect x="3.7" y="17.4" class="st0" width="18.7" height="1.7"/>
	<rect x="4.8" y="5" class="st0" width="16.5" height="1"/>
	<path class="st0" d="M5.8,4.2l14.5-0.1c0.2,0,0.3-0.3,0.1-0.4l-7.2-2.9c0,0-0.1,0-0.1,0l-7.3,3C5.5,3.9,5.5,4.2,5.8,4.2z"/>
</g>
</svg>
