<?xml version="1.0" encoding="utf-8"?>
<!-- Generator: Adobe Illustrator 21.0.0, SVG Export Plug-In . SVG Version: 6.00 Build 0)  -->
<svg version="1.1" id="Ebene_1" xmlns="http://www.w3.org/2000/svg" xmlns:xlink="http://www.w3.org/1999/xlink" x="0px" y="0px"
	 viewBox="0 0 25.8 20.7" style="enable-background:new 0 0 25.8 20.7;" xml:space="preserve">
<style type="text/css">
	.st0{fill:#5CB990;}
	.st1{fill:none;stroke:#5CB990;stroke-width:3;stroke-linecap:round;stroke-linejoin:round;stroke-miterlimit:10;}
	.st2{fill:#E42277;}
	.st3{fill:none;stroke:#5CB990;stroke-miterlimit:10;}
	.st4{fill:#333333;}
	.st5{opacity:0.75;fill:#333333;}
	.st6{opacity:0.5;fill:#333333;}
	.st7{opacity:0.35;fill:#333333;}
	.st8{opacity:0.875;fill:#333333;}
	.st9{opacity:0.64;fill:#333333;}
	.st10{opacity:0.48;fill:#333333;}
	.st11{opacity:0.23;fill:#333333;}
</style>
<path class="st0" d="M20.8,1.2c-0.1,0-3.2,0-5,1.8c-0.3,0.3-0.5,0.5-0.7,0.8c-2.3-2.5-5.5-2.5-5.6-2.5l-1,0v6.5c0,3.3,2.4,6,5.6,6.5
	l0,2.5c-2.4-2.4-6.1-5.4-9.9-5.4l-1.1,0l0,1c0,0.1,0.1,2.3,1.9,4.2c2,2.1,5.3,3.2,9.9,3.2v0c0.1,0,0.2,0,0.3-0.1
	c0.5-0.2,0.8-0.7,0.9-1.2l0.1-4.3c3.2-0.5,5.6-3.2,5.6-6.5V1.2L20.8,1.2z M6.6,15.4c-0.6-0.6-1.2-1.5-1.4-2c2.5,0.5,6.3,3.1,8,4.8
	C10.7,17.8,7.8,16.6,6.6,15.4z M19.8,7.8c0,2.5-2.1,4.6-4.6,4.6c-2.5,0-4.6-2.1-4.6-4.6V3.4c1.7,0.4,4.8,1.7,4.8,7.1l2,0
	c0-1.9-0.3-3.2-0.8-4.4c-0.2-0.4,0.2-1.2,0.6-1.7c0.7-0.7,1.8-1,2.6-1.1V7.8z"/>
</svg>
