<?xml version="1.0" standalone="no"?><!DOCTYPE svg PUBLIC "-//W3C//DTD SVG 1.1//EN" "http://www.w3.org/Graphics/SVG/1.1/DTD/svg11.dtd"><svg width="100%" height="100%" viewBox="0 0 206 54" version="1.1" xmlns="http://www.w3.org/2000/svg" xmlns:xlink="http://www.w3.org/1999/xlink" xml:space="preserve" style="fill-rule:evenodd;clip-rule:evenodd;stroke-linejoin:round;stroke-miterlimit:1.41421;"><g id="Horizontal3"><g><path d="M3.088,32.929c-0.806,-0.815 -1.256,-1.916 -1.25,-3.062c0.006,-1.146 0.467,-2.243 1.282,-3.049c5.968,-5.904 19.026,-18.822 24.544,-24.28c1.406,-1.391 3.672,-1.387 5.073,0.01c3.659,3.647 10.418,10.383 14.348,14.301c1.687,1.681 1.695,4.41 0.018,6.101c-7.975,8.042 -28.994,29.236 -30.142,30.394c-0.01,0.01 -0.023,0.013 -0.036,0.009c-0.012,-0.005 -0.021,-0.015 -0.023,-0.028c-0.102,-0.756 -1.014,-7.467 -1.014,-7.467c0,0 -8.2,-8.282 -12.8,-12.929Z" style="fill:#e71676;"/><path d="M62.937,32.929c0.806,-0.815 1.256,-1.916 1.25,-3.062c-0.006,-1.146 -0.467,-2.243 -1.282,-3.049c-5.968,-5.904 -19.027,-18.822 -24.544,-24.28c-1.406,-1.391 -3.672,-1.387 -5.073,0.01c-3.66,3.647 -10.418,10.383 -14.348,14.301c-1.687,1.681 -1.695,4.41 -0.018,6.101c7.975,8.042 28.994,29.236 30.142,30.394c0.009,0.01 0.023,0.013 0.035,0.009c0.013,-0.005 0.022,-0.015 0.024,-0.028c0.102,-0.756 1.014,-7.467 1.014,-7.467c0,0 8.199,-8.282 12.8,-12.929Z" style="fill:#59b88e;"/><path d="M33.012,2.822l14.073,14.027c1.687,1.681 1.695,4.41 0.018,6.101l-14.091,14.208l-14.09,-14.208c-1.677,-1.691 -1.669,-4.42 0.018,-6.101l14.072,-14.027Z" style="fill:#531442;"/></g><text x="74.747px" y="53.087px" style="font-family:Lato;font-size:38.08px;font-weight:700;fill:#414141;">Daheim</text></g></svg>