<?xml version="1.0" encoding="utf-8"?>
<!-- Generator: Adobe Illustrator 21.0.0, SVG Export Plug-In . SVG Version: 6.00 Build 0)  -->
<svg version="1.1" id="Ebene_1" xmlns="http://www.w3.org/2000/svg" xmlns:xlink="http://www.w3.org/1999/xlink" x="0px" y="0px"
	 viewBox="0 0 277.5 26.1" style="enable-background:new 0 0 277.5 26.1;" xml:space="preserve">
<style type="text/css">
	.st0{clip-path:url(#SVGID_2_);fill:#5CB990;}
	.st1{clip-path:url(#SVGID_2_);fill:none;stroke:#5CB990;stroke-width:2;stroke-miterlimit:10;}
	.st2{fill:#5CB990;}
	.st3{fill:none;stroke:#F6F6F6;stroke-width:3;stroke-linecap:round;stroke-linejoin:round;stroke-miterlimit:10;}
	.st4{fill:#E42277;}
	.st5{fill:none;stroke:#5CB990;stroke-miterlimit:10;}
	.st6{fill:#333333;}
	.st7{opacity:0.75;fill:#333333;}
	.st8{opacity:0.5;fill:#333333;}
	.st9{opacity:0.35;fill:#333333;}
	.st10{opacity:0.875;fill:#333333;}
	.st11{opacity:0.64;fill:#333333;}
	.st12{opacity:0.48;fill:#333333;}
	.st13{opacity:0.23;fill:#333333;}
	.st14{fill:#5CB991;}
	.st15{fill:#E71F79;}
	.st16{fill:#7C3756;}
</style>
<path class="st14" d="M8.7,8.2l6.6-6.6c0,0,1.6-1.6,3.2,0l11.5,11.5c0,0,1.6,1.6,0,3.2l-6.1,6.1l-0.5,3.7l-3.2-3.2l0,0L8.7,11.4
	C8.7,11.4,7.1,9.8,8.7,8.2"/>
<path class="st15" d="M14.1,0.9c-0.5,0-1,0.2-1.5,0.7L1.1,13.1c0,0-1.6,1.6,0,3.2l6.1,6.1l0.5,3.7l3.2-3.2l0,0l4.6-4.6l-6.8-6.8
	c0,0-1.6-1.6,0-3.2l6.6-6.6c0,0,0.1-0.1,0.2-0.2C15.2,1.2,14.7,0.9,14.1,0.9"/>
<path class="st16" d="M15.5,1.4c-0.1,0.1-0.2,0.2-0.2,0.2L8.7,8.2c-1.6,1.6,0,3.2,0,3.2l6.8,6.8l6.8-6.8c0,0,1.6-1.6,0-3.2l-6.6-6.6
	C15.8,1.6,15.7,1.5,15.5,1.4"/>
<path class="st6" d="M40.8,19h1.5c4.1,0,4.8-2.3,4.8-6.1s-0.7-6.1-4.8-6.1h-1.5V19z M36.5,22.8v-20h5.6c2.2,0,3.9,0.1,5.3,0.8
	c2.9,1.5,4,5.2,4,9.2c0,4-1,7.7-3.9,9.2c-1.4,0.7-3.1,0.8-5.3,0.8H36.5z"/>
<path class="st6" d="M61.3,19.7v-3.1c-0.4,0-1-0.1-1.5-0.1c-1.8,0-3,0.5-3,1.9c0,1.5,0.9,2.1,2,2.1C59.6,20.4,60.6,20.2,61.3,19.7
	 M61.8,21.8c-0.9,0.7-2.6,1.4-4.4,1.4c-2.7,0-4.4-1.7-4.4-4.4c0-3.8,3.5-4.5,5.5-4.5c0.8,0,1.8,0,2.8,0.1V13c0-2.3-1-2.5-2.6-2.5
	c-1.3,0-2.5,0.3-3.5,0.6l-0.9-2.6c1.6-1,4.2-1.3,5.5-1.3c4,0,5.7,1.5,5.7,5.8v6.3c0,0.7,0.3,0.8,0.7,0.8c0.4,0,0.8-0.1,1.1-0.2
	l0.6,2.5c-1.3,0.7-2.6,0.8-3.3,0.8C63.2,23.2,62.4,22.7,61.8,21.8"/>
<path class="st6" d="M73.5,8.9c1.1-0.9,2.9-1.6,4.5-1.6c3.8,0,4.6,2.2,4.6,5.1v10.5h-4.4v-9.8c0-1.3-0.1-2.5-1.9-2.5
	c-1.1,0-2.3,0.6-2.8,1.1v11.1h-4.2V2l4.2-0.3V8.9z"/>
<path class="st6" d="M94.1,13.3v-0.2c0-1.8-0.7-3-2.1-3c-2.3,0-2.9,2.2-3,3.1H94.1z M88.9,15.6c0,3.3,1.7,4.5,3.8,4.5
	c1.2,0,2.5-0.2,3.7-0.7l0.7,2.8c-1.5,0.7-3.3,1-5.1,1c-5.6,0-7.1-3.9-7.1-8.4c0-4.1,2.2-7.7,6.9-7.7c3.6,0,5.6,2,5.6,5.4
	c0,0.9-0.2,2.2-0.4,3H88.9z"/>
<path class="st6" d="M104.2,22.8H100V7.5l4.2-0.4V22.8z M104.5,2.5c0,1.4-1.1,2.5-2.4,2.5c-1.4,0-2.5-1.1-2.5-2.5
	c0-1.3,1.1-2.4,2.5-2.4C103.4,0.1,104.5,1.2,104.5,2.5"/>
<path class="st6" d="M119.9,9.3c1-1,3-2.1,5-2.1c3.7,0,4.4,2.2,4.4,5.1v10.5h-4.2v-9.8c0-1.3-0.1-2.5-1.9-2.5
	c-1.1,0-2.3,0.6-2.8,1.1c0,0.2,0,0.4,0,0.6v10.5h-4.2v-9.8c0-1.3-0.1-2.5-1.9-2.5c-1.1,0-2.3,0.6-2.8,1.1v11.1h-4.2V7.5h3.4l0.4,1.7
	c0.9-0.9,2.9-2,4.9-2C118.4,7.2,119.3,8,119.9,9.3"/>
<path class="st6" d="M142.5,15.9c0-0.6-0.2-1.1-0.5-1.4c-0.4-0.4-1.1-0.5-2-0.5h-0.8v3.9h0.6c1.2,0,1.8-0.1,2.2-0.4
	C142.4,17.1,142.5,16.6,142.5,15.9 M144,15.8c0,1-0.3,1.9-1,2.4c-0.3,0.3-0.7,0.4-1.1,0.6l2.8,3.6l-1.1,0.7l-3.1-4.2
	c-0.2,0-0.5,0-0.8,0h-0.5v3.9h-1.4l0-10.1h2.4c1.5,0,2.3,0.2,3,0.8C143.8,14.2,144,15,144,15.8"/>
<path class="st6" d="M150.2,18.1V18c0-1.1-0.4-1.7-1.3-1.7c-1.4,0-1.8,1.3-1.9,1.8L150.2,18.1z M151.2,22.5
	c-0.7,0.4-1.5,0.6-2.4,0.6c-2.4,0-3.3-1.9-3.3-4.2c0-2,1.2-3.8,3.3-3.8c1.8,0,2.6,1.1,2.6,2.6c0,0.5-0.1,0.9-0.2,1.4l-4.4,0
	c0,1.6,0.6,2.9,2.1,2.9c0.7,0,1.3-0.1,2-0.4L151.2,22.5z"/>
<path class="st6" d="M157.5,16.5c-0.4-0.2-0.9-0.3-1.5-0.3c-1.4,0-1.9,1.3-1.9,3c0,1.4,0.3,2.7,1.5,2.7c0.6,0,1.3-0.2,1.8-0.7V16.5z
	 M156,15.1c0.5,0,1.2,0.2,1.4,0.3v-3.1h1.4V23h-1.1l-0.2-0.7c-0.6,0.5-1.3,0.8-2.1,0.8c-1.9,0-2.7-1.6-2.7-3.8
	C152.7,17,153.5,15.1,156,15.1"/>
<path class="st6" d="M165.2,18.1V18c0-1.1-0.4-1.7-1.3-1.7c-1.4,0-1.8,1.3-1.9,1.8L165.2,18.1z M166.2,22.5
	c-0.7,0.4-1.5,0.6-2.4,0.6c-2.4,0-3.3-1.9-3.3-4.2c0-2,1.2-3.8,3.3-3.8c1.8,0,2.6,1.1,2.6,2.6c0,0.5-0.1,0.9-0.2,1.4h-4.4
	c0,1.6,0.6,2.9,2.1,2.9c0.7,0,1.3-0.1,2-0.4L166.2,22.5z"/>
<path class="st6" d="M173.8,22.9h-1.4v-5.1c0-0.8-0.1-1.5-0.9-1.5c-0.8,0-1.7,0.4-2.2,1l0,5.6H168v-7.6h1.1l0.2,0.9
	c0.5-0.5,1.6-1.1,2.5-1.1c1.6,0,2,1.1,2,2.5L173.8,22.9z"/>
<path class="st6" d="M177.4,22c0,0.5-0.4,1-0.9,1c-0.5,0-0.9-0.4-0.9-1c0-0.5,0.4-0.9,0.9-0.9C177,21.1,177.4,21.5,177.4,22"/>
<polygon class="st6" points="192.9,21.7 192.9,22.9 187.7,22.9 187.7,12.8 189.1,12.8 189.1,21.7 "/>
<g>
	<path class="st6" d="M198.3,18.1V18c0-1.1-0.4-1.7-1.3-1.7c-1.4,0-1.8,1.3-1.9,1.8L198.3,18.1z M199.3,22.5
		c-0.7,0.4-1.5,0.6-2.4,0.6c-2.4,0-3.3-1.9-3.3-4.2c0-2,1.2-3.8,3.3-3.8c1.8,0,2.6,1.1,2.6,2.6c0,0.5-0.1,0.9-0.2,1.4h-4.4
		c0,1.6,0.6,2.9,2.1,2.9c0.7,0,1.3-0.1,2-0.4L199.3,22.5z"/>
	<path class="st6" d="M202.5,22.9h-1.4v-7.6h1.1l0.1,1.1c0.3-0.5,1.1-1.3,2.3-1.3c0.2,0,0.5,0,0.7,0.1l-0.3,1.1c-0.1,0-0.3,0-0.4,0
		c-0.9,0-1.8,0.3-2.2,1.2V22.9z"/>
	<path class="st6" d="M212.4,22.9h-1.4v-5.1c0-0.8-0.1-1.5-0.9-1.5c-0.8,0-1.7,0.4-2.2,1v5.6h-1.4v-7.6h1.1l0.2,0.9
		c0.5-0.5,1.6-1.1,2.5-1.1c1.6,0,2,1.1,2,2.5V22.9z"/>
	<path class="st6" d="M218.7,18.1V18c0-1.1-0.4-1.7-1.3-1.7c-1.4,0-1.8,1.3-1.9,1.8L218.7,18.1z M219.8,22.5
		c-0.7,0.4-1.5,0.6-2.4,0.6c-2.4,0-3.3-1.9-3.3-4.2c0-2,1.2-3.8,3.3-3.8c1.8,0,2.6,1.1,2.6,2.6c0,0.5-0.1,0.9-0.2,1.4h-4.4
		c0,1.6,0.6,2.9,2.1,2.9c0.7,0,1.3-0.1,2-0.4L219.8,22.5z"/>
	<path class="st6" d="M227.4,22.9H226v-5.1c0-0.8-0.1-1.5-0.9-1.5c-0.8,0-1.7,0.4-2.2,1v5.6h-1.4v-7.6h1.1l0.1,0.9
		c0.5-0.5,1.6-1.1,2.5-1.1c1.6,0,2,1.1,2,2.5V22.9z"/>
	<path class="st6" d="M231,22c0,0.5-0.4,1-0.9,1c-0.5,0-0.9-0.4-0.9-1c0-0.5,0.4-0.9,0.9-0.9C230.6,21.1,231,21.5,231,22"/>
</g>
<polygon class="st6" points="244.5,21.7 244.5,22.9 239.3,22.9 239.3,12.8 240.7,12.8 240.7,21.7 "/>
<g>
	<path class="st6" d="M249.9,18.1V18c0-1.1-0.4-1.7-1.3-1.7c-1.4,0-1.8,1.3-1.9,1.8L249.9,18.1z M251,22.5c-0.7,0.4-1.5,0.6-2.4,0.6
		c-2.4,0-3.3-1.9-3.3-4.2c0-2,1.2-3.8,3.3-3.8c1.8,0,2.6,1.1,2.6,2.6c0,0.5-0.1,0.9-0.2,1.4h-4.4c0,1.6,0.6,2.9,2.1,2.9
		c0.7,0,1.3-0.1,2-0.4L251,22.5z"/>
	<path class="st6" d="M254.1,16.9v4.8c0.4,0.1,1,0.2,1.4,0.2c1.4,0,1.9-1.3,1.9-3c0-2.1-0.7-2.7-1.5-2.7
		C255.2,16.3,254.6,16.6,254.1,16.9 M254.1,15.8c0.3-0.2,1.2-0.7,2.1-0.7c1.4,0,2.7,1.2,2.7,3.6c0,2.8-0.9,4.4-3.3,4.4
		c-1,0-2.1-0.3-2.8-0.7l0-10h1.4V15.8z"/>
	<path class="st6" d="M264.8,18.1V18c0-1.1-0.4-1.7-1.3-1.7c-1.4,0-1.8,1.3-1.9,1.8L264.8,18.1z M265.9,22.5
		c-0.7,0.4-1.5,0.6-2.4,0.6c-2.4,0-3.3-1.9-3.3-4.2c0-2,1.2-3.8,3.3-3.8c1.8,0,2.6,1.1,2.6,2.6c0,0.5-0.1,0.9-0.2,1.4h-4.4
		c0,1.6,0.6,2.9,2.1,2.9c0.7,0,1.3-0.1,2-0.4L265.9,22.5z"/>
	<path class="st6" d="M273.5,22.9h-1.4v-5.1c0-0.8-0.1-1.5-0.9-1.5c-0.8,0-1.7,0.4-2.2,1v5.6h-1.4v-7.6h1.1l0.1,0.9
		c0.5-0.5,1.6-1.1,2.5-1.1c1.6,0,2,1.1,2,2.5V22.9z"/>
	<path class="st6" d="M277.1,22c0,0.5-0.4,1-0.9,1c-0.5,0-0.9-0.4-0.9-1c0-0.5,0.4-0.9,0.9-0.9C276.7,21.1,277.1,21.5,277.1,22"/>
</g>
</svg>
