<?xml version="1.0" encoding="utf-8"?>
<!-- Generator: Adobe Illustrator 16.0.0, SVG Export Plug-In . SVG Version: 6.00 Build 0)  -->
<!DOCTYPE svg PUBLIC "-//W3C//DTD SVG 1.1//EN" "http://www.w3.org/Graphics/SVG/1.1/DTD/svg11.dtd">
<svg version="1.1" id="Ebene_1" xmlns="http://www.w3.org/2000/svg" xmlns:xlink="http://www.w3.org/1999/xlink" x="0px" y="0px"
	 width="247.75px" height="84.779px" viewBox="0 0 247.75 84.779" enable-background="new 0 0 247.75 84.779" xml:space="preserve">
<g>
	<g opacity="0.9">
		<g>
			<defs>
				<rect id="SVGID_1_" x="17.904" y="-7.25" width="96.354" height="92.029"/>
			</defs>
			<clipPath id="SVGID_2_">
				<use xlink:href="#SVGID_1_"  overflow="visible"/>
			</clipPath>
			<path clip-path="url(#SVGID_2_)" fill="#5EB991" d="M29.344,24.893L52.188,3.081c0,0,5.494-5.244,10.987,0l39.642,37.853
				c0,0,5.494,5.246,0,10.492L81.647,71.65L80.02,83.777l-11.033-10.53l-0.046-0.043L29.344,35.385
				C29.344,35.385,23.852,30.139,29.344,24.893"/>
		</g>
	</g>
	<g opacity="0.9">
		<g>
			<defs>
				<rect id="SVGID_3_" x="-8.309" y="-7.25" width="70.284" height="92.029"/>
			</defs>
			<clipPath id="SVGID_4_">
				<use xlink:href="#SVGID_3_"  overflow="visible"/>
			</clipPath>
			<path clip-path="url(#SVGID_4_)" fill="#E5257A" d="M48.065,0.75c-1.628,0-3.457,0.583-5.289,2.331L3.131,40.936
				c0,0-5.494,5.244,0,10.49L24.303,71.65l1.625,12.129L36.96,73.245l0.047-0.043l15.968-15.25l-23.63-22.567
				c0,0-5.493-5.245,0-10.491L52.188,3.081c0,0,0.283-0.271,0.787-0.627C52.002,1.764,50.209,0.75,48.065,0.75"/>
		</g>
	</g>
	<g opacity="0.9">
		<g>
			<defs>
				<rect id="SVGID_5_" x="17.904" y="-5.547" width="70.142" height="64.499"/>
			</defs>
			<clipPath id="SVGID_6_">
				<use xlink:href="#SVGID_5_"  overflow="visible"/>
			</clipPath>
			<path clip-path="url(#SVGID_6_)" fill="#7C3856" d="M52.975,2.453c-0.504,0.356-0.787,0.628-0.787,0.628L29.344,24.893
				c-5.492,5.245,0,10.491,0,10.491l23.63,22.568l23.629-22.568c0,0,5.493-5.246,0-10.491L53.76,3.081
				C53.76,3.081,53.478,2.811,52.975,2.453"/>
		</g>
	</g>
	<g>
		<path fill="#343434" d="M120.536,32.709h-8.16v27.646h8.16c3.212,0,5.688-0.166,7.682-1.119c4.168-1.989,5.688-7.172,5.688-12.684
			c0-5.555-1.52-10.694-5.729-12.767C126.179,32.793,123.748,32.709,120.536,32.709 M118.625,55.008V38.057h2.171
			c5.904,0,6.945,3.148,6.945,8.455c0,5.305-1.041,8.496-6.945,8.496H118.625z"/>
		<path fill="#343434" d="M146.103,38.635c-1.779,0-5.511,0.498-7.899,1.867l1.26,3.647c1.432-0.457,3.298-0.871,5.122-0.871
			c2.301,0,3.819,0.248,3.819,3.398v2.031c-1.562-0.125-2.952-0.125-4.122-0.125c-2.865,0-7.902,0.91-7.945,6.217
			c0,3.729,2.476,6.092,6.424,6.092c2.604,0,5.036-0.953,6.337-1.988c0.782,1.201,1.997,1.906,3.994,1.906
			c0.912,0,2.822-0.164,4.732-1.16L157,56.211c-0.521,0.123-1.086,0.248-1.606,0.248c-0.608,0-1.085-0.248-1.085-1.16v-8.705
			C154.309,40.75,151.964,38.635,146.103,38.635 M144.845,57.04c-1.605,0-2.864-0.787-2.864-2.859c0-1.949,1.735-2.652,4.297-2.652
			c0.695,0,1.52,0.041,2.127,0.082v4.353C147.276,56.667,145.887,57.04,144.845,57.04"/>
		<path fill="#343434" d="M165.941,31.093l-6.076,0.373v28.89h6.076V44.977c0.824-0.746,2.517-1.533,4.123-1.533
			c2.605,0,2.69,1.617,2.69,3.398v13.514h6.339V45.807c0-3.979-1.172-7.088-6.642-7.088c-2.301,0-4.905,1.078-6.511,2.279V31.093z"
			/>
		<path fill="#343434" d="M192.637,38.721c-6.727,0-9.938,4.932-9.938,10.609c0,6.133,2.214,11.563,10.287,11.563
			c2.647,0,5.208-0.457,7.423-1.369l-1.043-3.938c-1.823,0.664-3.689,0.953-5.425,0.953c-3.082,0-5.514-1.615-5.557-6.218h11.763
			c0.305-1.118,0.565-2.899,0.565-4.145C200.712,41.538,197.847,38.721,192.637,38.721 M188.426,47.174
			c0.218-1.242,0.998-4.353,4.385-4.353c2.04,0,3.039,1.574,3.039,4.104v0.248H188.426z"/>
		<path fill="#343434" d="M207.505,28.896h-0.137c-2.004,0.034-3.532,1.555-3.532,3.355c0,1.907,1.564,3.481,3.604,3.481
			c1.91,0,3.516-1.574,3.516-3.481C210.956,30.451,209.388,28.932,207.505,28.896 M210.479,38.637l-6.076,0.496v21.223h6.076V38.637
			z"/>
		<path fill="#343434" d="M240.517,38.719c-2.865,0-5.817,1.451-7.249,2.861c-0.868-1.742-2.129-2.861-5.601-2.861
			c-2.821,0-5.729,1.451-7.075,2.736l-0.521-2.363h-4.992v21.264h6.077V44.979c0.825-0.746,2.517-1.535,4.124-1.535
			c2.604,0,2.69,1.617,2.69,3.4v13.512h6.077V45.848c0-0.291,0-0.58-0.044-0.869c0.826-0.746,2.519-1.535,4.124-1.535
			c2.605,0,2.691,1.617,2.691,3.4v13.512h6.077V45.807C246.896,41.829,245.898,38.719,240.517,38.719"/>
		<path fill="#343434" d="M114.711,66.932h-2.327v9.4h1.414v-3.646h0.531c0.264,0,0.499,0,0.736-0.012l3.05,3.896l1.059-0.69
			l-2.71-3.39c0.457-0.11,0.796-0.28,1.119-0.52c0.664-0.494,0.945-1.322,0.945-2.252c0-0.787-0.222-1.463-0.856-1.998
			C116.996,67.131,116.213,66.932,114.711,66.932 M113.797,71.561v-3.615h0.795c0.929,0,1.593,0.101,2.004,0.492
			c0.31,0.281,0.502,0.76,0.502,1.353c0,0.66-0.178,1.11-0.635,1.422c-0.368,0.266-0.914,0.35-2.106,0.35L113.797,71.561
			L113.797,71.561z"/>
		<path fill="#343434" d="M123.227,69.072c-2.05,0-3.197,1.632-3.197,3.546c0,2.151,0.927,3.896,3.253,3.896
			c0.842,0,1.592-0.182,2.313-0.576l-0.338-0.873c-0.618,0.269-1.253,0.396-1.931,0.396c-1.459,0-2.063-1.211-2.091-2.688h4.332
			c0.133-0.465,0.221-0.803,0.221-1.266C125.789,70.098,124.949,69.072,123.227,69.072 M124.581,71.857l-3.198-0.026
			c0.104-0.509,0.485-1.72,1.9-1.72c0.885,0,1.298,0.648,1.298,1.634V71.857z"/>
		<path fill="#343434" d="M133.05,66.482h-1.34v2.912c-0.265-0.141-0.884-0.324-1.414-0.324c-2.504,0-3.226,1.789-3.226,3.843
			c0,2.096,0.854,3.545,2.667,3.545c0.838,0,1.502-0.267,2.077-0.703l0.19,0.688h1.045V66.482z M129.942,75.445
			c-1.178,0-1.502-1.196-1.502-2.547c0-1.532,0.427-2.771,1.842-2.771c0.559,0,1.015,0.084,1.428,0.252v4.447
			C131.254,75.234,130.546,75.445,129.942,75.445"/>
		<path fill="#343434" d="M137.882,69.072c-2.048,0-3.197,1.632-3.197,3.546c0,2.151,0.93,3.896,3.257,3.896
			c0.84,0,1.591-0.182,2.312-0.576l-0.339-0.873c-0.619,0.269-1.252,0.396-1.928,0.396c-1.46,0-2.064-1.211-2.093-2.688h4.33
			c0.134-0.465,0.222-0.803,0.222-1.266C140.445,70.098,139.607,69.072,137.882,69.072 M139.239,71.857l-3.197-0.026
			c0.104-0.509,0.485-1.72,1.9-1.72c0.884,0,1.297,0.648,1.297,1.634V71.857L139.239,71.857z"/>
		<path fill="#343434" d="M145.763,69.072c-0.929,0-1.974,0.562-2.461,0.998l-0.147-0.858h-1.104v7.121h1.326v-5.248
			c0.471-0.535,1.415-0.943,2.165-0.943c0.752,0,0.869,0.646,0.869,1.379v4.812h1.326V71.45
			C147.736,70.113,147.339,69.072,145.763,69.072"/>
		<path fill="#343434" d="M150.344,74.686c-0.501,0-0.897,0.379-0.897,0.842c0,0.48,0.396,0.89,0.897,0.89
			c0.5,0,0.899-0.408,0.899-0.89C151.243,75.064,150.844,74.686,150.344,74.686"/>
	</g>
	<g>
		<polygon fill="#343434" points="160.757,66.932 159.344,66.932 159.344,76.333 164.441,76.333 164.441,75.189 160.757,75.189 		
			"/>
	</g>
	<g>
		<path fill="#343434" d="M168.417,69.072c-2.047,0-3.196,1.632-3.196,3.546c0,2.151,0.929,3.896,3.256,3.896
			c0.841,0,1.591-0.182,2.312-0.576l-0.339-0.873c-0.617,0.269-1.249,0.396-1.928,0.396c-1.46,0-2.062-1.211-2.095-2.688h4.332
			c0.135-0.465,0.224-0.803,0.224-1.266C170.983,70.098,170.142,69.072,168.417,69.072 M169.774,71.857l-3.197-0.026
			c0.103-0.509,0.485-1.72,1.9-1.72c0.884,0,1.297,0.648,1.297,1.634V71.857L169.774,71.857z"/>
		<path fill="#343434" d="M176.107,69.072c-1.163,0-2.003,0.773-2.27,1.193l-0.147-1.055h-1.105v7.121h1.326v-5.08
			c0.428-0.804,1.283-1.111,2.196-1.111c0.132,0,0.251,0,0.383,0.016l0.265-1.016C176.578,69.086,176.284,69.072,176.107,69.072"/>
		<path fill="#343434" d="M181.617,69.072c-0.929,0-1.974,0.562-2.461,0.998l-0.148-0.858h-1.104v7.121h1.326v-5.248
			c0.471-0.535,1.414-0.943,2.165-0.943c0.752,0,0.869,0.646,0.869,1.379v4.812h1.326V71.45
			C183.59,70.113,183.193,69.072,181.617,69.072"/>
		<path fill="#343434" d="M188.393,69.072c-2.049,0-3.197,1.632-3.197,3.546c0,2.151,0.928,3.896,3.255,3.896
			c0.841,0,1.592-0.182,2.315-0.576l-0.34-0.873c-0.618,0.269-1.253,0.396-1.931,0.396c-1.46,0-2.062-1.211-2.093-2.688h4.332
			c0.133-0.465,0.222-0.803,0.222-1.266C190.956,70.098,190.115,69.072,188.393,69.072 M189.747,71.857l-3.197-0.026
			c0.104-0.509,0.485-1.72,1.9-1.72c0.884,0,1.297,0.648,1.297,1.634V71.857L189.747,71.857z"/>
		<path fill="#343434" d="M196.272,69.072c-0.929,0-1.974,0.562-2.459,0.998l-0.148-0.858h-1.104v7.121h1.324v-5.248
			c0.475-0.535,1.416-0.943,2.167-0.943c0.752,0,0.87,0.646,0.87,1.379v4.812h1.325V71.45
			C198.247,70.113,197.851,69.072,196.272,69.072"/>
		<path fill="#343434" d="M200.854,74.686c-0.5,0-0.899,0.379-0.899,0.842c0,0.48,0.399,0.89,0.899,0.89
			c0.501,0,0.898-0.408,0.898-0.89C201.752,75.064,201.354,74.686,200.854,74.686"/>
	</g>
	<g>
		<polygon fill="#343434" points="211.269,66.932 209.854,66.932 209.854,76.333 214.952,76.333 214.952,75.189 211.269,75.189 		
			"/>
	</g>
	<g>
		<path fill="#343434" d="M218.926,69.072c-2.048,0-3.196,1.632-3.196,3.546c0,2.151,0.929,3.896,3.256,3.896
			c0.841,0,1.591-0.182,2.314-0.576l-0.34-0.873c-0.618,0.269-1.253,0.396-1.93,0.396c-1.458,0-2.062-1.211-2.093-2.688h4.332
			c0.133-0.465,0.222-0.803,0.222-1.266C221.491,70.098,220.65,69.072,218.926,69.072 M220.282,71.857l-3.197-0.026
			c0.104-0.509,0.487-1.72,1.9-1.72c0.884,0,1.297,0.648,1.297,1.634V71.857z"/>
		<path fill="#343434" d="M224.392,66.482h-1.326v9.355c0.649,0.379,1.709,0.674,2.71,0.674c2.329,0,3.258-1.518,3.258-4.092
			c0-2.226-1.208-3.351-2.623-3.351c-0.869,0-1.753,0.466-2.019,0.662V66.482z M225.791,75.445c-0.413,0-1.046-0.084-1.399-0.227
			V70.73c0.442-0.295,1.091-0.59,1.797-0.59c0.812,0,1.46,0.547,1.46,2.547C227.648,74.249,227.191,75.445,225.791,75.445"/>
		<path fill="#343434" d="M233.539,69.072c-2.048,0-3.197,1.632-3.197,3.546c0,2.151,0.93,3.896,3.256,3.896
			c0.842,0,1.592-0.182,2.313-0.576l-0.339-0.873c-0.619,0.269-1.252,0.396-1.929,0.396c-1.46,0-2.062-1.211-2.094-2.688h4.332
			c0.133-0.465,0.221-0.803,0.221-1.266C236.103,70.098,235.263,69.072,233.539,69.072 M234.896,71.857l-3.197-0.026
			c0.103-0.509,0.485-1.72,1.899-1.72c0.885,0,1.298,0.648,1.298,1.634V71.857z"/>
		<path fill="#343434" d="M241.42,69.072c-0.928,0-1.973,0.562-2.459,0.998l-0.147-0.858h-1.106v7.121h1.328v-5.248
			c0.471-0.535,1.412-0.943,2.165-0.943c0.752,0,0.87,0.646,0.87,1.379v4.812h1.326V71.45
			C243.396,70.113,242.997,69.072,241.42,69.072"/>
		<path fill="#343434" d="M246.002,74.686c-0.502,0-0.898,0.379-0.898,0.842c0,0.48,0.396,0.89,0.898,0.89
			c0.489,0,0.88-0.392,0.898-0.854v-0.065C246.881,75.047,246.49,74.686,246.002,74.686"/>
	</g>
</g>
</svg>
