<?xml version="1.0" standalone="no"?><!DOCTYPE svg PUBLIC "-//W3C//DTD SVG 1.1//EN" "http://www.w3.org/Graphics/SVG/1.1/DTD/svg11.dtd"><svg width="100%" height="100%" viewBox="0 0 207 207" version="1.1" xmlns="http://www.w3.org/2000/svg" xmlns:xlink="http://www.w3.org/1999/xlink" xml:space="preserve" style="fill-rule:evenodd;clip-rule:evenodd;stroke-linejoin:round;stroke-miterlimit:1.41421;"><g id="square-icon"><g><path d="M9.54,122.558c-2.527,-2.546 -3.937,-5.994 -3.918,-9.581c0.018,-3.588 1.464,-7.021 4.018,-9.54c18.691,-18.439 59.532,-58.73 76.772,-75.738c4.393,-4.334 11.456,-4.32 15.832,0.029c11.435,11.366 32.57,32.374 44.876,44.606c2.54,2.525 3.973,5.955 3.983,9.536c0.011,3.581 -1.402,7.019 -3.927,9.558c-24.972,25.111 -90.679,91.185 -94.266,94.793c-0.029,0.029 -0.072,0.039 -0.111,0.026c-0.038,-0.013 -0.066,-0.047 -0.072,-0.087c-0.321,-2.357 -3.173,-23.293 -3.173,-23.293c0,0 -25.616,-25.806 -40.014,-40.309Z" style="fill:#e71676;"/><path d="M196.71,122.558c2.527,-2.546 3.937,-5.994 3.918,-9.581c-0.018,-3.588 -1.464,-7.021 -4.018,-9.54c-18.691,-18.439 -59.532,-58.73 -76.772,-75.738c-4.393,-4.334 -11.456,-4.32 -15.832,0.029c-11.435,11.366 -32.57,32.374 -44.876,44.606c-2.54,2.525 -3.973,5.955 -3.983,9.536c-0.011,3.581 1.402,7.019 3.927,9.558c24.972,25.111 90.679,91.185 94.266,94.793c0.029,0.029 0.072,0.039 0.111,0.026c0.038,-0.013 0.066,-0.047 0.072,-0.087c0.321,-2.357 3.173,-23.293 3.173,-23.293c0,0 25.616,-25.806 40.014,-40.309Z" style="fill:#59b88e;"/><path d="M103.125,28.604l44.024,43.759c5.277,5.245 5.302,13.76 0.056,19.036l-44.08,44.326l-44.08,-44.326c-5.246,-5.276 -5.221,-13.791 0.056,-19.036l44.024,-43.759Z" style="fill:#531442;"/></g></g></svg>